%TF.GenerationSoftware,KiCad,Pcbnew,7.0.1*%
%TF.CreationDate,2023-05-04T18:56:47-04:00*%
%TF.ProjectId,Combined (new),436f6d62-696e-4656-9420-286e6577292e,rev?*%
%TF.SameCoordinates,Original*%
%TF.FileFunction,Paste,Top*%
%TF.FilePolarity,Positive*%
%FSLAX46Y46*%
G04 Gerber Fmt 4.6, Leading zero omitted, Abs format (unit mm)*
G04 Created by KiCad (PCBNEW 7.0.1) date 2023-05-04 18:56:47*
%MOMM*%
%LPD*%
G01*
G04 APERTURE LIST*
G04 Aperture macros list*
%AMRoundRect*
0 Rectangle with rounded corners*
0 $1 Rounding radius*
0 $2 $3 $4 $5 $6 $7 $8 $9 X,Y pos of 4 corners*
0 Add a 4 corners polygon primitive as box body*
4,1,4,$2,$3,$4,$5,$6,$7,$8,$9,$2,$3,0*
0 Add four circle primitives for the rounded corners*
1,1,$1+$1,$2,$3*
1,1,$1+$1,$4,$5*
1,1,$1+$1,$6,$7*
1,1,$1+$1,$8,$9*
0 Add four rect primitives between the rounded corners*
20,1,$1+$1,$2,$3,$4,$5,0*
20,1,$1+$1,$4,$5,$6,$7,0*
20,1,$1+$1,$6,$7,$8,$9,0*
20,1,$1+$1,$8,$9,$2,$3,0*%
G04 Aperture macros list end*
%ADD10RoundRect,0.250000X0.262500X0.450000X-0.262500X0.450000X-0.262500X-0.450000X0.262500X-0.450000X0*%
%ADD11RoundRect,0.250000X1.100000X-0.325000X1.100000X0.325000X-1.100000X0.325000X-1.100000X-0.325000X0*%
%ADD12RoundRect,0.200000X-0.200000X-0.275000X0.200000X-0.275000X0.200000X0.275000X-0.200000X0.275000X0*%
%ADD13RoundRect,0.200000X0.275000X-0.200000X0.275000X0.200000X-0.275000X0.200000X-0.275000X-0.200000X0*%
%ADD14RoundRect,0.250000X-0.362500X-1.425000X0.362500X-1.425000X0.362500X1.425000X-0.362500X1.425000X0*%
%ADD15RoundRect,0.225000X0.250000X-0.225000X0.250000X0.225000X-0.250000X0.225000X-0.250000X-0.225000X0*%
%ADD16R,2.032000X0.660400*%
%ADD17R,2.540000X3.556000*%
%ADD18RoundRect,0.200000X-0.275000X0.200000X-0.275000X-0.200000X0.275000X-0.200000X0.275000X0.200000X0*%
%ADD19RoundRect,0.218750X-0.218750X-0.256250X0.218750X-0.256250X0.218750X0.256250X-0.218750X0.256250X0*%
%ADD20R,1.000000X1.000000*%
%ADD21R,1.550000X1.000000*%
%ADD22R,3.800000X1.000000*%
%ADD23R,1.000000X2.300000*%
%ADD24R,1.000000X3.800000*%
%ADD25R,1.520000X1.780000*%
%ADD26R,1.520000X1.750000*%
%ADD27RoundRect,0.250000X-0.450000X0.262500X-0.450000X-0.262500X0.450000X-0.262500X0.450000X0.262500X0*%
%ADD28RoundRect,0.625000X-0.975000X0.625000X-0.975000X-0.625000X0.975000X-0.625000X0.975000X0.625000X0*%
%ADD29RoundRect,0.250000X-0.312500X-0.625000X0.312500X-0.625000X0.312500X0.625000X-0.312500X0.625000X0*%
%ADD30RoundRect,0.250000X-0.850000X-0.350000X0.850000X-0.350000X0.850000X0.350000X-0.850000X0.350000X0*%
%ADD31RoundRect,0.250000X-1.275000X-1.125000X1.275000X-1.125000X1.275000X1.125000X-1.275000X1.125000X0*%
%ADD32RoundRect,0.225000X-0.250000X0.225000X-0.250000X-0.225000X0.250000X-0.225000X0.250000X0.225000X0*%
%ADD33R,0.558800X1.981200*%
%ADD34O,3.400000X1.500000*%
%ADD35RoundRect,0.250000X-0.262500X-0.450000X0.262500X-0.450000X0.262500X0.450000X-0.262500X0.450000X0*%
%ADD36RoundRect,0.225000X0.225000X0.250000X-0.225000X0.250000X-0.225000X-0.250000X0.225000X-0.250000X0*%
%ADD37RoundRect,0.225000X-0.225000X-0.250000X0.225000X-0.250000X0.225000X0.250000X-0.225000X0.250000X0*%
%ADD38RoundRect,0.250000X-0.325000X-1.100000X0.325000X-1.100000X0.325000X1.100000X-0.325000X1.100000X0*%
%ADD39RoundRect,0.250000X0.450000X-0.262500X0.450000X0.262500X-0.450000X0.262500X-0.450000X-0.262500X0*%
%ADD40RoundRect,0.250000X-0.400000X-0.600000X0.400000X-0.600000X0.400000X0.600000X-0.400000X0.600000X0*%
%ADD41RoundRect,0.250000X-0.925000X0.412500X-0.925000X-0.412500X0.925000X-0.412500X0.925000X0.412500X0*%
%ADD42R,1.981200X0.558800*%
%ADD43R,1.020000X0.400000*%
%ADD44RoundRect,0.200000X0.200000X0.275000X-0.200000X0.275000X-0.200000X-0.275000X0.200000X-0.275000X0*%
%ADD45RoundRect,0.041300X0.943700X0.253700X-0.943700X0.253700X-0.943700X-0.253700X0.943700X-0.253700X0*%
%ADD46RoundRect,0.250000X2.050000X0.300000X-2.050000X0.300000X-2.050000X-0.300000X2.050000X-0.300000X0*%
%ADD47RoundRect,0.250000X2.025000X2.375000X-2.025000X2.375000X-2.025000X-2.375000X2.025000X-2.375000X0*%
%ADD48R,1.981200X0.533400*%
%ADD49RoundRect,0.048800X0.871200X0.256200X-0.871200X0.256200X-0.871200X-0.256200X0.871200X-0.256200X0*%
%ADD50RoundRect,0.250000X0.400000X0.600000X-0.400000X0.600000X-0.400000X-0.600000X0.400000X-0.600000X0*%
%ADD51R,0.640000X1.900000*%
%ADD52RoundRect,0.250000X0.787500X1.025000X-0.787500X1.025000X-0.787500X-1.025000X0.787500X-1.025000X0*%
%ADD53RoundRect,0.250000X-0.300000X2.050000X-0.300000X-2.050000X0.300000X-2.050000X0.300000X2.050000X0*%
%ADD54RoundRect,0.250000X-2.375000X2.025000X-2.375000X-2.025000X2.375000X-2.025000X2.375000X2.025000X0*%
%ADD55RoundRect,0.049600X-0.260400X0.935400X-0.260400X-0.935400X0.260400X-0.935400X0.260400X0.935400X0*%
%ADD56RoundRect,0.788000X-0.792000X0.197000X-0.792000X-0.197000X0.792000X-0.197000X0.792000X0.197000X0*%
%ADD57RoundRect,0.250000X0.412500X0.925000X-0.412500X0.925000X-0.412500X-0.925000X0.412500X-0.925000X0*%
%ADD58RoundRect,0.250000X0.325000X1.100000X-0.325000X1.100000X-0.325000X-1.100000X0.325000X-1.100000X0*%
G04 APERTURE END LIST*
D10*
%TO.C,R13*%
X144835477Y-54101451D03*
X143010477Y-54101451D03*
%TD*%
D11*
%TO.C,C51*%
X128908093Y-127029306D03*
X128908093Y-124079306D03*
%TD*%
D12*
%TO.C,R38*%
X125244988Y-147272713D03*
X126894988Y-147272713D03*
%TD*%
D13*
%TO.C,R36*%
X112903000Y-116369000D03*
X112903000Y-114719000D03*
%TD*%
D12*
%TO.C,R32*%
X69560618Y-142239960D03*
X71210618Y-142239960D03*
%TD*%
D14*
%TO.C,R9*%
X150164262Y-113603705D03*
X156089262Y-113603705D03*
%TD*%
D10*
%TO.C,R17*%
X148440477Y-51077426D03*
X146615477Y-51077426D03*
%TD*%
D15*
%TO.C,C10*%
X135894050Y-79336617D03*
X135894050Y-77786617D03*
%TD*%
D16*
%TO.C,U8*%
X159731824Y-48110039D03*
X159731824Y-49380039D03*
X159731824Y-50650039D03*
X159731824Y-51920039D03*
X165319824Y-51920039D03*
X165319824Y-50650039D03*
X165319824Y-49380039D03*
X165319824Y-48110039D03*
D17*
X162525824Y-50015039D03*
%TD*%
D18*
%TO.C,R35*%
X147319856Y-146506237D03*
X147319856Y-148156237D03*
%TD*%
D19*
%TO.C,L4*%
X152116569Y-131854347D03*
X153691569Y-131854347D03*
%TD*%
D20*
%TO.C,TP1*%
X137419433Y-137356288D03*
D21*
X138694433Y-137356288D03*
D22*
X143569433Y-137356288D03*
X149569433Y-137356288D03*
X155569433Y-137356288D03*
X161569433Y-137356288D03*
D21*
X166444433Y-137356288D03*
D20*
X167719433Y-137356288D03*
D23*
X137419433Y-135706288D03*
X167719433Y-135706288D03*
D24*
X137419433Y-130456288D03*
X167719433Y-130456288D03*
X137419433Y-124456288D03*
X167719433Y-124456288D03*
X137419433Y-118456288D03*
X167719433Y-118456288D03*
X137419433Y-112456288D03*
X167719433Y-112456288D03*
X137419433Y-106456288D03*
X167719433Y-106456288D03*
X137419433Y-100456288D03*
X167719433Y-100456288D03*
D23*
X137419433Y-95206288D03*
X167719433Y-95206288D03*
D20*
X137419433Y-93556288D03*
D21*
X138694433Y-93556288D03*
D22*
X143569433Y-93556288D03*
X149569433Y-93556288D03*
X155569433Y-93556288D03*
X161569433Y-93556288D03*
D21*
X166444433Y-93556288D03*
D20*
X167719433Y-93556288D03*
%TD*%
D25*
%TO.C,J5*%
X133919599Y-119373256D03*
D26*
X133919599Y-116833256D03*
D25*
X133919599Y-114293256D03*
X133919599Y-111753256D03*
X126299599Y-111753256D03*
X126299599Y-114293256D03*
X126299599Y-116833256D03*
X126299599Y-119373256D03*
%TD*%
D15*
%TO.C,C30*%
X157795599Y-113303256D03*
X157795599Y-111753256D03*
%TD*%
D27*
%TO.C,R19*%
X155820967Y-52274821D03*
X155820967Y-54099821D03*
%TD*%
D28*
%TO.C,L2*%
X120650000Y-129935000D03*
X120650000Y-138035000D03*
%TD*%
D18*
%TO.C,R34*%
X152374307Y-146527951D03*
X152374307Y-148177951D03*
%TD*%
%TO.C,R1*%
X144261759Y-101349121D03*
X144261759Y-102999121D03*
%TD*%
D29*
%TO.C,R41*%
X135255000Y-147955000D03*
X138180000Y-147955000D03*
%TD*%
D30*
%TO.C,U14*%
X136242922Y-30003935D03*
D31*
X140867922Y-30758935D03*
X140867922Y-33808935D03*
X144217922Y-30758935D03*
X144217922Y-33808935D03*
D30*
X136242922Y-34563935D03*
%TD*%
D10*
%TO.C,R14*%
X144832776Y-51925154D03*
X143007776Y-51925154D03*
%TD*%
D32*
%TO.C,C2*%
X146801211Y-101394072D03*
X146801211Y-102944072D03*
%TD*%
D33*
%TO.C,U1*%
X142991759Y-109886721D03*
X144261759Y-109886721D03*
X145531759Y-109886721D03*
X146801759Y-109886721D03*
X146801759Y-104959121D03*
X145531759Y-104959121D03*
X144261759Y-104959121D03*
X142991759Y-104959121D03*
%TD*%
D15*
%TO.C,C1*%
X142669092Y-102943524D03*
X142669092Y-101393524D03*
%TD*%
D34*
%TO.C,C31*%
X95175000Y-133096000D03*
X101675000Y-133096000D03*
%TD*%
D35*
%TO.C,R24*%
X73296869Y-34928979D03*
X75121869Y-34928979D03*
%TD*%
D15*
%TO.C,C27*%
X163144222Y-129532056D03*
X163144222Y-127982056D03*
%TD*%
D36*
%TO.C,C28*%
X159853599Y-117849256D03*
X158303599Y-117849256D03*
%TD*%
D13*
%TO.C,R4*%
X152446600Y-135141226D03*
X152446600Y-133491226D03*
%TD*%
D36*
%TO.C,C42*%
X126505000Y-28322000D03*
X124955000Y-28322000D03*
%TD*%
D37*
%TO.C,C25*%
X154760449Y-127979468D03*
X156310449Y-127979468D03*
%TD*%
D14*
%TO.C,R8*%
X150152330Y-109603374D03*
X156077330Y-109603374D03*
%TD*%
D36*
%TO.C,C48*%
X115964000Y-50800000D03*
X114414000Y-50800000D03*
%TD*%
D37*
%TO.C,C3*%
X154645050Y-124884019D03*
X156195050Y-124884019D03*
%TD*%
D12*
%TO.C,R10*%
X148740732Y-103957748D03*
X150390732Y-103957748D03*
%TD*%
D37*
%TO.C,C23*%
X144754000Y-45847000D03*
X146304000Y-45847000D03*
%TD*%
D13*
%TO.C,R26*%
X157734000Y-72453000D03*
X157734000Y-70803000D03*
%TD*%
D38*
%TO.C,C40*%
X140056000Y-147955000D03*
X143006000Y-147955000D03*
%TD*%
D36*
%TO.C,C43*%
X134079922Y-34569935D03*
X132529922Y-34569935D03*
%TD*%
D32*
%TO.C,C4*%
X163129762Y-124824783D03*
X163129762Y-126374783D03*
%TD*%
D39*
%TO.C,R6*%
X159648881Y-104283923D03*
X159648881Y-102458923D03*
%TD*%
D27*
%TO.C,R20*%
X155977129Y-77784556D03*
X155977129Y-79609556D03*
%TD*%
D40*
%TO.C,D4*%
X143979447Y-73068233D03*
X147479447Y-73068233D03*
%TD*%
D38*
%TO.C,C34*%
X109982000Y-140208000D03*
X112932000Y-140208000D03*
%TD*%
D10*
%TO.C,R15*%
X145065311Y-79467582D03*
X143240311Y-79467582D03*
%TD*%
D32*
%TO.C,C11*%
X153967952Y-51709949D03*
X153967952Y-53259949D03*
%TD*%
D37*
%TO.C,C16*%
X151094835Y-41061292D03*
X152644835Y-41061292D03*
%TD*%
D41*
%TO.C,C52*%
X108712000Y-100976000D03*
X108712000Y-104051000D03*
%TD*%
D42*
%TO.C,U3*%
X157287599Y-105403256D03*
X157287599Y-104133256D03*
X157287599Y-102863256D03*
X157287599Y-101593256D03*
X152359999Y-101593256D03*
X152359999Y-102863256D03*
X152359999Y-104133256D03*
X152359999Y-105403256D03*
%TD*%
D13*
%TO.C,R37*%
X112903000Y-111416000D03*
X112903000Y-109766000D03*
%TD*%
D43*
%TO.C,U10*%
X71512302Y-35591149D03*
X71512302Y-34941149D03*
X71512302Y-34291149D03*
X69562302Y-34291149D03*
X69562302Y-35591149D03*
%TD*%
D44*
%TO.C,R39*%
X71120000Y-31750000D03*
X69470000Y-31750000D03*
%TD*%
D15*
%TO.C,C45*%
X127634000Y-52595000D03*
X127634000Y-51045000D03*
%TD*%
D45*
%TO.C,S2*%
X155182000Y-49149000D03*
X155182000Y-47879000D03*
X155182000Y-46609000D03*
X155182000Y-45339000D03*
X150232000Y-45339000D03*
X150232000Y-46609000D03*
X150232000Y-47879000D03*
X150232000Y-49149000D03*
%TD*%
D46*
%TO.C,U13*%
X128787000Y-37447000D03*
D47*
X122062000Y-37682000D03*
X122062000Y-32132000D03*
X117212000Y-37682000D03*
X117212000Y-32132000D03*
D46*
X128787000Y-32367000D03*
%TD*%
D48*
%TO.C,U6*%
X147176131Y-78205476D03*
X147176131Y-79475476D03*
X147176131Y-80745476D03*
X147176131Y-82015476D03*
X152103731Y-82015476D03*
X152103731Y-80745476D03*
X152103731Y-79475476D03*
X152103731Y-78205476D03*
%TD*%
D37*
%TO.C,C6*%
X148794402Y-105551513D03*
X150344402Y-105551513D03*
%TD*%
%TO.C,C14*%
X143602184Y-82011665D03*
X145152184Y-82011665D03*
%TD*%
D36*
%TO.C,C37*%
X79813108Y-38386246D03*
X78263108Y-38386246D03*
%TD*%
D15*
%TO.C,C26*%
X69569042Y-38771362D03*
X69569042Y-37221362D03*
%TD*%
%TO.C,C9*%
X135636000Y-55893000D03*
X135636000Y-54343000D03*
%TD*%
D12*
%TO.C,R28*%
X157245902Y-133493984D03*
X158895902Y-133493984D03*
%TD*%
D13*
%TO.C,R25*%
X157747048Y-47035511D03*
X157747048Y-45385511D03*
%TD*%
D45*
%TO.C,S1*%
X155122372Y-74335190D03*
X155122372Y-73065190D03*
X155122372Y-71795190D03*
X155122372Y-70525190D03*
X150172372Y-70525190D03*
X150172372Y-71795190D03*
X150172372Y-73065190D03*
X150172372Y-74335190D03*
%TD*%
D34*
%TO.C,C32*%
X106045000Y-132999016D03*
X112545000Y-132999016D03*
%TD*%
D32*
%TO.C,C20*%
X157824633Y-78638388D03*
X157824633Y-80188388D03*
%TD*%
D15*
%TO.C,C29*%
X157795599Y-116351256D03*
X157795599Y-114801256D03*
%TD*%
D49*
%TO.C,U4*%
X147943550Y-117566361D03*
X147943550Y-116296361D03*
X147943550Y-115026361D03*
X147943550Y-113756361D03*
X142873550Y-113756361D03*
X142873550Y-115026361D03*
X142873550Y-116296361D03*
X142873550Y-117566361D03*
%TD*%
D38*
%TO.C,C33*%
X101190000Y-140208000D03*
X104140000Y-140208000D03*
%TD*%
D15*
%TO.C,C7*%
X148143599Y-112109568D03*
X148143599Y-110559568D03*
%TD*%
D10*
%TO.C,R18*%
X148660281Y-76300476D03*
X146835281Y-76300476D03*
%TD*%
D44*
%TO.C,R23*%
X168910000Y-76200000D03*
X167260000Y-76200000D03*
%TD*%
D11*
%TO.C,C49*%
X132732890Y-127068699D03*
X132732890Y-124118699D03*
%TD*%
D40*
%TO.C,D5*%
X143947000Y-47879000D03*
X147447000Y-47879000D03*
%TD*%
D36*
%TO.C,C17*%
X168860328Y-49229217D03*
X167310328Y-49229217D03*
%TD*%
D37*
%TO.C,C12*%
X143116000Y-56642000D03*
X144666000Y-56642000D03*
%TD*%
D16*
%TO.C,U7*%
X159713527Y-73477822D03*
X159713527Y-74747822D03*
X159713527Y-76017822D03*
X159713527Y-77287822D03*
X165301527Y-77287822D03*
X165301527Y-76017822D03*
X165301527Y-74747822D03*
X165301527Y-73477822D03*
D17*
X162507527Y-75382822D03*
%TD*%
D44*
%TO.C,R2*%
X146619599Y-112062434D03*
X144969599Y-112062434D03*
%TD*%
D19*
%TO.C,L3*%
X154142704Y-133486256D03*
X155717704Y-133486256D03*
%TD*%
D36*
%TO.C,C44*%
X133744000Y-32356627D03*
X132194000Y-32356627D03*
%TD*%
D12*
%TO.C,R33*%
X128396562Y-147246355D03*
X130046562Y-147246355D03*
%TD*%
D50*
%TO.C,D1*%
X153774566Y-68324454D03*
X150274566Y-68324454D03*
%TD*%
%TO.C,D2*%
X153792449Y-43125585D03*
X150292449Y-43125585D03*
%TD*%
D36*
%TO.C,C22*%
X146361062Y-71085773D03*
X144811062Y-71085773D03*
%TD*%
%TO.C,C15*%
X152558566Y-66292454D03*
X151008566Y-66292454D03*
%TD*%
D35*
%TO.C,R5*%
X158800567Y-130076091D03*
X160625567Y-130076091D03*
%TD*%
D37*
%TO.C,C5*%
X148849999Y-101593256D03*
X150399999Y-101593256D03*
%TD*%
D14*
%TO.C,R11*%
X150141803Y-121777544D03*
X156066803Y-121777544D03*
%TD*%
D12*
%TO.C,R3*%
X154120871Y-135118164D03*
X155770871Y-135118164D03*
%TD*%
D13*
%TO.C,R31*%
X84455000Y-52705000D03*
X84455000Y-51055000D03*
%TD*%
D32*
%TO.C,C8*%
X140834358Y-113785258D03*
X140834358Y-115335258D03*
%TD*%
D37*
%TO.C,C24*%
X158958633Y-131909895D03*
X160508633Y-131909895D03*
%TD*%
D29*
%TO.C,R40*%
X120015000Y-143510000D03*
X122940000Y-143510000D03*
%TD*%
D51*
%TO.C,U19*%
X81915000Y-49095000D03*
X83185000Y-49095000D03*
X84455000Y-49095000D03*
X84455000Y-38355000D03*
X83185000Y-38355000D03*
X81915000Y-38355000D03*
%TD*%
D28*
%TO.C,L1*%
X86995000Y-130175000D03*
X86995000Y-138275000D03*
%TD*%
D14*
%TO.C,R12*%
X150141803Y-117713544D03*
X156066803Y-117713544D03*
%TD*%
D12*
%TO.C,R27*%
X155230659Y-131873105D03*
X156880659Y-131873105D03*
%TD*%
D36*
%TO.C,C18*%
X168859705Y-74659132D03*
X167309705Y-74659132D03*
%TD*%
D44*
%TO.C,R22*%
X168923048Y-50782511D03*
X167273048Y-50782511D03*
%TD*%
D10*
%TO.C,R16*%
X145077979Y-77390002D03*
X143252979Y-77390002D03*
%TD*%
D48*
%TO.C,U5*%
X146882919Y-52832000D03*
X146882919Y-54102000D03*
X146882919Y-55372000D03*
X146882919Y-56642000D03*
X151810519Y-56642000D03*
X151810519Y-55372000D03*
X151810519Y-54102000D03*
X151810519Y-52832000D03*
%TD*%
D36*
%TO.C,C46*%
X106433000Y-62357000D03*
X104883000Y-62357000D03*
%TD*%
D15*
%TO.C,C47*%
X122554000Y-52595000D03*
X122554000Y-51045000D03*
%TD*%
D52*
%TO.C,C35*%
X81852500Y-142113000D03*
X75627500Y-142113000D03*
%TD*%
D32*
%TO.C,C13*%
X154137814Y-76976111D03*
X154137814Y-78526111D03*
%TD*%
D46*
%TO.C,U18*%
X108730000Y-113430000D03*
X108730000Y-110890000D03*
D47*
X102005000Y-113665000D03*
X102005000Y-108115000D03*
X97155000Y-113665000D03*
X97155000Y-108115000D03*
D46*
X108730000Y-108350000D03*
%TD*%
D53*
%TO.C,U16*%
X127615000Y-56006000D03*
X125075000Y-56006000D03*
D54*
X127850000Y-62731000D03*
X122300000Y-62731000D03*
X127850000Y-67581000D03*
X122300000Y-67581000D03*
D53*
X122535000Y-56006000D03*
%TD*%
D52*
%TO.C,C36*%
X160020000Y-142240000D03*
X153795000Y-142240000D03*
%TD*%
D55*
%TO.C,U17*%
X133350000Y-129245000D03*
X132080000Y-129245000D03*
X130810000Y-129245000D03*
X129540000Y-129245000D03*
X128270000Y-129245000D03*
D56*
X130810000Y-135255000D03*
%TD*%
D33*
%TO.C,U2*%
X157786303Y-127975144D03*
X159056303Y-127975144D03*
X160326303Y-127975144D03*
X161596303Y-127975144D03*
X161596303Y-123047544D03*
X160326303Y-123047544D03*
X159056303Y-123047544D03*
X157786303Y-123047544D03*
%TD*%
D46*
%TO.C,U15*%
X109765000Y-58409000D03*
D47*
X103040000Y-58644000D03*
X103040000Y-53094000D03*
X98190000Y-58644000D03*
X98190000Y-53094000D03*
D46*
X109765000Y-53329000D03*
%TD*%
D57*
%TO.C,C50*%
X116472500Y-53329000D03*
X113397500Y-53329000D03*
%TD*%
D36*
%TO.C,C41*%
X134092922Y-29997935D03*
X132542922Y-29997935D03*
%TD*%
D32*
%TO.C,C19*%
X157822898Y-53282276D03*
X157822898Y-54832276D03*
%TD*%
D58*
%TO.C,C39*%
X122071486Y-146788354D03*
X119121486Y-146788354D03*
%TD*%
M02*
