%TF.GenerationSoftware,KiCad,Pcbnew,7.0.1*%
%TF.CreationDate,2023-05-04T18:56:47-04:00*%
%TF.ProjectId,Combined (new),436f6d62-696e-4656-9420-286e6577292e,rev?*%
%TF.SameCoordinates,Original*%
%TF.FileFunction,Copper,L2,Inr*%
%TF.FilePolarity,Positive*%
%FSLAX46Y46*%
G04 Gerber Fmt 4.6, Leading zero omitted, Abs format (unit mm)*
G04 Created by KiCad (PCBNEW 7.0.1) date 2023-05-04 18:56:47*
%MOMM*%
%LPD*%
G01*
G04 APERTURE LIST*
G04 Aperture macros list*
%AMRoundRect*
0 Rectangle with rounded corners*
0 $1 Rounding radius*
0 $2 $3 $4 $5 $6 $7 $8 $9 X,Y pos of 4 corners*
0 Add a 4 corners polygon primitive as box body*
4,1,4,$2,$3,$4,$5,$6,$7,$8,$9,$2,$3,0*
0 Add four circle primitives for the rounded corners*
1,1,$1+$1,$2,$3*
1,1,$1+$1,$4,$5*
1,1,$1+$1,$6,$7*
1,1,$1+$1,$8,$9*
0 Add four rect primitives between the rounded corners*
20,1,$1+$1,$2,$3,$4,$5,0*
20,1,$1+$1,$4,$5,$6,$7,0*
20,1,$1+$1,$6,$7,$8,$9,0*
20,1,$1+$1,$8,$9,$2,$3,0*%
G04 Aperture macros list end*
%TA.AperFunction,ComponentPad*%
%ADD10C,0.355600*%
%TD*%
%TA.AperFunction,ComponentPad*%
%ADD11R,1.905000X2.000000*%
%TD*%
%TA.AperFunction,ComponentPad*%
%ADD12O,1.905000X2.000000*%
%TD*%
%TA.AperFunction,ComponentPad*%
%ADD13RoundRect,0.250000X-0.845000X0.620000X-0.845000X-0.620000X0.845000X-0.620000X0.845000X0.620000X0*%
%TD*%
%TA.AperFunction,ComponentPad*%
%ADD14O,2.190000X1.740000*%
%TD*%
%TA.AperFunction,ComponentPad*%
%ADD15O,2.500000X4.500000*%
%TD*%
%TA.AperFunction,ComponentPad*%
%ADD16R,1.800000X1.800000*%
%TD*%
%TA.AperFunction,ComponentPad*%
%ADD17C,1.800000*%
%TD*%
%TA.AperFunction,ComponentPad*%
%ADD18C,1.440000*%
%TD*%
%TA.AperFunction,ComponentPad*%
%ADD19O,2.500000X1.600000*%
%TD*%
%TA.AperFunction,ComponentPad*%
%ADD20O,7.000000X3.500000*%
%TD*%
%TA.AperFunction,ViaPad*%
%ADD21C,0.635000*%
%TD*%
%TA.AperFunction,ViaPad*%
%ADD22C,0.889000*%
%TD*%
%TA.AperFunction,ViaPad*%
%ADD23C,0.800000*%
%TD*%
%TA.AperFunction,ViaPad*%
%ADD24C,1.651000*%
%TD*%
%TA.AperFunction,ViaPad*%
%ADD25C,1.905000*%
%TD*%
G04 APERTURE END LIST*
D10*
%TO.N,-15V*%
%TO.C,U8*%
X161636824Y-48491039D03*
X161636824Y-50015039D03*
X161636824Y-51539039D03*
X162081324Y-49253039D03*
X162081324Y-50777039D03*
X162525824Y-48491039D03*
X162525824Y-50015039D03*
X162525824Y-51539039D03*
X162970324Y-49253039D03*
X162970324Y-50777039D03*
X163414824Y-48491039D03*
X163414824Y-50015039D03*
X163414824Y-51539039D03*
%TD*%
D11*
%TO.N,Net-(U12-ADJ)*%
%TO.C,U12*%
X152400000Y-150640058D03*
D12*
%TO.N,Net-(U12-VI)*%
X149860000Y-150640058D03*
%TO.N,V-*%
X147320000Y-150640058D03*
%TD*%
D13*
%TO.N,GND*%
%TO.C,J7*%
X173228000Y-48260000D03*
D14*
%TO.N,Net-(J7-Pin_2)*%
X173228000Y-50800000D03*
%TD*%
D15*
%TO.N,+24V*%
%TO.C,P1*%
X102164000Y-147828000D03*
%TO.N,GND*%
X105664000Y-147828000D03*
%TO.N,-24V*%
X109164000Y-147828000D03*
%TD*%
D16*
%TO.N,Net-(D6-K)*%
%TO.C,D6*%
X67310000Y-31750000D03*
D17*
%TO.N,Net-(D6-A)*%
X67310000Y-34290000D03*
%TD*%
D18*
%TO.N,GND*%
%TO.C,RV1*%
X139197249Y-51558848D03*
%TO.N,Net-(R13-Pad2)*%
X139197249Y-54098848D03*
%TO.N,-5V*%
X139197249Y-56638848D03*
%TD*%
D13*
%TO.N,GND*%
%TO.C,J8*%
X173228000Y-73660000D03*
D14*
%TO.N,Net-(J8-Pin_2)*%
X173228000Y-76200000D03*
%TD*%
D19*
%TO.N,Net-(J1-In)*%
%TO.C,J1*%
X76200000Y-101600000D03*
%TO.N,GND*%
X76200000Y-104140000D03*
D20*
%TO.N,N/C*%
X71120000Y-106680000D03*
X71120000Y-96520000D03*
%TD*%
D19*
%TO.N,Net-(J2-In)*%
%TO.C,J2*%
X76200000Y-127000000D03*
%TO.N,Net-(J2-Ext)*%
X76200000Y-129540000D03*
D20*
%TO.N,N/C*%
X71120000Y-132080000D03*
X71120000Y-121920000D03*
%TD*%
D10*
%TO.N,V-*%
%TO.C,U7*%
X161618527Y-73858822D03*
X161618527Y-75382822D03*
X161618527Y-76906822D03*
X162063027Y-74620822D03*
X162063027Y-76144822D03*
X162507527Y-73858822D03*
X162507527Y-75382822D03*
X162507527Y-76906822D03*
X162952027Y-74620822D03*
X162952027Y-76144822D03*
X163396527Y-73858822D03*
X163396527Y-75382822D03*
X163396527Y-76906822D03*
%TD*%
D11*
%TO.N,Net-(U11-ADJ)*%
%TO.C,U11*%
X127000000Y-150561586D03*
D12*
%TO.N,V+*%
X124460000Y-150561586D03*
%TO.N,Net-(U11-VI)*%
X121920000Y-150561586D03*
%TD*%
D18*
%TO.N,GND*%
%TO.C,RV2*%
X139467129Y-81999056D03*
%TO.N,Net-(R15-Pad2)*%
X139467129Y-79459056D03*
%TO.N,+5V*%
X139467129Y-76919056D03*
%TD*%
D19*
%TO.N,Net-(J6-In)*%
%TO.C,J6*%
X76200000Y-50800000D03*
%TO.N,Net-(J6-Ext)*%
X76200000Y-53340000D03*
D20*
%TO.N,N/C*%
X71120000Y-55880000D03*
X71120000Y-45720000D03*
%TD*%
D13*
%TO.N,POWER_GND_REF*%
%TO.C,J9*%
X173228000Y-114300000D03*
D14*
%TO.N,U2*%
X173228000Y-116840000D03*
%TD*%
D16*
%TO.N,Net-(D3-K)*%
%TO.C,D3*%
X67310000Y-142240000D03*
D17*
%TO.N,+5V*%
X67310000Y-144780000D03*
%TD*%
D19*
%TO.N,Net-(J4-In)*%
%TO.C,J4*%
X76200000Y-76200000D03*
%TO.N,GND*%
X76200000Y-78740000D03*
D20*
%TO.N,N/C*%
X71120000Y-81280000D03*
X71120000Y-71120000D03*
%TD*%
D21*
%TO.N,GND*%
X146862800Y-133299200D03*
X144678400Y-135077200D03*
X141122400Y-140766800D03*
D22*
%TO.N,+15V*%
X150876000Y-79502000D03*
X167386000Y-73279000D03*
X154178000Y-88138000D03*
D23*
X129159000Y-54610000D03*
X129159000Y-57404000D03*
X157982938Y-125284119D03*
X142995702Y-106502801D03*
D22*
X142667004Y-103922803D03*
X149860000Y-87503000D03*
D23*
X129159000Y-56007000D03*
D21*
%TO.N,GND*%
X151055911Y-102890211D03*
D23*
X122936000Y-67056000D03*
D21*
X81915000Y-110490000D03*
X116840000Y-50800000D03*
X135639515Y-53399489D03*
D22*
X143718922Y-33172935D03*
X121920000Y-71628000D03*
D21*
X153840811Y-46610577D03*
X167640000Y-127508000D03*
D22*
X128016000Y-71628000D03*
D21*
X77470000Y-133985000D03*
X148155575Y-109675244D03*
X85090000Y-136093200D03*
X142277096Y-56650718D03*
X120015000Y-132715000D03*
X81280000Y-119380000D03*
D22*
X142448922Y-32537935D03*
D21*
X126111000Y-37465000D03*
X137109200Y-140716000D03*
X137354061Y-102901414D03*
X157811937Y-110882289D03*
X160552198Y-117820051D03*
X169723832Y-49236282D03*
X84454402Y-36967784D03*
D23*
X120650000Y-63246000D03*
D21*
X78105000Y-125095000D03*
X147522343Y-140457499D03*
X131653922Y-29997935D03*
D23*
X129540000Y-61722000D03*
D21*
X78740000Y-99060000D03*
X151071886Y-138957959D03*
D23*
X122682000Y-61468000D03*
D21*
X117602000Y-53340000D03*
X77381114Y-38388970D03*
X88265000Y-121285000D03*
D22*
X142448922Y-34442935D03*
D21*
X127381000Y-28321000D03*
D23*
X128524000Y-69088000D03*
D22*
X144988922Y-33807935D03*
X119380000Y-79756000D03*
D21*
X81280000Y-105410000D03*
X85852000Y-111252000D03*
D23*
X129540000Y-63754000D03*
D24*
X73676179Y-142129016D03*
D21*
X125291800Y-142258404D03*
D24*
X108458000Y-140154326D03*
D21*
X80010000Y-74295000D03*
X117583786Y-140126400D03*
D24*
X105664000Y-140154326D03*
D21*
X76200000Y-132080000D03*
X69568574Y-39676510D03*
D23*
X120650000Y-61468000D03*
D22*
X141178922Y-34442935D03*
X144988922Y-31267935D03*
D21*
X148269173Y-55369716D03*
X110490000Y-136093200D03*
D22*
X139908922Y-31902935D03*
D21*
X112395000Y-58420000D03*
X131013200Y-140716000D03*
D22*
X133604000Y-122936000D03*
D21*
X135331200Y-137464800D03*
X107315000Y-62357000D03*
X98425000Y-132715000D03*
X118364000Y-123444000D03*
X88900000Y-132715000D03*
X145538770Y-106172043D03*
X163140719Y-127231458D03*
X80645000Y-116205000D03*
D23*
X128016000Y-61468000D03*
D21*
X167640000Y-121412000D03*
X83185000Y-132715000D03*
D22*
X127000000Y-79756000D03*
D21*
X155211531Y-92643515D03*
X101600000Y-136144000D03*
D22*
X143718922Y-30632935D03*
D21*
X157833805Y-81084503D03*
D23*
X125222000Y-67310000D03*
D22*
X124460000Y-82296000D03*
D23*
X120650000Y-67056000D03*
X126492000Y-69088000D03*
D22*
X144988922Y-29997935D03*
D21*
X101600000Y-119380000D03*
X167640000Y-133604000D03*
D23*
X125730000Y-63500000D03*
D21*
X148599431Y-80747683D03*
X131653922Y-34569935D03*
X80645000Y-102870000D03*
D23*
X122682000Y-63500000D03*
D22*
X128016000Y-122936000D03*
D21*
X73660000Y-127635000D03*
X161425163Y-94616097D03*
X123825000Y-135890000D03*
X146794145Y-100592165D03*
X127635000Y-50165000D03*
D23*
X120650000Y-69088000D03*
D21*
X145409742Y-55392753D03*
D22*
X132588000Y-50292000D03*
D21*
X84455000Y-123190000D03*
X114935000Y-119380000D03*
X131445000Y-37465000D03*
X107061000Y-58420000D03*
X150164377Y-41343253D03*
X80010000Y-90170000D03*
X140864945Y-35966935D03*
D22*
X134112000Y-64008000D03*
D21*
X72096620Y-142240064D03*
D23*
X125984000Y-66040000D03*
D21*
X82550000Y-136525000D03*
X80010000Y-95885000D03*
D22*
X132080000Y-54356000D03*
X139908922Y-33807935D03*
D21*
X144226922Y-35966935D03*
X156517568Y-135080830D03*
X122555000Y-132715000D03*
X134366000Y-32385000D03*
D22*
X141178922Y-31267935D03*
D21*
X142736481Y-82010986D03*
D22*
X130048000Y-82296000D03*
D21*
X108712000Y-99822000D03*
X167640000Y-109728000D03*
X84449347Y-39624000D03*
X130175000Y-137160000D03*
X153830010Y-124876038D03*
X80010000Y-84455000D03*
X106019600Y-136144000D03*
X89535000Y-115570000D03*
D22*
X142448922Y-31267935D03*
X125476000Y-71628000D03*
D21*
X132080000Y-132715000D03*
X135255000Y-132715000D03*
X142675532Y-100597953D03*
D23*
X120650000Y-65278000D03*
D22*
X144988922Y-32537935D03*
D21*
X143926731Y-71066918D03*
X128905000Y-113030000D03*
X111125000Y-124460000D03*
X91440000Y-132715000D03*
D22*
X141178922Y-32537935D03*
D21*
X133604000Y-106172000D03*
X126365000Y-136525000D03*
X140716000Y-137160000D03*
D22*
X116332000Y-79756000D03*
D21*
X157819007Y-55746584D03*
X84455000Y-100965000D03*
X168656000Y-117856000D03*
X134162800Y-140766800D03*
X121920000Y-118110000D03*
X153622816Y-102880105D03*
D22*
X131064000Y-71628000D03*
D21*
X151993600Y-49123600D03*
D24*
X162052000Y-142240000D03*
D21*
X81915000Y-98425000D03*
X123190000Y-111760000D03*
X97790000Y-136144000D03*
X150188370Y-66297411D03*
X71897575Y-31752096D03*
D23*
X125222000Y-61214000D03*
D21*
X80010000Y-93345000D03*
X76835000Y-89535000D03*
X145767247Y-80745421D03*
X80645000Y-130175000D03*
X135890000Y-80264000D03*
D23*
X123444000Y-65278000D03*
D21*
X148065187Y-101568008D03*
X80010000Y-76835000D03*
X144226922Y-28600935D03*
D22*
X128939168Y-59656244D03*
D21*
X145538770Y-103709754D03*
X154155979Y-76067877D03*
X73025000Y-75565000D03*
X76200000Y-83185000D03*
D23*
X122428000Y-69088000D03*
D21*
X156571504Y-46611814D03*
X140864945Y-28641225D03*
X89001600Y-136144000D03*
X119814190Y-141668003D03*
D22*
X130048000Y-79756000D03*
D21*
X101600000Y-124460000D03*
D22*
X133096000Y-70104000D03*
X143718922Y-31902935D03*
X124460000Y-79756000D03*
D21*
X79375000Y-135890000D03*
X167740448Y-103501913D03*
D23*
X129540000Y-67818000D03*
D22*
X136144000Y-66040000D03*
X119380000Y-82296000D03*
D21*
X140828404Y-113010136D03*
D22*
X129540000Y-122936000D03*
D23*
X124460000Y-69088000D03*
D21*
X116840000Y-132715000D03*
X92710000Y-124460000D03*
D22*
X139908922Y-30632935D03*
D21*
X148826329Y-74335314D03*
X84512682Y-104767018D03*
D22*
X142448922Y-29997935D03*
X121412000Y-79756000D03*
D21*
X122555000Y-50165000D03*
X92075000Y-136144000D03*
X80010000Y-80645000D03*
X153674639Y-71788231D03*
X125095000Y-53340000D03*
D23*
X129540000Y-65532000D03*
D21*
X125095000Y-58674000D03*
X107950000Y-119380000D03*
X148300585Y-135503323D03*
X167741889Y-97313903D03*
X148027762Y-105540972D03*
D22*
X141178922Y-29997935D03*
D21*
X153967344Y-50834856D03*
X127000000Y-132715000D03*
X145288000Y-138582400D03*
X94615000Y-119380000D03*
D22*
X127000000Y-82296000D03*
D23*
X128016000Y-66802000D03*
D21*
X152908000Y-137160000D03*
D22*
X131826000Y-122936000D03*
D21*
X137292146Y-97380801D03*
D23*
X127762000Y-64516000D03*
D21*
X118745000Y-116840000D03*
X169672000Y-74676000D03*
X80010000Y-128270000D03*
X76835000Y-73660000D03*
D22*
X131572000Y-68072000D03*
X116332000Y-82296000D03*
X121412000Y-82296000D03*
D21*
X143881837Y-45847894D03*
X85090000Y-118110000D03*
X153960059Y-127979467D03*
X151518744Y-74329555D03*
X78740000Y-73660000D03*
X77470000Y-95885000D03*
D23*
%TO.N,-15V*%
X146801759Y-106241834D03*
D22*
X88392000Y-84328000D03*
X96520000Y-59055000D03*
X67564000Y-59436000D03*
X108204000Y-89916000D03*
X105156000Y-78740000D03*
X102616000Y-69088000D03*
X102870000Y-53340000D03*
X97028000Y-70612000D03*
X101600000Y-51435000D03*
X99060000Y-93472000D03*
X97155000Y-55245000D03*
X105156000Y-73660000D03*
X108204000Y-86868000D03*
X111760000Y-93472000D03*
X97790000Y-60325000D03*
X97028000Y-62484000D03*
X99060000Y-51435000D03*
X92964000Y-58928000D03*
X89916000Y-53848000D03*
X99568000Y-69088000D03*
X73660000Y-64516000D03*
X104140000Y-55245000D03*
X99060000Y-81788000D03*
X90424000Y-62484000D03*
X103505000Y-57150000D03*
X90424000Y-67564000D03*
D23*
X130165324Y-31323190D03*
D22*
X88392000Y-90932000D03*
X99568000Y-64008000D03*
X92964000Y-53848000D03*
X105156000Y-84328000D03*
X87376000Y-65024000D03*
X101600000Y-55245000D03*
X76708000Y-59436000D03*
X108204000Y-81788000D03*
X87376000Y-74168000D03*
X79756000Y-64516000D03*
X102616000Y-66548000D03*
X105156000Y-93472000D03*
X90424000Y-65024000D03*
X97028000Y-67564000D03*
X70612000Y-64516000D03*
D23*
X161596302Y-121547000D03*
D22*
X89916000Y-58928000D03*
X87376000Y-70612000D03*
X93472000Y-74168000D03*
X111760000Y-76200000D03*
X99060000Y-59055000D03*
X87376000Y-67564000D03*
X157734000Y-44196000D03*
X88392000Y-87376000D03*
X108204000Y-84328000D03*
X105156000Y-86868000D03*
X105156000Y-89916000D03*
X93472000Y-62484000D03*
X102108000Y-93472000D03*
X76708000Y-61976000D03*
X145542000Y-56642000D03*
X111760000Y-89916000D03*
X96520000Y-89916000D03*
X88392000Y-81788000D03*
X102108000Y-76708000D03*
X93472000Y-70612000D03*
X96520000Y-93472000D03*
X102108000Y-79248000D03*
X96520000Y-84328000D03*
X82804000Y-64516000D03*
X102616000Y-64008000D03*
X108204000Y-93472000D03*
X70612000Y-59436000D03*
X108204000Y-73660000D03*
X98425000Y-53340000D03*
X70612000Y-61976000D03*
X99695000Y-55245000D03*
X97028000Y-74168000D03*
X102108000Y-81788000D03*
X90424000Y-70612000D03*
X73660000Y-59436000D03*
X100330000Y-53340000D03*
X105156000Y-81788000D03*
X99568000Y-66548000D03*
X79756000Y-61976000D03*
X89916000Y-56388000D03*
X111760000Y-81788000D03*
X76708000Y-64516000D03*
X100965000Y-60325000D03*
X134239000Y-40005000D03*
X86868000Y-58928000D03*
D23*
X128782844Y-31333990D03*
D22*
X105156000Y-76200000D03*
X96520000Y-86868000D03*
X108204000Y-70612000D03*
X102108000Y-89916000D03*
D23*
X152364946Y-100855373D03*
D22*
X102108000Y-86868000D03*
X111760000Y-86868000D03*
X82804000Y-61976000D03*
D23*
X127238355Y-31366392D03*
D22*
X93472000Y-67564000D03*
X86868000Y-53848000D03*
X99060000Y-89916000D03*
X99060000Y-86868000D03*
X97155000Y-51435000D03*
X108204000Y-76200000D03*
X73660000Y-61976000D03*
X88392000Y-79248000D03*
X97790000Y-57150000D03*
X67564000Y-61976000D03*
X82804000Y-59436000D03*
X99060000Y-84328000D03*
X111760000Y-68072000D03*
X108204000Y-78740000D03*
X79756000Y-59436000D03*
X100965000Y-57150000D03*
X157734000Y-51943000D03*
X67564000Y-64516000D03*
X93472000Y-65024000D03*
X96520000Y-81788000D03*
X92964000Y-56388000D03*
X111760000Y-78740000D03*
X111760000Y-73660000D03*
X90424000Y-74168000D03*
X104140000Y-51435000D03*
X87376000Y-62484000D03*
X102235000Y-59055000D03*
X111760000Y-70612000D03*
X93472000Y-91948000D03*
X93472000Y-88392000D03*
X102108000Y-84328000D03*
X97028000Y-65024000D03*
X86868000Y-56388000D03*
X111760000Y-84328000D03*
X93472000Y-85344000D03*
X104140000Y-60325000D03*
D21*
%TO.N,-2V5*%
X134620000Y-109220000D03*
X148126800Y-113060317D03*
%TO.N,+2V5*%
X129540000Y-130810000D03*
X128270000Y-130659163D03*
X139878959Y-115338405D03*
D23*
%TO.N,-5V*%
X103632000Y-112268000D03*
X103632000Y-106172000D03*
X95504000Y-114808000D03*
X99568000Y-106172000D03*
X99568000Y-112776000D03*
X97028000Y-111760000D03*
X101092000Y-114808000D03*
X111252000Y-51816000D03*
X99568000Y-110236000D03*
X97028000Y-108712000D03*
X101600000Y-110744000D03*
X101600000Y-112776000D03*
X98044000Y-114808000D03*
X99568000Y-107696000D03*
X103632000Y-114808000D03*
X108204000Y-51816000D03*
X95504000Y-106172000D03*
X101600000Y-106172000D03*
X101600000Y-107696000D03*
X109728000Y-51816000D03*
X103632000Y-108204000D03*
X95504000Y-110236000D03*
X97536000Y-106172000D03*
X103632000Y-110236000D03*
D22*
%TO.N,V+*%
X147574000Y-43434000D03*
D25*
X136153500Y-28457500D03*
D22*
X166624000Y-49276000D03*
X153475627Y-54102000D03*
D21*
X149225000Y-68326000D03*
D22*
%TO.N,V-*%
X117475000Y-33655000D03*
X115570000Y-33655000D03*
X118745000Y-35560000D03*
X121285000Y-35560000D03*
X123825000Y-35560000D03*
X123190000Y-30480000D03*
X121285000Y-31750000D03*
X122555000Y-37465000D03*
X120015000Y-33655000D03*
X116840000Y-31750000D03*
X118745000Y-39370000D03*
X118110000Y-30480000D03*
X123190000Y-31750000D03*
X121920000Y-33655000D03*
X116205000Y-39370000D03*
X116840000Y-35560000D03*
D23*
X142748000Y-47752000D03*
D22*
X118745000Y-31750000D03*
X115570000Y-30480000D03*
X117475000Y-37465000D03*
D23*
X146050000Y-82042000D03*
D22*
X120650000Y-30480000D03*
D21*
X142890239Y-73079467D03*
D22*
X120015000Y-37465000D03*
X121285000Y-39370000D03*
D21*
%TO.N,Net-(J1-In)*%
X144270733Y-100531174D03*
D23*
%TO.N,Net-(J2-In)*%
X150683599Y-133942756D03*
%TO.N,Net-(J2-Ext)*%
X150745586Y-135058437D03*
D21*
%TO.N,Net-(J4-In)*%
X147867684Y-103956128D03*
D22*
%TO.N,Net-(J5-Pin_3)*%
X142326661Y-77386257D03*
X141224000Y-97028000D03*
X141992606Y-51924665D03*
%TO.N,Digital_control*%
X152163006Y-46769794D03*
X83312000Y-40386000D03*
D23*
X140208000Y-46736000D03*
D22*
X151638000Y-71882000D03*
D23*
%TO.N,Net-(U12-ADJ)*%
X147317096Y-145787623D03*
D25*
%TO.N,Net-(U11-VI)*%
X93980000Y-140970000D03*
%TD*%
%TA.AperFunction,Conductor*%
%TO.N,-15V*%
G36*
X170118000Y-41147124D02*
G01*
X170163387Y-41192511D01*
X170180000Y-41254511D01*
X170180000Y-46866000D01*
X170163387Y-46928000D01*
X170118000Y-46973387D01*
X170056000Y-46990000D01*
X164338000Y-46990000D01*
X164338000Y-52832000D01*
X170056000Y-52832000D01*
X170118000Y-52848613D01*
X170163387Y-52894000D01*
X170180000Y-52956000D01*
X170180000Y-61851810D01*
X170163355Y-61913865D01*
X170117890Y-61959260D01*
X170055810Y-61975809D01*
X158886856Y-61958700D01*
X158824938Y-61942025D01*
X158779629Y-61896646D01*
X158763048Y-61834701D01*
X158763048Y-53392718D01*
X158779143Y-53331623D01*
X158823251Y-53286389D01*
X161303048Y-51798512D01*
X161303048Y-48242511D01*
X161303047Y-48242510D01*
X159649849Y-47250592D01*
X158823250Y-46754632D01*
X158779143Y-46709399D01*
X158763048Y-46648304D01*
X158763048Y-41254511D01*
X158779661Y-41192511D01*
X158825048Y-41147124D01*
X158887048Y-41130511D01*
X170056000Y-41130511D01*
X170118000Y-41147124D01*
G37*
%TD.AperFunction*%
%TD*%
%TA.AperFunction,Conductor*%
%TO.N,GND*%
G36*
X177737500Y-25417113D02*
G01*
X177782887Y-25462500D01*
X177799500Y-25524500D01*
X177799500Y-37976000D01*
X177782887Y-38038000D01*
X177737500Y-38083387D01*
X177675500Y-38100000D01*
X177546000Y-38100000D01*
X177546000Y-36576000D01*
X174244000Y-36576000D01*
X174244000Y-38100000D01*
X141478000Y-38100000D01*
X141478000Y-47628000D01*
X141461387Y-47690000D01*
X141416000Y-47735387D01*
X141354000Y-47752000D01*
X140723251Y-47752000D01*
X140663514Y-47736662D01*
X140618554Y-47694443D01*
X140599496Y-47635786D01*
X140611052Y-47575203D01*
X140650366Y-47527682D01*
X140813870Y-47408889D01*
X140940533Y-47268216D01*
X141035179Y-47104284D01*
X141050238Y-47057938D01*
X141093674Y-46924256D01*
X141113460Y-46736000D01*
X141093674Y-46547744D01*
X141035179Y-46367716D01*
X141035179Y-46367715D01*
X140940533Y-46203783D01*
X140813870Y-46063110D01*
X140660730Y-45951848D01*
X140487802Y-45874855D01*
X140302648Y-45835500D01*
X140302646Y-45835500D01*
X140113354Y-45835500D01*
X140113352Y-45835500D01*
X139928197Y-45874855D01*
X139755269Y-45951848D01*
X139602129Y-46063110D01*
X139475466Y-46203783D01*
X139380820Y-46367715D01*
X139322326Y-46547742D01*
X139302540Y-46736000D01*
X139322326Y-46924257D01*
X139380820Y-47104284D01*
X139475466Y-47268216D01*
X139602129Y-47408889D01*
X139765634Y-47527682D01*
X139804948Y-47575203D01*
X139816504Y-47635786D01*
X139797446Y-47694443D01*
X139752486Y-47736662D01*
X139692749Y-47752000D01*
X134112000Y-47752000D01*
X134112000Y-61722000D01*
X140338000Y-61722000D01*
X140400000Y-61738613D01*
X140445387Y-61784000D01*
X140462000Y-61846000D01*
X140462000Y-63754000D01*
X139700000Y-63754000D01*
X139700000Y-67310000D01*
X140462000Y-67310000D01*
X140462000Y-71250000D01*
X140445387Y-71312000D01*
X140400000Y-71357387D01*
X140338000Y-71374000D01*
X133350000Y-71374000D01*
X133350000Y-95380000D01*
X133333387Y-95442000D01*
X133288000Y-95487387D01*
X133226000Y-95504000D01*
X118110000Y-95504000D01*
X118110000Y-93980000D01*
X114808000Y-93980000D01*
X114808000Y-95504000D01*
X113610543Y-95504000D01*
X113552090Y-95489358D01*
X113507441Y-95448892D01*
X113487140Y-95392156D01*
X113495981Y-95332549D01*
X113501662Y-95318834D01*
X113518275Y-95256834D01*
X113535500Y-95126000D01*
X113535500Y-66799000D01*
X113518275Y-66668166D01*
X113501662Y-66606166D01*
X113451163Y-66484250D01*
X113451162Y-66484249D01*
X113370829Y-66379557D01*
X113325442Y-66334170D01*
X113220749Y-66253836D01*
X113098838Y-66203339D01*
X113036830Y-66186724D01*
X112906001Y-66169500D01*
X112906000Y-66169500D01*
X106039500Y-66169500D01*
X105977500Y-66152887D01*
X105932113Y-66107500D01*
X105915500Y-66045500D01*
X105915500Y-57404000D01*
X128253540Y-57404000D01*
X128263432Y-57498127D01*
X128273326Y-57592257D01*
X128331820Y-57772284D01*
X128426466Y-57936216D01*
X128553129Y-58076889D01*
X128706269Y-58188151D01*
X128879197Y-58265144D01*
X129064352Y-58304500D01*
X129064354Y-58304500D01*
X129253646Y-58304500D01*
X129253648Y-58304500D01*
X129377083Y-58278262D01*
X129438803Y-58265144D01*
X129611730Y-58188151D01*
X129764871Y-58076888D01*
X129891533Y-57936216D01*
X129986179Y-57772284D01*
X130044674Y-57592256D01*
X130064460Y-57404000D01*
X130044674Y-57215744D01*
X129986179Y-57035716D01*
X129986179Y-57035715D01*
X129891533Y-56871783D01*
X129816519Y-56788473D01*
X129788351Y-56735499D01*
X129788351Y-56675501D01*
X129816519Y-56622527D01*
X129891533Y-56539216D01*
X129986179Y-56375284D01*
X129986179Y-56375283D01*
X130044674Y-56195256D01*
X130064460Y-56007000D01*
X130044674Y-55818744D01*
X129986179Y-55638716D01*
X129986179Y-55638715D01*
X129891533Y-55474783D01*
X129826439Y-55402490D01*
X129816518Y-55391472D01*
X129788351Y-55338499D01*
X129788351Y-55278501D01*
X129816519Y-55225527D01*
X129891533Y-55142216D01*
X129986179Y-54978284D01*
X130001683Y-54930567D01*
X130044674Y-54798256D01*
X130064460Y-54610000D01*
X130044674Y-54421744D01*
X129986179Y-54241716D01*
X129986179Y-54241715D01*
X129891533Y-54077783D01*
X129764870Y-53937110D01*
X129611730Y-53825848D01*
X129438802Y-53748855D01*
X129253648Y-53709500D01*
X129253646Y-53709500D01*
X129064354Y-53709500D01*
X129064352Y-53709500D01*
X128879197Y-53748855D01*
X128706269Y-53825848D01*
X128553129Y-53937110D01*
X128426466Y-54077783D01*
X128331820Y-54241715D01*
X128273326Y-54421742D01*
X128253540Y-54610000D01*
X128273326Y-54798257D01*
X128331820Y-54978284D01*
X128426466Y-55142216D01*
X128501480Y-55225526D01*
X128529648Y-55278500D01*
X128529648Y-55338497D01*
X128501481Y-55391471D01*
X128426466Y-55474783D01*
X128331820Y-55638715D01*
X128273326Y-55818742D01*
X128253540Y-56006999D01*
X128273326Y-56195257D01*
X128331820Y-56375284D01*
X128426466Y-56539216D01*
X128501480Y-56622526D01*
X128529648Y-56675500D01*
X128529648Y-56735497D01*
X128501481Y-56788471D01*
X128426466Y-56871783D01*
X128331820Y-57035715D01*
X128273326Y-57215742D01*
X128273325Y-57215744D01*
X128273326Y-57215744D01*
X128253540Y-57404000D01*
X105915500Y-57404000D01*
X105915500Y-51815999D01*
X107298540Y-51815999D01*
X107318326Y-52004257D01*
X107376820Y-52184284D01*
X107471466Y-52348216D01*
X107598129Y-52488889D01*
X107751269Y-52600151D01*
X107924197Y-52677144D01*
X108109352Y-52716500D01*
X108109354Y-52716500D01*
X108298646Y-52716500D01*
X108298648Y-52716500D01*
X108436192Y-52687264D01*
X108483803Y-52677144D01*
X108656730Y-52600151D01*
X108793392Y-52500861D01*
X108809870Y-52488889D01*
X108873850Y-52417832D01*
X108931821Y-52381608D01*
X109000179Y-52381608D01*
X109058150Y-52417832D01*
X109122129Y-52488889D01*
X109275269Y-52600151D01*
X109448197Y-52677144D01*
X109633352Y-52716500D01*
X109633354Y-52716500D01*
X109822646Y-52716500D01*
X109822648Y-52716500D01*
X109960192Y-52687264D01*
X110007803Y-52677144D01*
X110180730Y-52600151D01*
X110317392Y-52500861D01*
X110333870Y-52488889D01*
X110397850Y-52417832D01*
X110455821Y-52381608D01*
X110524179Y-52381608D01*
X110582150Y-52417832D01*
X110646129Y-52488889D01*
X110799269Y-52600151D01*
X110972197Y-52677144D01*
X111157352Y-52716500D01*
X111157354Y-52716500D01*
X111346646Y-52716500D01*
X111346648Y-52716500D01*
X111484192Y-52687264D01*
X111531803Y-52677144D01*
X111704730Y-52600151D01*
X111841392Y-52500861D01*
X111857870Y-52488889D01*
X111984533Y-52348216D01*
X112079179Y-52184284D01*
X112121721Y-52053354D01*
X112137674Y-52004256D01*
X112157460Y-51816000D01*
X112137674Y-51627744D01*
X112080810Y-51452735D01*
X112079179Y-51447715D01*
X111984533Y-51283783D01*
X111857870Y-51143110D01*
X111704730Y-51031848D01*
X111531802Y-50954855D01*
X111346648Y-50915500D01*
X111346646Y-50915500D01*
X111157354Y-50915500D01*
X111157352Y-50915500D01*
X110972197Y-50954855D01*
X110799269Y-51031848D01*
X110646129Y-51143110D01*
X110582150Y-51214167D01*
X110524179Y-51250391D01*
X110455821Y-51250391D01*
X110397850Y-51214167D01*
X110333870Y-51143110D01*
X110180730Y-51031848D01*
X110007802Y-50954855D01*
X109822648Y-50915500D01*
X109822646Y-50915500D01*
X109633354Y-50915500D01*
X109633352Y-50915500D01*
X109448197Y-50954855D01*
X109275269Y-51031848D01*
X109122129Y-51143110D01*
X109058150Y-51214167D01*
X109000179Y-51250391D01*
X108931821Y-51250391D01*
X108873850Y-51214167D01*
X108809870Y-51143110D01*
X108656730Y-51031848D01*
X108483802Y-50954855D01*
X108298648Y-50915500D01*
X108298646Y-50915500D01*
X108109354Y-50915500D01*
X108109352Y-50915500D01*
X107924197Y-50954855D01*
X107751269Y-51031848D01*
X107598129Y-51143110D01*
X107471466Y-51283783D01*
X107376820Y-51447715D01*
X107318326Y-51627742D01*
X107298540Y-51815999D01*
X105915500Y-51815999D01*
X105915500Y-50288999D01*
X105898275Y-50158169D01*
X105898275Y-50158166D01*
X105881662Y-50096166D01*
X105831163Y-49974250D01*
X105810598Y-49947449D01*
X105750829Y-49869557D01*
X105705442Y-49824170D01*
X105600749Y-49743836D01*
X105478838Y-49693339D01*
X105416830Y-49676724D01*
X105286001Y-49659500D01*
X105286000Y-49659500D01*
X85849000Y-49659500D01*
X85848999Y-49659500D01*
X85718169Y-49676724D01*
X85656161Y-49693339D01*
X85534250Y-49743836D01*
X85429557Y-49824170D01*
X85384170Y-49869557D01*
X85303836Y-49974250D01*
X85253339Y-50096161D01*
X85236724Y-50158169D01*
X85219500Y-50288999D01*
X85219500Y-55250500D01*
X85202887Y-55312500D01*
X85157500Y-55357887D01*
X85095500Y-55374500D01*
X75241681Y-55374500D01*
X75229617Y-55376054D01*
X75178987Y-55382576D01*
X75119438Y-55375634D01*
X75070106Y-55341566D01*
X75042523Y-55288337D01*
X75041224Y-55282888D01*
X75024269Y-55211739D01*
X74957115Y-55037377D01*
X74915978Y-54930567D01*
X74771175Y-54666335D01*
X74592445Y-54423761D01*
X74382979Y-54207175D01*
X74146514Y-54020441D01*
X73971445Y-53916748D01*
X73887270Y-53866891D01*
X73697676Y-53786496D01*
X73609868Y-53749262D01*
X73319275Y-53669661D01*
X73319274Y-53669660D01*
X73319271Y-53669660D01*
X73020653Y-53629500D01*
X69294756Y-53629500D01*
X69294754Y-53629500D01*
X69069364Y-53644587D01*
X68774098Y-53704603D01*
X68489459Y-53803441D01*
X68220546Y-53939328D01*
X67972127Y-54109858D01*
X67748668Y-54311966D01*
X67554135Y-54542061D01*
X67392005Y-54796032D01*
X67265179Y-55069337D01*
X67194804Y-55296202D01*
X67165824Y-55345336D01*
X67117915Y-55376297D01*
X67061214Y-55382532D01*
X66995990Y-55374500D01*
X65529000Y-55374500D01*
X65528999Y-55374500D01*
X65398169Y-55391724D01*
X65336161Y-55408339D01*
X65214250Y-55458836D01*
X65109557Y-55539170D01*
X65064170Y-55584557D01*
X64983836Y-55689250D01*
X64933339Y-55811161D01*
X64916724Y-55873169D01*
X64899500Y-56003999D01*
X64899500Y-67186000D01*
X64882887Y-67248000D01*
X64837500Y-67293387D01*
X64775500Y-67310000D01*
X63624500Y-67310000D01*
X63562500Y-67293387D01*
X63517113Y-67248000D01*
X63500500Y-67186000D01*
X63500500Y-53339999D01*
X74444531Y-53339999D01*
X74464364Y-53566689D01*
X74523261Y-53786497D01*
X74619432Y-53992735D01*
X74749953Y-54179140D01*
X74910859Y-54340046D01*
X75097264Y-54470567D01*
X75097265Y-54470567D01*
X75097266Y-54470568D01*
X75303504Y-54566739D01*
X75523308Y-54625635D01*
X75608262Y-54633067D01*
X75693214Y-54640500D01*
X75693216Y-54640500D01*
X76706784Y-54640500D01*
X76706786Y-54640500D01*
X76774747Y-54634554D01*
X76876692Y-54625635D01*
X77096496Y-54566739D01*
X77302734Y-54470568D01*
X77489139Y-54340047D01*
X77650047Y-54179139D01*
X77780568Y-53992734D01*
X77876739Y-53786496D01*
X77935635Y-53566692D01*
X77955468Y-53340000D01*
X77935635Y-53113308D01*
X77876739Y-52893504D01*
X77780568Y-52687266D01*
X77729581Y-52614449D01*
X77650046Y-52500859D01*
X77489140Y-52339953D01*
X77302733Y-52209431D01*
X77244725Y-52182382D01*
X77192549Y-52136625D01*
X77173129Y-52070000D01*
X77192549Y-52003375D01*
X77244725Y-51957618D01*
X77302734Y-51930568D01*
X77489139Y-51800047D01*
X77650047Y-51639139D01*
X77780568Y-51452734D01*
X77876739Y-51246496D01*
X77935635Y-51026692D01*
X77955468Y-50800000D01*
X77935635Y-50573308D01*
X77876739Y-50353504D01*
X77780568Y-50147266D01*
X77744784Y-50096161D01*
X77650046Y-49960859D01*
X77489140Y-49799953D01*
X77302735Y-49669432D01*
X77096497Y-49573261D01*
X76876689Y-49514364D01*
X76706786Y-49499500D01*
X76706784Y-49499500D01*
X75693216Y-49499500D01*
X75693214Y-49499500D01*
X75523310Y-49514364D01*
X75303502Y-49573261D01*
X75097264Y-49669432D01*
X74910859Y-49799953D01*
X74749953Y-49960859D01*
X74619432Y-50147264D01*
X74523261Y-50353502D01*
X74464364Y-50573310D01*
X74444531Y-50799999D01*
X74464364Y-51026689D01*
X74523261Y-51246497D01*
X74619432Y-51452735D01*
X74749953Y-51639140D01*
X74910859Y-51800046D01*
X75097263Y-51930566D01*
X75097266Y-51930568D01*
X75155275Y-51957618D01*
X75207450Y-52003375D01*
X75226869Y-52070000D01*
X75207450Y-52136625D01*
X75155275Y-52182382D01*
X75097263Y-52209433D01*
X74910859Y-52339953D01*
X74749953Y-52500859D01*
X74619432Y-52687264D01*
X74523261Y-52893502D01*
X74464364Y-53113310D01*
X74444531Y-53339999D01*
X63500500Y-53339999D01*
X63500500Y-45795372D01*
X67115723Y-45795372D01*
X67145881Y-46095160D01*
X67215731Y-46388262D01*
X67324021Y-46669432D01*
X67468824Y-46933664D01*
X67487094Y-46958460D01*
X67647554Y-47176238D01*
X67857020Y-47392824D01*
X68093485Y-47579558D01*
X68352730Y-47733109D01*
X68630128Y-47850736D01*
X68630129Y-47850736D01*
X68630131Y-47850737D01*
X68694179Y-47868281D01*
X68920729Y-47930340D01*
X69219347Y-47970500D01*
X72945244Y-47970500D01*
X72945246Y-47970500D01*
X73170635Y-47955412D01*
X73293994Y-47930338D01*
X73465903Y-47895396D01*
X73750537Y-47796560D01*
X74019459Y-47660668D01*
X74267869Y-47490144D01*
X74491333Y-47288032D01*
X74685865Y-47057939D01*
X74847993Y-46803970D01*
X74974823Y-46530658D01*
X75064093Y-46242879D01*
X75114209Y-45945770D01*
X75124277Y-45644631D01*
X75119385Y-45596001D01*
X94109500Y-45596001D01*
X94126724Y-45726830D01*
X94143339Y-45788838D01*
X94193836Y-45910749D01*
X94274170Y-46015442D01*
X94319557Y-46060829D01*
X94364298Y-46095160D01*
X94424250Y-46141163D01*
X94546166Y-46191662D01*
X94608166Y-46208275D01*
X94706291Y-46221193D01*
X94738999Y-46225500D01*
X94739000Y-46225500D01*
X124336000Y-46225500D01*
X124336001Y-46225500D01*
X124362166Y-46222054D01*
X124466834Y-46208275D01*
X124528834Y-46191662D01*
X124650750Y-46141163D01*
X124755442Y-46060829D01*
X124800829Y-46015442D01*
X124881163Y-45910750D01*
X124931662Y-45788834D01*
X124948275Y-45726834D01*
X124965500Y-45596000D01*
X124965500Y-40005000D01*
X133289428Y-40005000D01*
X133307673Y-40190248D01*
X133307673Y-40190250D01*
X133307674Y-40190252D01*
X133361710Y-40368385D01*
X133449460Y-40532554D01*
X133495602Y-40588779D01*
X133567550Y-40676449D01*
X133639498Y-40735494D01*
X133711446Y-40794540D01*
X133875615Y-40882290D01*
X134053748Y-40936326D01*
X134239000Y-40954572D01*
X134424252Y-40936326D01*
X134602385Y-40882290D01*
X134766554Y-40794540D01*
X134910449Y-40676449D01*
X135028540Y-40532554D01*
X135116290Y-40368385D01*
X135170326Y-40190252D01*
X135188572Y-40005000D01*
X135170326Y-39819748D01*
X135116290Y-39641615D01*
X135028540Y-39477446D01*
X134969494Y-39405498D01*
X134910449Y-39333550D01*
X134822779Y-39261602D01*
X134766554Y-39215460D01*
X134602385Y-39127710D01*
X134424252Y-39073674D01*
X134424250Y-39073673D01*
X134424248Y-39073673D01*
X134264897Y-39057978D01*
X134239000Y-39055428D01*
X134238999Y-39055428D01*
X134053751Y-39073673D01*
X134053747Y-39073674D01*
X134053748Y-39073674D01*
X133875615Y-39127710D01*
X133875611Y-39127711D01*
X133875611Y-39127712D01*
X133711447Y-39215459D01*
X133567550Y-39333550D01*
X133483122Y-39436428D01*
X133449460Y-39477446D01*
X133361710Y-39641615D01*
X133313218Y-39801468D01*
X133307673Y-39819751D01*
X133289428Y-40005000D01*
X124965500Y-40005000D01*
X124965500Y-31366392D01*
X126332895Y-31366392D01*
X126352681Y-31554649D01*
X126411175Y-31734676D01*
X126505821Y-31898608D01*
X126632484Y-32039281D01*
X126785624Y-32150543D01*
X126958552Y-32227536D01*
X127143707Y-32266892D01*
X127143709Y-32266892D01*
X127333001Y-32266892D01*
X127333003Y-32266892D01*
X127456438Y-32240654D01*
X127518158Y-32227536D01*
X127691085Y-32150543D01*
X127844226Y-32039280D01*
X127880298Y-31999218D01*
X127933037Y-31940646D01*
X127991008Y-31904422D01*
X128059366Y-31904422D01*
X128117337Y-31940646D01*
X128176973Y-32006879D01*
X128330113Y-32118141D01*
X128503041Y-32195134D01*
X128688196Y-32234490D01*
X128688198Y-32234490D01*
X128877490Y-32234490D01*
X128877492Y-32234490D01*
X129000927Y-32208252D01*
X129062647Y-32195134D01*
X129235574Y-32118141D01*
X129344116Y-32039281D01*
X129399259Y-31999218D01*
X129399804Y-31999969D01*
X129437142Y-31974782D01*
X129496812Y-31968508D01*
X129552443Y-31990984D01*
X129559450Y-31996075D01*
X129559453Y-31996078D01*
X129712594Y-32107341D01*
X129712595Y-32107341D01*
X129712596Y-32107342D01*
X129885521Y-32184334D01*
X130070676Y-32223690D01*
X130070678Y-32223690D01*
X130259970Y-32223690D01*
X130259972Y-32223690D01*
X130383408Y-32197452D01*
X130445127Y-32184334D01*
X130618054Y-32107341D01*
X130711731Y-32039281D01*
X130771194Y-31996079D01*
X130861734Y-31895525D01*
X169322500Y-31895525D01*
X169362131Y-32183862D01*
X169385395Y-32266892D01*
X169440656Y-32464121D01*
X169556611Y-32731075D01*
X169707835Y-32979754D01*
X169891513Y-33205524D01*
X169891514Y-33205525D01*
X170104224Y-33404183D01*
X170341998Y-33572023D01*
X170342002Y-33572025D01*
X170600421Y-33705927D01*
X170874666Y-33803393D01*
X171159629Y-33862609D01*
X171377327Y-33877500D01*
X171522672Y-33877500D01*
X171522673Y-33877500D01*
X171740371Y-33862609D01*
X172025334Y-33803393D01*
X172299579Y-33705927D01*
X172557998Y-33572025D01*
X172795777Y-33404182D01*
X173008486Y-33205525D01*
X173192165Y-32979754D01*
X173343389Y-32731075D01*
X173459344Y-32464121D01*
X173537868Y-32183864D01*
X173577500Y-31895525D01*
X173577500Y-31604475D01*
X173537868Y-31316136D01*
X173459344Y-31035879D01*
X173343389Y-30768925D01*
X173192165Y-30520246D01*
X173008486Y-30294475D01*
X172795777Y-30095818D01*
X172795775Y-30095816D01*
X172558001Y-29927976D01*
X172299575Y-29794071D01*
X172025333Y-29696606D01*
X171740375Y-29637391D01*
X171566212Y-29625478D01*
X171522673Y-29622500D01*
X171377327Y-29622500D01*
X171341044Y-29624981D01*
X171159624Y-29637391D01*
X170874666Y-29696606D01*
X170600424Y-29794071D01*
X170341998Y-29927976D01*
X170104224Y-30095816D01*
X169891514Y-30294474D01*
X169707834Y-30520247D01*
X169556611Y-30768924D01*
X169440657Y-31035876D01*
X169362131Y-31316137D01*
X169322500Y-31604475D01*
X169322500Y-31895525D01*
X130861734Y-31895525D01*
X130897857Y-31855406D01*
X130992503Y-31691474D01*
X131036960Y-31554649D01*
X131050998Y-31511446D01*
X131070784Y-31323190D01*
X131050998Y-31134934D01*
X130992503Y-30954906D01*
X130992503Y-30954905D01*
X130897857Y-30790973D01*
X130771194Y-30650300D01*
X130618054Y-30539038D01*
X130445126Y-30462045D01*
X130259972Y-30422690D01*
X130259970Y-30422690D01*
X130070678Y-30422690D01*
X130070676Y-30422690D01*
X129885521Y-30462045D01*
X129712593Y-30539038D01*
X129548909Y-30657962D01*
X129548363Y-30657211D01*
X129511015Y-30682401D01*
X129451350Y-30688670D01*
X129395724Y-30666195D01*
X129388716Y-30661103D01*
X129388715Y-30661102D01*
X129235574Y-30549839D01*
X129235573Y-30549838D01*
X129235571Y-30549837D01*
X129062646Y-30472845D01*
X128877492Y-30433490D01*
X128877490Y-30433490D01*
X128688198Y-30433490D01*
X128688196Y-30433490D01*
X128503041Y-30472845D01*
X128330113Y-30549838D01*
X128176973Y-30661100D01*
X128088162Y-30759736D01*
X128030191Y-30795960D01*
X127961833Y-30795960D01*
X127903862Y-30759736D01*
X127844225Y-30693502D01*
X127691085Y-30582240D01*
X127518157Y-30505247D01*
X127333003Y-30465892D01*
X127333001Y-30465892D01*
X127143709Y-30465892D01*
X127143707Y-30465892D01*
X126958552Y-30505247D01*
X126785624Y-30582240D01*
X126632484Y-30693502D01*
X126505821Y-30834175D01*
X126411175Y-30998107D01*
X126352681Y-31178134D01*
X126332895Y-31366392D01*
X124965500Y-31366392D01*
X124965500Y-28457500D01*
X134695519Y-28457500D01*
X134715404Y-28697471D01*
X134715404Y-28697474D01*
X134715405Y-28697476D01*
X134774517Y-28930905D01*
X134871245Y-29151422D01*
X135002949Y-29353010D01*
X135166037Y-29530171D01*
X135356061Y-29678072D01*
X135567836Y-29792679D01*
X135795587Y-29870866D01*
X136033101Y-29910500D01*
X136273899Y-29910500D01*
X136511413Y-29870866D01*
X136739164Y-29792679D01*
X136950939Y-29678072D01*
X137140963Y-29530171D01*
X137304051Y-29353010D01*
X137435755Y-29151422D01*
X137532483Y-28930905D01*
X137591595Y-28697476D01*
X137611480Y-28457500D01*
X137591595Y-28217524D01*
X137532483Y-27984095D01*
X137435755Y-27763578D01*
X137304051Y-27561990D01*
X137140963Y-27384829D01*
X136950939Y-27236928D01*
X136739164Y-27122321D01*
X136739160Y-27122319D01*
X136739159Y-27122319D01*
X136511415Y-27044134D01*
X136273899Y-27004500D01*
X136033101Y-27004500D01*
X135795584Y-27044134D01*
X135567840Y-27122319D01*
X135356059Y-27236929D01*
X135166036Y-27384829D01*
X135002948Y-27561991D01*
X134871245Y-27763577D01*
X134774517Y-27984093D01*
X134715404Y-28217528D01*
X134695519Y-28457500D01*
X124965500Y-28457500D01*
X124965500Y-27048000D01*
X124948275Y-26917166D01*
X124931662Y-26855166D01*
X124881163Y-26733250D01*
X124800829Y-26628557D01*
X124755442Y-26583170D01*
X124650749Y-26502836D01*
X124528838Y-26452339D01*
X124466830Y-26435724D01*
X124336001Y-26418500D01*
X124336000Y-26418500D01*
X94739000Y-26418500D01*
X94738999Y-26418500D01*
X94608169Y-26435724D01*
X94546161Y-26452339D01*
X94424250Y-26502836D01*
X94319557Y-26583170D01*
X94274170Y-26628557D01*
X94193836Y-26733250D01*
X94143339Y-26855161D01*
X94126724Y-26917169D01*
X94109500Y-27047999D01*
X94109500Y-45596001D01*
X75119385Y-45596001D01*
X75094118Y-45344838D01*
X75024269Y-45051739D01*
X74953291Y-44867449D01*
X74915978Y-44770567D01*
X74771175Y-44506335D01*
X74771174Y-44506334D01*
X74592446Y-44263762D01*
X74382980Y-44047176D01*
X74336850Y-44010748D01*
X74146514Y-43860441D01*
X74009568Y-43779328D01*
X73887270Y-43706891D01*
X73680592Y-43619252D01*
X73609868Y-43589262D01*
X73319275Y-43509661D01*
X73319274Y-43509660D01*
X73319271Y-43509660D01*
X73020653Y-43469500D01*
X69294756Y-43469500D01*
X69294754Y-43469500D01*
X69069364Y-43484587D01*
X68774098Y-43544603D01*
X68489459Y-43643441D01*
X68220546Y-43779328D01*
X67972127Y-43949858D01*
X67748668Y-44151966D01*
X67554135Y-44382061D01*
X67392005Y-44636032D01*
X67265178Y-44909339D01*
X67191898Y-45145572D01*
X67175907Y-45197121D01*
X67125791Y-45494230D01*
X67115942Y-45788834D01*
X67115723Y-45795372D01*
X63500500Y-45795372D01*
X63500500Y-40385999D01*
X82362428Y-40385999D01*
X82380673Y-40571248D01*
X82380673Y-40571250D01*
X82380674Y-40571252D01*
X82434710Y-40749385D01*
X82522460Y-40913554D01*
X82568602Y-40969779D01*
X82640550Y-41057449D01*
X82712498Y-41116494D01*
X82784446Y-41175540D01*
X82948615Y-41263290D01*
X83126748Y-41317326D01*
X83312000Y-41335572D01*
X83497252Y-41317326D01*
X83675385Y-41263290D01*
X83839554Y-41175540D01*
X83983449Y-41057449D01*
X84101540Y-40913554D01*
X84189290Y-40749385D01*
X84243326Y-40571252D01*
X84261572Y-40386000D01*
X84243326Y-40200748D01*
X84189290Y-40022615D01*
X84101540Y-39858446D01*
X84042494Y-39786498D01*
X83983449Y-39714550D01*
X83894571Y-39641611D01*
X83839554Y-39596460D01*
X83675385Y-39508710D01*
X83497252Y-39454674D01*
X83497250Y-39454673D01*
X83497248Y-39454673D01*
X83312000Y-39436428D01*
X83126751Y-39454673D01*
X83126747Y-39454674D01*
X83126748Y-39454674D01*
X82948615Y-39508710D01*
X82948611Y-39508711D01*
X82948611Y-39508712D01*
X82784447Y-39596459D01*
X82640550Y-39714550D01*
X82522460Y-39858446D01*
X82434710Y-40022615D01*
X82386218Y-40182468D01*
X82380673Y-40200751D01*
X82362428Y-40385999D01*
X63500500Y-40385999D01*
X63500500Y-34290000D01*
X65904699Y-34290000D01*
X65923865Y-34521299D01*
X65923865Y-34521301D01*
X65923866Y-34521305D01*
X65980843Y-34746300D01*
X66074076Y-34958849D01*
X66201021Y-35153153D01*
X66358216Y-35323913D01*
X66541374Y-35466470D01*
X66745497Y-35576936D01*
X66855257Y-35614616D01*
X66965015Y-35652297D01*
X66965017Y-35652297D01*
X66965019Y-35652298D01*
X67193951Y-35690500D01*
X67426048Y-35690500D01*
X67426049Y-35690500D01*
X67654981Y-35652298D01*
X67874503Y-35576936D01*
X68078626Y-35466470D01*
X68261784Y-35323913D01*
X68418979Y-35153153D01*
X68545924Y-34958849D01*
X68639157Y-34746300D01*
X68696134Y-34521305D01*
X68715300Y-34290000D01*
X68696134Y-34058695D01*
X68639157Y-33833700D01*
X68545924Y-33621151D01*
X68418979Y-33426847D01*
X68324195Y-33323884D01*
X68295424Y-33271134D01*
X68294831Y-33211047D01*
X68322558Y-33157737D01*
X68372092Y-33123722D01*
X68452331Y-33093796D01*
X68567546Y-33007546D01*
X68653796Y-32892331D01*
X68704091Y-32757483D01*
X68710500Y-32697873D01*
X68710500Y-31895525D01*
X86772500Y-31895525D01*
X86812131Y-32183862D01*
X86835395Y-32266892D01*
X86890656Y-32464121D01*
X87006611Y-32731075D01*
X87157835Y-32979754D01*
X87341514Y-33205525D01*
X87554224Y-33404183D01*
X87791998Y-33572023D01*
X87792002Y-33572025D01*
X88050421Y-33705927D01*
X88324666Y-33803393D01*
X88609629Y-33862609D01*
X88827327Y-33877500D01*
X88972672Y-33877500D01*
X88972673Y-33877500D01*
X89190371Y-33862609D01*
X89475334Y-33803393D01*
X89749579Y-33705927D01*
X90007998Y-33572025D01*
X90245777Y-33404182D01*
X90458486Y-33205525D01*
X90642165Y-32979754D01*
X90793389Y-32731075D01*
X90909344Y-32464121D01*
X90987868Y-32183864D01*
X91027500Y-31895525D01*
X91027500Y-31604475D01*
X90987868Y-31316136D01*
X90909344Y-31035879D01*
X90793389Y-30768925D01*
X90642165Y-30520246D01*
X90458486Y-30294475D01*
X90245777Y-30095818D01*
X90245775Y-30095816D01*
X90008001Y-29927976D01*
X89749575Y-29794071D01*
X89475333Y-29696606D01*
X89190375Y-29637391D01*
X89016212Y-29625478D01*
X88972673Y-29622500D01*
X88827327Y-29622500D01*
X88791043Y-29624981D01*
X88609624Y-29637391D01*
X88324666Y-29696606D01*
X88050424Y-29794071D01*
X87791998Y-29927976D01*
X87554224Y-30095816D01*
X87341514Y-30294474D01*
X87157834Y-30520247D01*
X87006611Y-30768924D01*
X86890657Y-31035876D01*
X86812131Y-31316137D01*
X86772500Y-31604475D01*
X86772500Y-31895525D01*
X68710500Y-31895525D01*
X68710499Y-30802128D01*
X68704091Y-30742517D01*
X68653796Y-30607669D01*
X68567546Y-30492454D01*
X68452331Y-30406204D01*
X68317483Y-30355909D01*
X68257873Y-30349500D01*
X68257869Y-30349500D01*
X66362130Y-30349500D01*
X66302515Y-30355909D01*
X66167669Y-30406204D01*
X66052454Y-30492454D01*
X65966204Y-30607668D01*
X65915909Y-30742516D01*
X65909500Y-30802130D01*
X65909500Y-32697869D01*
X65913070Y-32731075D01*
X65915909Y-32757483D01*
X65966204Y-32892331D01*
X66052454Y-33007546D01*
X66167669Y-33093796D01*
X66247905Y-33123722D01*
X66297441Y-33157737D01*
X66325168Y-33211047D01*
X66324575Y-33271134D01*
X66295802Y-33323887D01*
X66201020Y-33426848D01*
X66074076Y-33621150D01*
X65980844Y-33833696D01*
X65923865Y-34058700D01*
X65904699Y-34290000D01*
X63500500Y-34290000D01*
X63500500Y-25524500D01*
X63517113Y-25462500D01*
X63562500Y-25417113D01*
X63624500Y-25400500D01*
X177675500Y-25400500D01*
X177737500Y-25417113D01*
G37*
%TD.AperFunction*%
%TD*%
%TA.AperFunction,Conductor*%
%TO.N,GND*%
G36*
X174244000Y-40132000D02*
G01*
X177546000Y-40132000D01*
X177546000Y-38862000D01*
X177675500Y-38862000D01*
X177737500Y-38878613D01*
X177782887Y-38924000D01*
X177799500Y-38986000D01*
X177799500Y-152275500D01*
X177782887Y-152337500D01*
X177737500Y-152382887D01*
X177675500Y-152399500D01*
X63624500Y-152399500D01*
X63562500Y-152382887D01*
X63517113Y-152337500D01*
X63500500Y-152275500D01*
X63500500Y-150669192D01*
X120467000Y-150669192D01*
X120481904Y-150849057D01*
X120481904Y-150849060D01*
X120481905Y-150849062D01*
X120501777Y-150927534D01*
X120541017Y-151082492D01*
X120637745Y-151303008D01*
X120769449Y-151504596D01*
X120932537Y-151681757D01*
X121122561Y-151829658D01*
X121334336Y-151944265D01*
X121562087Y-152022452D01*
X121799601Y-152062086D01*
X122040399Y-152062086D01*
X122277913Y-152022452D01*
X122505664Y-151944265D01*
X122717439Y-151829658D01*
X122907463Y-151681757D01*
X123070551Y-151504596D01*
X123086190Y-151480657D01*
X123130979Y-151439425D01*
X123189996Y-151424478D01*
X123249014Y-151439422D01*
X123293806Y-151480654D01*
X123308374Y-151502950D01*
X123309449Y-151504596D01*
X123472537Y-151681757D01*
X123662561Y-151829658D01*
X123874336Y-151944265D01*
X124102087Y-152022452D01*
X124339601Y-152062086D01*
X124580399Y-152062086D01*
X124817913Y-152022452D01*
X125045664Y-151944265D01*
X125257439Y-151829658D01*
X125399930Y-151718752D01*
X125452358Y-151694899D01*
X125509907Y-151697306D01*
X125560160Y-151725454D01*
X125592273Y-151773271D01*
X125603702Y-151803914D01*
X125603703Y-151803916D01*
X125603704Y-151803917D01*
X125689954Y-151919132D01*
X125805169Y-152005382D01*
X125940017Y-152055677D01*
X125999627Y-152062086D01*
X128000372Y-152062085D01*
X128059983Y-152055677D01*
X128194831Y-152005382D01*
X128310046Y-151919132D01*
X128396296Y-151803917D01*
X128446591Y-151669069D01*
X128453000Y-151609459D01*
X128453000Y-150747664D01*
X145867000Y-150747664D01*
X145881904Y-150927529D01*
X145921145Y-151082492D01*
X145941017Y-151160963D01*
X146037745Y-151381480D01*
X146169449Y-151583068D01*
X146332537Y-151760229D01*
X146522561Y-151908130D01*
X146734336Y-152022737D01*
X146962087Y-152100924D01*
X147199601Y-152140558D01*
X147440399Y-152140558D01*
X147677913Y-152100924D01*
X147905664Y-152022737D01*
X148117439Y-151908130D01*
X148307463Y-151760229D01*
X148470551Y-151583068D01*
X148486191Y-151559128D01*
X148530982Y-151517895D01*
X148590000Y-151502950D01*
X148649018Y-151517895D01*
X148693808Y-151559128D01*
X148709449Y-151583068D01*
X148872537Y-151760229D01*
X149062561Y-151908130D01*
X149274336Y-152022737D01*
X149502087Y-152100924D01*
X149739601Y-152140558D01*
X149980399Y-152140558D01*
X150217913Y-152100924D01*
X150445664Y-152022737D01*
X150657439Y-151908130D01*
X150799930Y-151797224D01*
X150852358Y-151773371D01*
X150909907Y-151775778D01*
X150960160Y-151803926D01*
X150992273Y-151851743D01*
X151003702Y-151882386D01*
X151003703Y-151882388D01*
X151003704Y-151882389D01*
X151089954Y-151997604D01*
X151205169Y-152083854D01*
X151340017Y-152134149D01*
X151399627Y-152140558D01*
X153400372Y-152140557D01*
X153459983Y-152134149D01*
X153594831Y-152083854D01*
X153710046Y-151997604D01*
X153796296Y-151882389D01*
X153846591Y-151747541D01*
X153853000Y-151687931D01*
X153852999Y-149592186D01*
X153846591Y-149532575D01*
X153796296Y-149397727D01*
X153710046Y-149282512D01*
X153594831Y-149196262D01*
X153459983Y-149145967D01*
X153400373Y-149139558D01*
X153400369Y-149139558D01*
X151399630Y-149139558D01*
X151340015Y-149145967D01*
X151205169Y-149196262D01*
X151089954Y-149282512D01*
X151003703Y-149397728D01*
X150992273Y-149428373D01*
X150960159Y-149476189D01*
X150909907Y-149504337D01*
X150852358Y-149506744D01*
X150799930Y-149482891D01*
X150791319Y-149476189D01*
X150657439Y-149371986D01*
X150445664Y-149257379D01*
X150445660Y-149257377D01*
X150445659Y-149257377D01*
X150217915Y-149179192D01*
X149980399Y-149139558D01*
X149739601Y-149139558D01*
X149502084Y-149179192D01*
X149274340Y-149257377D01*
X149274336Y-149257378D01*
X149274336Y-149257379D01*
X149207563Y-149293515D01*
X149062559Y-149371987D01*
X148872536Y-149519887D01*
X148709448Y-149697049D01*
X148693808Y-149720988D01*
X148649017Y-149762220D01*
X148590000Y-149777165D01*
X148530983Y-149762220D01*
X148486192Y-149720988D01*
X148482649Y-149715566D01*
X148470551Y-149697048D01*
X148307463Y-149519887D01*
X148117439Y-149371986D01*
X147905664Y-149257379D01*
X147905660Y-149257377D01*
X147905659Y-149257377D01*
X147677915Y-149179192D01*
X147440399Y-149139558D01*
X147199601Y-149139558D01*
X146962084Y-149179192D01*
X146734340Y-149257377D01*
X146734336Y-149257378D01*
X146734336Y-149257379D01*
X146667563Y-149293515D01*
X146522559Y-149371987D01*
X146332536Y-149519887D01*
X146169448Y-149697049D01*
X146037745Y-149898635D01*
X145941017Y-150119151D01*
X145881904Y-150352586D01*
X145867000Y-150532452D01*
X145867000Y-150747664D01*
X128453000Y-150747664D01*
X128452999Y-149513714D01*
X128446591Y-149454103D01*
X128396296Y-149319255D01*
X128310046Y-149204040D01*
X128194831Y-149117790D01*
X128059983Y-149067495D01*
X128000373Y-149061086D01*
X128000369Y-149061086D01*
X125999630Y-149061086D01*
X125940015Y-149067495D01*
X125805169Y-149117790D01*
X125689954Y-149204040D01*
X125603703Y-149319256D01*
X125592273Y-149349901D01*
X125560159Y-149397717D01*
X125509907Y-149425865D01*
X125452358Y-149428272D01*
X125399930Y-149404419D01*
X125391333Y-149397728D01*
X125257439Y-149293514D01*
X125045664Y-149178907D01*
X125045660Y-149178905D01*
X125045659Y-149178905D01*
X124817915Y-149100720D01*
X124580399Y-149061086D01*
X124339601Y-149061086D01*
X124102084Y-149100720D01*
X123874340Y-149178905D01*
X123874336Y-149178906D01*
X123874336Y-149178907D01*
X123733152Y-149255311D01*
X123662559Y-149293515D01*
X123472536Y-149441415D01*
X123309446Y-149618577D01*
X123293806Y-149642517D01*
X123249015Y-149683749D01*
X123189997Y-149698693D01*
X123130980Y-149683747D01*
X123086190Y-149642514D01*
X123076716Y-149628013D01*
X123070551Y-149618576D01*
X122907463Y-149441415D01*
X122717439Y-149293514D01*
X122505664Y-149178907D01*
X122505660Y-149178905D01*
X122505659Y-149178905D01*
X122277915Y-149100720D01*
X122040399Y-149061086D01*
X121799601Y-149061086D01*
X121562084Y-149100720D01*
X121334340Y-149178905D01*
X121334336Y-149178906D01*
X121334336Y-149178907D01*
X121193152Y-149255311D01*
X121122559Y-149293515D01*
X120932536Y-149441415D01*
X120769448Y-149618577D01*
X120637745Y-149820163D01*
X120541017Y-150040679D01*
X120481904Y-150274114D01*
X120467000Y-150453980D01*
X120467000Y-150669192D01*
X63500500Y-150669192D01*
X63500500Y-148893499D01*
X100413500Y-148893499D01*
X100428197Y-149089627D01*
X100486580Y-149345418D01*
X100560034Y-149532575D01*
X100582432Y-149589643D01*
X100713614Y-149816857D01*
X100877195Y-150021981D01*
X100877197Y-150021983D01*
X100877198Y-150021984D01*
X101069514Y-150200428D01*
X101069520Y-150200432D01*
X101069521Y-150200433D01*
X101286296Y-150348228D01*
X101522677Y-150462063D01*
X101773385Y-150539396D01*
X102032818Y-150578500D01*
X102295182Y-150578500D01*
X102554615Y-150539396D01*
X102805323Y-150462063D01*
X103041704Y-150348228D01*
X103258479Y-150200433D01*
X103258482Y-150200429D01*
X103258485Y-150200428D01*
X103430653Y-150040679D01*
X103450805Y-150021981D01*
X103614386Y-149816857D01*
X103745568Y-149589643D01*
X103841420Y-149345416D01*
X103899802Y-149089630D01*
X103914500Y-148893499D01*
X107413500Y-148893499D01*
X107428197Y-149089627D01*
X107486580Y-149345418D01*
X107560034Y-149532575D01*
X107582432Y-149589643D01*
X107713614Y-149816857D01*
X107877195Y-150021981D01*
X107877197Y-150021983D01*
X107877198Y-150021984D01*
X108069514Y-150200428D01*
X108069520Y-150200432D01*
X108069521Y-150200433D01*
X108286296Y-150348228D01*
X108522677Y-150462063D01*
X108773385Y-150539396D01*
X109032818Y-150578500D01*
X109295182Y-150578500D01*
X109554615Y-150539396D01*
X109805323Y-150462063D01*
X110041704Y-150348228D01*
X110258479Y-150200433D01*
X110258482Y-150200429D01*
X110258485Y-150200428D01*
X110430653Y-150040679D01*
X110450805Y-150021981D01*
X110614386Y-149816857D01*
X110745568Y-149589643D01*
X110841420Y-149345416D01*
X110899802Y-149089630D01*
X110914500Y-148893494D01*
X110914500Y-146762506D01*
X110899802Y-146566370D01*
X110841420Y-146310584D01*
X110745568Y-146066357D01*
X110614386Y-145839143D01*
X110573300Y-145787623D01*
X146411636Y-145787623D01*
X146431422Y-145975880D01*
X146489916Y-146155907D01*
X146584562Y-146319839D01*
X146711225Y-146460512D01*
X146864365Y-146571774D01*
X147037293Y-146648767D01*
X147222448Y-146688123D01*
X147222450Y-146688123D01*
X147411742Y-146688123D01*
X147411744Y-146688123D01*
X147535180Y-146661885D01*
X147596899Y-146648767D01*
X147769826Y-146571774D01*
X147777264Y-146566370D01*
X147922966Y-146460512D01*
X148049629Y-146319839D01*
X148121402Y-146195525D01*
X169322500Y-146195525D01*
X169362131Y-146483862D01*
X169386763Y-146571774D01*
X169440656Y-146764121D01*
X169556611Y-147031075D01*
X169707835Y-147279754D01*
X169891514Y-147505525D01*
X170104224Y-147704183D01*
X170341998Y-147872023D01*
X170342002Y-147872025D01*
X170600421Y-148005927D01*
X170874666Y-148103393D01*
X171159629Y-148162609D01*
X171377327Y-148177500D01*
X171522672Y-148177500D01*
X171522673Y-148177500D01*
X171740371Y-148162609D01*
X172025334Y-148103393D01*
X172299579Y-148005927D01*
X172557998Y-147872025D01*
X172795777Y-147704182D01*
X173008486Y-147505525D01*
X173192165Y-147279754D01*
X173343389Y-147031075D01*
X173459344Y-146764121D01*
X173537868Y-146483864D01*
X173577500Y-146195525D01*
X173577500Y-145904475D01*
X173537868Y-145616136D01*
X173459344Y-145335879D01*
X173343389Y-145068925D01*
X173192165Y-144820246D01*
X173008486Y-144594475D01*
X172795777Y-144395818D01*
X172795775Y-144395816D01*
X172558001Y-144227976D01*
X172299575Y-144094071D01*
X172025333Y-143996606D01*
X171740375Y-143937391D01*
X171566212Y-143925478D01*
X171522673Y-143922500D01*
X171377327Y-143922500D01*
X171341043Y-143924981D01*
X171159624Y-143937391D01*
X170874666Y-143996606D01*
X170600424Y-144094071D01*
X170341998Y-144227976D01*
X170104224Y-144395816D01*
X169891514Y-144594474D01*
X169707834Y-144820247D01*
X169556611Y-145068924D01*
X169440657Y-145335876D01*
X169362131Y-145616137D01*
X169322500Y-145904475D01*
X169322500Y-146195525D01*
X148121402Y-146195525D01*
X148144275Y-146155907D01*
X148173183Y-146066937D01*
X148202770Y-145975879D01*
X148222556Y-145787623D01*
X148202770Y-145599367D01*
X148156046Y-145455567D01*
X148144275Y-145419338D01*
X148049629Y-145255406D01*
X147922966Y-145114733D01*
X147769826Y-145003471D01*
X147596898Y-144926478D01*
X147411744Y-144887123D01*
X147411742Y-144887123D01*
X147222450Y-144887123D01*
X147222448Y-144887123D01*
X147037293Y-144926478D01*
X146864365Y-145003471D01*
X146711225Y-145114733D01*
X146584562Y-145255406D01*
X146489916Y-145419338D01*
X146431422Y-145599365D01*
X146411636Y-145787623D01*
X110573300Y-145787623D01*
X110450805Y-145634019D01*
X110431532Y-145616136D01*
X110258485Y-145455571D01*
X110205341Y-145419338D01*
X110041704Y-145307772D01*
X109805323Y-145193937D01*
X109554615Y-145116604D01*
X109295182Y-145077500D01*
X109032818Y-145077500D01*
X108773385Y-145116604D01*
X108522677Y-145193937D01*
X108286296Y-145307772D01*
X108245075Y-145335876D01*
X108069514Y-145455571D01*
X107877198Y-145634015D01*
X107713613Y-145839143D01*
X107582431Y-146066358D01*
X107486580Y-146310581D01*
X107428197Y-146566372D01*
X107413500Y-146762501D01*
X107413500Y-148893499D01*
X103914500Y-148893499D01*
X103914500Y-148893494D01*
X103914500Y-146762506D01*
X103899802Y-146566370D01*
X103841420Y-146310584D01*
X103745568Y-146066357D01*
X103614386Y-145839143D01*
X103450805Y-145634019D01*
X103431532Y-145616136D01*
X103258485Y-145455571D01*
X103205341Y-145419338D01*
X103041704Y-145307772D01*
X102805323Y-145193937D01*
X102554615Y-145116604D01*
X102295182Y-145077500D01*
X102032818Y-145077500D01*
X101773385Y-145116604D01*
X101522677Y-145193937D01*
X101286296Y-145307772D01*
X101245075Y-145335876D01*
X101069514Y-145455571D01*
X100877198Y-145634015D01*
X100713613Y-145839143D01*
X100582431Y-146066358D01*
X100486580Y-146310581D01*
X100428197Y-146566372D01*
X100413500Y-146762501D01*
X100413500Y-148893499D01*
X63500500Y-148893499D01*
X63500500Y-146195525D01*
X86772500Y-146195525D01*
X86812131Y-146483862D01*
X86836763Y-146571774D01*
X86890656Y-146764121D01*
X87006611Y-147031075D01*
X87157835Y-147279754D01*
X87341514Y-147505525D01*
X87554224Y-147704183D01*
X87791998Y-147872023D01*
X87792002Y-147872025D01*
X88050421Y-148005927D01*
X88324666Y-148103393D01*
X88609629Y-148162609D01*
X88827327Y-148177500D01*
X88972672Y-148177500D01*
X88972673Y-148177500D01*
X89190371Y-148162609D01*
X89475334Y-148103393D01*
X89749579Y-148005927D01*
X90007998Y-147872025D01*
X90245777Y-147704182D01*
X90458486Y-147505525D01*
X90642165Y-147279754D01*
X90793389Y-147031075D01*
X90909344Y-146764121D01*
X90987868Y-146483864D01*
X91027500Y-146195525D01*
X91027500Y-145904475D01*
X90987868Y-145616136D01*
X90909344Y-145335879D01*
X90793389Y-145068925D01*
X90642165Y-144820246D01*
X90458486Y-144594475D01*
X90245777Y-144395818D01*
X90245775Y-144395816D01*
X90008001Y-144227976D01*
X89749575Y-144094071D01*
X89475333Y-143996606D01*
X89190375Y-143937391D01*
X89016212Y-143925478D01*
X88972673Y-143922500D01*
X88827327Y-143922500D01*
X88791043Y-143924981D01*
X88609624Y-143937391D01*
X88324666Y-143996606D01*
X88050424Y-144094071D01*
X87791998Y-144227976D01*
X87554224Y-144395816D01*
X87341514Y-144594474D01*
X87157834Y-144820247D01*
X87006611Y-145068924D01*
X86890657Y-145335876D01*
X86812131Y-145616137D01*
X86772500Y-145904475D01*
X86772500Y-146195525D01*
X63500500Y-146195525D01*
X63500500Y-144780000D01*
X65904699Y-144780000D01*
X65923865Y-145011299D01*
X65923865Y-145011301D01*
X65923866Y-145011305D01*
X65950532Y-145116604D01*
X65980844Y-145236303D01*
X66061131Y-145419338D01*
X66074076Y-145448849D01*
X66201021Y-145643153D01*
X66358216Y-145813913D01*
X66541374Y-145956470D01*
X66745497Y-146066936D01*
X66855257Y-146104616D01*
X66965015Y-146142297D01*
X66965017Y-146142297D01*
X66965019Y-146142298D01*
X67193951Y-146180500D01*
X67426048Y-146180500D01*
X67426049Y-146180500D01*
X67654981Y-146142298D01*
X67874503Y-146066936D01*
X68078626Y-145956470D01*
X68261784Y-145813913D01*
X68418979Y-145643153D01*
X68545924Y-145448849D01*
X68639157Y-145236300D01*
X68696134Y-145011305D01*
X68715300Y-144780000D01*
X68696134Y-144548695D01*
X68639157Y-144323700D01*
X68545924Y-144111151D01*
X68432401Y-143937391D01*
X68418980Y-143916848D01*
X68412237Y-143909523D01*
X68324195Y-143813884D01*
X68295424Y-143761134D01*
X68294831Y-143701047D01*
X68322558Y-143647737D01*
X68372092Y-143613722D01*
X68452331Y-143583796D01*
X68567546Y-143497546D01*
X68653796Y-143382331D01*
X68704091Y-143247483D01*
X68710500Y-143187873D01*
X68710499Y-141292128D01*
X68704091Y-141232517D01*
X68653796Y-141097669D01*
X68567546Y-140982454D01*
X68550910Y-140970000D01*
X92522019Y-140970000D01*
X92541904Y-141209971D01*
X92541904Y-141209974D01*
X92541905Y-141209976D01*
X92601017Y-141443405D01*
X92697745Y-141663922D01*
X92829449Y-141865510D01*
X92992537Y-142042671D01*
X93182561Y-142190572D01*
X93394336Y-142305179D01*
X93622087Y-142383366D01*
X93859601Y-142423000D01*
X94100399Y-142423000D01*
X94337913Y-142383366D01*
X94565664Y-142305179D01*
X94777439Y-142190572D01*
X94967463Y-142042671D01*
X95130551Y-141865510D01*
X95262255Y-141663922D01*
X95358983Y-141443405D01*
X95418095Y-141209976D01*
X95437980Y-140970000D01*
X95418095Y-140730024D01*
X95358983Y-140496595D01*
X95262255Y-140276078D01*
X95130551Y-140074490D01*
X94967463Y-139897329D01*
X94777439Y-139749428D01*
X94565664Y-139634821D01*
X94565660Y-139634819D01*
X94565659Y-139634819D01*
X94337915Y-139556634D01*
X94100399Y-139517000D01*
X93859601Y-139517000D01*
X93622084Y-139556634D01*
X93394340Y-139634819D01*
X93182559Y-139749429D01*
X92992536Y-139897329D01*
X92829448Y-140074491D01*
X92697745Y-140276077D01*
X92601017Y-140496593D01*
X92541904Y-140730028D01*
X92522019Y-140970000D01*
X68550910Y-140970000D01*
X68452331Y-140896204D01*
X68317483Y-140845909D01*
X68257873Y-140839500D01*
X68257869Y-140839500D01*
X66362130Y-140839500D01*
X66302515Y-140845909D01*
X66167669Y-140896204D01*
X66052454Y-140982454D01*
X65966204Y-141097668D01*
X65915909Y-141232516D01*
X65909500Y-141292130D01*
X65909500Y-143187869D01*
X65915909Y-143247483D01*
X65966204Y-143382331D01*
X66052454Y-143497546D01*
X66167669Y-143583796D01*
X66247905Y-143613722D01*
X66297441Y-143647737D01*
X66325168Y-143701047D01*
X66324575Y-143761134D01*
X66295802Y-143813887D01*
X66201020Y-143916848D01*
X66074076Y-144111150D01*
X65980844Y-144323696D01*
X65923865Y-144548700D01*
X65904699Y-144780000D01*
X63500500Y-144780000D01*
X63500500Y-132155372D01*
X67115723Y-132155372D01*
X67145881Y-132455160D01*
X67215731Y-132748262D01*
X67324021Y-133029432D01*
X67468824Y-133293664D01*
X67468825Y-133293665D01*
X67647554Y-133536238D01*
X67857020Y-133752824D01*
X68093485Y-133939558D01*
X68352730Y-134093109D01*
X68630128Y-134210736D01*
X68630129Y-134210736D01*
X68630131Y-134210737D01*
X68694179Y-134228281D01*
X68920729Y-134290340D01*
X69219347Y-134330500D01*
X72945244Y-134330500D01*
X72945246Y-134330500D01*
X73170635Y-134315412D01*
X73293994Y-134290338D01*
X73465903Y-134255396D01*
X73750537Y-134156560D01*
X74019459Y-134020668D01*
X74132957Y-133942756D01*
X149778139Y-133942756D01*
X149797925Y-134131013D01*
X149856419Y-134311040D01*
X149957582Y-134486259D01*
X149956375Y-134486955D01*
X149972362Y-134514649D01*
X149977750Y-134565927D01*
X149961817Y-134614963D01*
X149918406Y-134690152D01*
X149859912Y-134870179D01*
X149840126Y-135058436D01*
X149859912Y-135246694D01*
X149918406Y-135426721D01*
X150013052Y-135590653D01*
X150139715Y-135731326D01*
X150292855Y-135842588D01*
X150465783Y-135919581D01*
X150650938Y-135958937D01*
X150650940Y-135958937D01*
X150840232Y-135958937D01*
X150840234Y-135958937D01*
X150963669Y-135932699D01*
X151025389Y-135919581D01*
X151198316Y-135842588D01*
X151351457Y-135731325D01*
X151478119Y-135590653D01*
X151572765Y-135426721D01*
X151631260Y-135246693D01*
X151651046Y-135058437D01*
X151631260Y-134870181D01*
X151572765Y-134690153D01*
X151572765Y-134690152D01*
X151471603Y-134514934D01*
X151472809Y-134514237D01*
X151456822Y-134486543D01*
X151451434Y-134435265D01*
X151467365Y-134386231D01*
X151510778Y-134311040D01*
X151569273Y-134131012D01*
X151589059Y-133942756D01*
X151569273Y-133754500D01*
X151510778Y-133574472D01*
X151510778Y-133574471D01*
X151416132Y-133410539D01*
X151289469Y-133269866D01*
X151136329Y-133158604D01*
X150963401Y-133081611D01*
X150778247Y-133042256D01*
X150778245Y-133042256D01*
X150588953Y-133042256D01*
X150588951Y-133042256D01*
X150403796Y-133081611D01*
X150230868Y-133158604D01*
X150077728Y-133269866D01*
X149951065Y-133410539D01*
X149856419Y-133574471D01*
X149797925Y-133754498D01*
X149778139Y-133942756D01*
X74132957Y-133942756D01*
X74267869Y-133850144D01*
X74491333Y-133648032D01*
X74685865Y-133417939D01*
X74847993Y-133163970D01*
X74974823Y-132890658D01*
X75064093Y-132602879D01*
X75114209Y-132305770D01*
X75124277Y-132004631D01*
X75094118Y-131704838D01*
X75024269Y-131411739D01*
X74969425Y-131269339D01*
X74915978Y-131130567D01*
X74771175Y-130866335D01*
X74626932Y-130670567D01*
X74592446Y-130623762D01*
X74382980Y-130407176D01*
X74347477Y-130379140D01*
X74146514Y-130220441D01*
X73997624Y-130132254D01*
X73887270Y-130066891D01*
X73697676Y-129986496D01*
X73609868Y-129949262D01*
X73319275Y-129869661D01*
X73319274Y-129869660D01*
X73319271Y-129869660D01*
X73020653Y-129829500D01*
X69294756Y-129829500D01*
X69294754Y-129829500D01*
X69069364Y-129844587D01*
X68774098Y-129904603D01*
X68489459Y-130003441D01*
X68220546Y-130139328D01*
X67972127Y-130309858D01*
X67748668Y-130511966D01*
X67554135Y-130742061D01*
X67392005Y-130996032D01*
X67265178Y-131269339D01*
X67175907Y-131557120D01*
X67125791Y-131854230D01*
X67115723Y-132155372D01*
X63500500Y-132155372D01*
X63500500Y-129540000D01*
X74444531Y-129540000D01*
X74464364Y-129766689D01*
X74523261Y-129986497D01*
X74619432Y-130192735D01*
X74749953Y-130379140D01*
X74910859Y-130540046D01*
X75097264Y-130670567D01*
X75097265Y-130670567D01*
X75097266Y-130670568D01*
X75303504Y-130766739D01*
X75523308Y-130825635D01*
X75608261Y-130833067D01*
X75693214Y-130840500D01*
X75693216Y-130840500D01*
X76706784Y-130840500D01*
X76706786Y-130840500D01*
X76774747Y-130834553D01*
X76876692Y-130825635D01*
X77096496Y-130766739D01*
X77302734Y-130670568D01*
X77319022Y-130659163D01*
X127446823Y-130659163D01*
X127467462Y-130842334D01*
X127528344Y-131016326D01*
X127626416Y-131172407D01*
X127756755Y-131302746D01*
X127756757Y-131302747D01*
X127756758Y-131302748D01*
X127912837Y-131400819D01*
X128086826Y-131461700D01*
X128270000Y-131482339D01*
X128453174Y-131461700D01*
X128627163Y-131400819D01*
X128756430Y-131319594D01*
X128808516Y-131301369D01*
X128863355Y-131307547D01*
X128910079Y-131336906D01*
X129026758Y-131453585D01*
X129182837Y-131551656D01*
X129356826Y-131612537D01*
X129540000Y-131633176D01*
X129723174Y-131612537D01*
X129897163Y-131551656D01*
X130053242Y-131453585D01*
X130183585Y-131323242D01*
X130281656Y-131167163D01*
X130342537Y-130993174D01*
X130363176Y-130810000D01*
X130358301Y-130766738D01*
X130355521Y-130742061D01*
X130342537Y-130626826D01*
X130281656Y-130452837D01*
X130183585Y-130296758D01*
X130183584Y-130296757D01*
X130183583Y-130296755D01*
X130053244Y-130166416D01*
X129897163Y-130068344D01*
X129723171Y-130007462D01*
X129540000Y-129986823D01*
X129356828Y-130007462D01*
X129182836Y-130068344D01*
X129053571Y-130149567D01*
X129001482Y-130167793D01*
X128946644Y-130161614D01*
X128899919Y-130132255D01*
X128783242Y-130015578D01*
X128783241Y-130015577D01*
X128627163Y-129917507D01*
X128453171Y-129856625D01*
X128270000Y-129835986D01*
X128086828Y-129856625D01*
X127912836Y-129917507D01*
X127756755Y-130015579D01*
X127626416Y-130145918D01*
X127528344Y-130301999D01*
X127467462Y-130475991D01*
X127446823Y-130659163D01*
X77319022Y-130659163D01*
X77489139Y-130540047D01*
X77650047Y-130379139D01*
X77780568Y-130192734D01*
X77876739Y-129986496D01*
X77935635Y-129766692D01*
X77955468Y-129540000D01*
X77935635Y-129313308D01*
X77876739Y-129093504D01*
X77780568Y-128887266D01*
X77650047Y-128700861D01*
X77650046Y-128700859D01*
X77489140Y-128539953D01*
X77302733Y-128409431D01*
X77244725Y-128382382D01*
X77192549Y-128336625D01*
X77173129Y-128270000D01*
X77192549Y-128203375D01*
X77244725Y-128157618D01*
X77302734Y-128130568D01*
X77489139Y-128000047D01*
X77650047Y-127839139D01*
X77780568Y-127652734D01*
X77876739Y-127446496D01*
X77935635Y-127226692D01*
X77955468Y-127000000D01*
X77935635Y-126773308D01*
X77876739Y-126553504D01*
X77780568Y-126347266D01*
X77666682Y-126184619D01*
X77650046Y-126160859D01*
X77489140Y-125999953D01*
X77302735Y-125869432D01*
X77096497Y-125773261D01*
X76876689Y-125714364D01*
X76706786Y-125699500D01*
X76706784Y-125699500D01*
X75693216Y-125699500D01*
X75693214Y-125699500D01*
X75523310Y-125714364D01*
X75303502Y-125773261D01*
X75097264Y-125869432D01*
X74910859Y-125999953D01*
X74749953Y-126160859D01*
X74619432Y-126347264D01*
X74523261Y-126553502D01*
X74464364Y-126773310D01*
X74444531Y-126999999D01*
X74464364Y-127226689D01*
X74523261Y-127446497D01*
X74619432Y-127652735D01*
X74749953Y-127839140D01*
X74910859Y-128000046D01*
X75097266Y-128130568D01*
X75155273Y-128157617D01*
X75207449Y-128203373D01*
X75226869Y-128269997D01*
X75207451Y-128336622D01*
X75155276Y-128382380D01*
X75097266Y-128409431D01*
X74910859Y-128539953D01*
X74749953Y-128700859D01*
X74619432Y-128887264D01*
X74523261Y-129093502D01*
X74464364Y-129313310D01*
X74444531Y-129540000D01*
X63500500Y-129540000D01*
X63500500Y-125284118D01*
X157077478Y-125284118D01*
X157097264Y-125472376D01*
X157155758Y-125652403D01*
X157250404Y-125816335D01*
X157377067Y-125957008D01*
X157530207Y-126068270D01*
X157703135Y-126145263D01*
X157888290Y-126184619D01*
X157888292Y-126184619D01*
X158077584Y-126184619D01*
X158077586Y-126184619D01*
X158201021Y-126158381D01*
X158262741Y-126145263D01*
X158435668Y-126068270D01*
X158588809Y-125957007D01*
X158715471Y-125816335D01*
X158810117Y-125652403D01*
X158868612Y-125472375D01*
X158888398Y-125284119D01*
X158868612Y-125095863D01*
X158810117Y-124915835D01*
X158810117Y-124915834D01*
X158715471Y-124751902D01*
X158588808Y-124611229D01*
X158435668Y-124499967D01*
X158262740Y-124422974D01*
X158077586Y-124383619D01*
X158077584Y-124383619D01*
X157888292Y-124383619D01*
X157888290Y-124383619D01*
X157703135Y-124422974D01*
X157530207Y-124499967D01*
X157377067Y-124611229D01*
X157250404Y-124751902D01*
X157155758Y-124915834D01*
X157097264Y-125095861D01*
X157077478Y-125284118D01*
X63500500Y-125284118D01*
X63500500Y-121995372D01*
X67115723Y-121995372D01*
X67145881Y-122295160D01*
X67215731Y-122588262D01*
X67324021Y-122869432D01*
X67397750Y-123003970D01*
X67468825Y-123133665D01*
X67647554Y-123376238D01*
X67857020Y-123592824D01*
X68093485Y-123779558D01*
X68352730Y-123933109D01*
X68630128Y-124050736D01*
X68630129Y-124050736D01*
X68630131Y-124050737D01*
X68694179Y-124068281D01*
X68920729Y-124130340D01*
X69219347Y-124170500D01*
X72945244Y-124170500D01*
X72945246Y-124170500D01*
X73170635Y-124155412D01*
X73293994Y-124130338D01*
X73465903Y-124095396D01*
X73750537Y-123996560D01*
X74019459Y-123860668D01*
X74267869Y-123690144D01*
X74491333Y-123488032D01*
X74685865Y-123257939D01*
X74847993Y-123003970D01*
X74974823Y-122730658D01*
X75064093Y-122442879D01*
X75114209Y-122145770D01*
X75124277Y-121844631D01*
X75094335Y-121547000D01*
X160690842Y-121547000D01*
X160710628Y-121735257D01*
X160769122Y-121915284D01*
X160863768Y-122079216D01*
X160990431Y-122219889D01*
X161143571Y-122331151D01*
X161316499Y-122408144D01*
X161501654Y-122447500D01*
X161501656Y-122447500D01*
X161690948Y-122447500D01*
X161690950Y-122447500D01*
X161814385Y-122421262D01*
X161876105Y-122408144D01*
X162049032Y-122331151D01*
X162202173Y-122219888D01*
X162328835Y-122079216D01*
X162423481Y-121915284D01*
X162481976Y-121735256D01*
X162501762Y-121547000D01*
X162481976Y-121358744D01*
X162423481Y-121178716D01*
X162423481Y-121178715D01*
X162328835Y-121014783D01*
X162202172Y-120874110D01*
X162049032Y-120762848D01*
X161876104Y-120685855D01*
X161690950Y-120646500D01*
X161690948Y-120646500D01*
X161501656Y-120646500D01*
X161501654Y-120646500D01*
X161316499Y-120685855D01*
X161143571Y-120762848D01*
X160990431Y-120874110D01*
X160863768Y-121014783D01*
X160769122Y-121178715D01*
X160710628Y-121358742D01*
X160690842Y-121547000D01*
X75094335Y-121547000D01*
X75094118Y-121544838D01*
X75024269Y-121251739D01*
X74969425Y-121109339D01*
X74915978Y-120970567D01*
X74771175Y-120706335D01*
X74592445Y-120463761D01*
X74382979Y-120247175D01*
X74146514Y-120060441D01*
X74009568Y-119979328D01*
X73887270Y-119906891D01*
X73705671Y-119829886D01*
X73609868Y-119789262D01*
X73319275Y-119709661D01*
X73319274Y-119709660D01*
X73319271Y-119709660D01*
X73020653Y-119669500D01*
X69294756Y-119669500D01*
X69294754Y-119669500D01*
X69069364Y-119684587D01*
X68774098Y-119744603D01*
X68489459Y-119843441D01*
X68220546Y-119979328D01*
X67972127Y-120149858D01*
X67748668Y-120351966D01*
X67554135Y-120582061D01*
X67392005Y-120836032D01*
X67265178Y-121109339D01*
X67187812Y-121358744D01*
X67175907Y-121397121D01*
X67125791Y-121694230D01*
X67118401Y-121915284D01*
X67115723Y-121995372D01*
X63500500Y-121995372D01*
X63500500Y-116781627D01*
X171628784Y-116781627D01*
X171638685Y-117014704D01*
X171687836Y-117242767D01*
X171774819Y-117459231D01*
X171774821Y-117459235D01*
X171897138Y-117657891D01*
X171897139Y-117657892D01*
X172051270Y-117833019D01*
X172232776Y-117979576D01*
X172436448Y-118093354D01*
X172656418Y-118171074D01*
X172886351Y-118210500D01*
X172886353Y-118210500D01*
X173511216Y-118210500D01*
X173511220Y-118210500D01*
X173627374Y-118200613D01*
X173685453Y-118195670D01*
X173835963Y-118156480D01*
X173911220Y-118136885D01*
X174017510Y-118088838D01*
X174123802Y-118040792D01*
X174317088Y-117910153D01*
X174485516Y-117748728D01*
X174624240Y-117561161D01*
X174729270Y-117352847D01*
X174797583Y-117129780D01*
X174827216Y-116898376D01*
X174817314Y-116665293D01*
X174768164Y-116437235D01*
X174681179Y-116220765D01*
X174558862Y-116022109D01*
X174404731Y-115846982D01*
X174365230Y-115815087D01*
X174326897Y-115761807D01*
X174321131Y-115696423D01*
X174349549Y-115637256D01*
X174381994Y-115615657D01*
X174379999Y-115612422D01*
X174527280Y-115521579D01*
X174541656Y-115512712D01*
X174665712Y-115388656D01*
X174757814Y-115239334D01*
X174812999Y-115072797D01*
X174823500Y-114970009D01*
X174823499Y-113629992D01*
X174812999Y-113527203D01*
X174757814Y-113360666D01*
X174685540Y-113243491D01*
X174665711Y-113211342D01*
X174541657Y-113087288D01*
X174392334Y-112995186D01*
X174225797Y-112940000D01*
X174123009Y-112929500D01*
X172332991Y-112929500D01*
X172230203Y-112940000D01*
X172063665Y-112995186D01*
X171914342Y-113087288D01*
X171790288Y-113211342D01*
X171698186Y-113360665D01*
X171643000Y-113527202D01*
X171632500Y-113629990D01*
X171632500Y-114970008D01*
X171643000Y-115072796D01*
X171698186Y-115239334D01*
X171790288Y-115388657D01*
X171914342Y-115512711D01*
X172076001Y-115612422D01*
X172074186Y-115615364D01*
X172104952Y-115635396D01*
X172134041Y-115691369D01*
X172131829Y-115754410D01*
X172098888Y-115808206D01*
X171970483Y-115931271D01*
X171831760Y-116118838D01*
X171726730Y-116327152D01*
X171658417Y-116550219D01*
X171628784Y-116781627D01*
X63500500Y-116781627D01*
X63500500Y-114808000D01*
X94598540Y-114808000D01*
X94618326Y-114996257D01*
X94676820Y-115176284D01*
X94771466Y-115340216D01*
X94898129Y-115480889D01*
X95051269Y-115592151D01*
X95224197Y-115669144D01*
X95409352Y-115708500D01*
X95409354Y-115708500D01*
X95598646Y-115708500D01*
X95598648Y-115708500D01*
X95722084Y-115682262D01*
X95783803Y-115669144D01*
X95956730Y-115592151D01*
X95956729Y-115592151D01*
X96109870Y-115480889D01*
X96236533Y-115340216D01*
X96331179Y-115176284D01*
X96338019Y-115155233D01*
X96389674Y-114996256D01*
X96409460Y-114808000D01*
X97138540Y-114808000D01*
X97158326Y-114996257D01*
X97216820Y-115176284D01*
X97311466Y-115340216D01*
X97438129Y-115480889D01*
X97591269Y-115592151D01*
X97764197Y-115669144D01*
X97949352Y-115708500D01*
X97949354Y-115708500D01*
X98138646Y-115708500D01*
X98138648Y-115708500D01*
X98262084Y-115682262D01*
X98323803Y-115669144D01*
X98496730Y-115592151D01*
X98496729Y-115592151D01*
X98649870Y-115480889D01*
X98776533Y-115340216D01*
X98871179Y-115176284D01*
X98878019Y-115155233D01*
X98929674Y-114996256D01*
X98949460Y-114808000D01*
X100186540Y-114808000D01*
X100206326Y-114996257D01*
X100264820Y-115176284D01*
X100359466Y-115340216D01*
X100486129Y-115480889D01*
X100639269Y-115592151D01*
X100812197Y-115669144D01*
X100997352Y-115708500D01*
X100997354Y-115708500D01*
X101186646Y-115708500D01*
X101186648Y-115708500D01*
X101310084Y-115682262D01*
X101371803Y-115669144D01*
X101544730Y-115592151D01*
X101544729Y-115592151D01*
X101697870Y-115480889D01*
X101824533Y-115340216D01*
X101919179Y-115176284D01*
X101926019Y-115155233D01*
X101977674Y-114996256D01*
X101997460Y-114808000D01*
X102726540Y-114808000D01*
X102746326Y-114996257D01*
X102804820Y-115176284D01*
X102899466Y-115340216D01*
X103026129Y-115480889D01*
X103179269Y-115592151D01*
X103352197Y-115669144D01*
X103537352Y-115708500D01*
X103537354Y-115708500D01*
X103726646Y-115708500D01*
X103726648Y-115708500D01*
X103850084Y-115682262D01*
X103911803Y-115669144D01*
X104084730Y-115592151D01*
X104084729Y-115592151D01*
X104237870Y-115480889D01*
X104364533Y-115340216D01*
X104365579Y-115338405D01*
X139055782Y-115338405D01*
X139076421Y-115521576D01*
X139137303Y-115695568D01*
X139235375Y-115851649D01*
X139365714Y-115981988D01*
X139365716Y-115981989D01*
X139365717Y-115981990D01*
X139521796Y-116080061D01*
X139695785Y-116140942D01*
X139878959Y-116161581D01*
X140062133Y-116140942D01*
X140236122Y-116080061D01*
X140392201Y-115981990D01*
X140522544Y-115851647D01*
X140620615Y-115695568D01*
X140681496Y-115521579D01*
X140702135Y-115338405D01*
X140681496Y-115155231D01*
X140620615Y-114981242D01*
X140522544Y-114825163D01*
X140522543Y-114825162D01*
X140522542Y-114825160D01*
X140392203Y-114694821D01*
X140236122Y-114596749D01*
X140062130Y-114535867D01*
X139878958Y-114515228D01*
X139695787Y-114535867D01*
X139521795Y-114596749D01*
X139365714Y-114694821D01*
X139235375Y-114825160D01*
X139137303Y-114981241D01*
X139076421Y-115155233D01*
X139055782Y-115338405D01*
X104365579Y-115338405D01*
X104459179Y-115176284D01*
X104466019Y-115155233D01*
X104517674Y-114996256D01*
X104537460Y-114808000D01*
X104517674Y-114619744D01*
X104483715Y-114515229D01*
X104459179Y-114439715D01*
X104364533Y-114275783D01*
X104237870Y-114135110D01*
X104084730Y-114023848D01*
X103911802Y-113946855D01*
X103726648Y-113907500D01*
X103726646Y-113907500D01*
X103537354Y-113907500D01*
X103537352Y-113907500D01*
X103352197Y-113946855D01*
X103179269Y-114023848D01*
X103026129Y-114135110D01*
X102899466Y-114275783D01*
X102804820Y-114439715D01*
X102746326Y-114619742D01*
X102726540Y-114808000D01*
X101997460Y-114808000D01*
X101977674Y-114619744D01*
X101943715Y-114515229D01*
X101919179Y-114439715D01*
X101824533Y-114275783D01*
X101697870Y-114135110D01*
X101544730Y-114023848D01*
X101371802Y-113946855D01*
X101186648Y-113907500D01*
X101186646Y-113907500D01*
X100997354Y-113907500D01*
X100997352Y-113907500D01*
X100812197Y-113946855D01*
X100639269Y-114023848D01*
X100486129Y-114135110D01*
X100359466Y-114275783D01*
X100264820Y-114439715D01*
X100206326Y-114619742D01*
X100186540Y-114808000D01*
X98949460Y-114808000D01*
X98929674Y-114619744D01*
X98895715Y-114515229D01*
X98871179Y-114439715D01*
X98776533Y-114275783D01*
X98649870Y-114135110D01*
X98496730Y-114023848D01*
X98323802Y-113946855D01*
X98138648Y-113907500D01*
X98138646Y-113907500D01*
X97949354Y-113907500D01*
X97949352Y-113907500D01*
X97764197Y-113946855D01*
X97591269Y-114023848D01*
X97438129Y-114135110D01*
X97311466Y-114275783D01*
X97216820Y-114439715D01*
X97158326Y-114619742D01*
X97138540Y-114808000D01*
X96409460Y-114808000D01*
X96389674Y-114619744D01*
X96355715Y-114515229D01*
X96331179Y-114439715D01*
X96236533Y-114275783D01*
X96109870Y-114135110D01*
X95956730Y-114023848D01*
X95783802Y-113946855D01*
X95598648Y-113907500D01*
X95598646Y-113907500D01*
X95409354Y-113907500D01*
X95409352Y-113907500D01*
X95224197Y-113946855D01*
X95051269Y-114023848D01*
X94898129Y-114135110D01*
X94771466Y-114275783D01*
X94676820Y-114439715D01*
X94618326Y-114619742D01*
X94598540Y-114808000D01*
X63500500Y-114808000D01*
X63500500Y-112776000D01*
X98662540Y-112776000D01*
X98682326Y-112964257D01*
X98740820Y-113144284D01*
X98835466Y-113308216D01*
X98962129Y-113448889D01*
X99115269Y-113560151D01*
X99288197Y-113637144D01*
X99473352Y-113676500D01*
X99473354Y-113676500D01*
X99662646Y-113676500D01*
X99662648Y-113676500D01*
X99786084Y-113650262D01*
X99847803Y-113637144D01*
X100020730Y-113560151D01*
X100173871Y-113448888D01*
X100300533Y-113308216D01*
X100395179Y-113144284D01*
X100453674Y-112964256D01*
X100460679Y-112897598D01*
X100481199Y-112841222D01*
X100525785Y-112801077D01*
X100584000Y-112786562D01*
X100642215Y-112801077D01*
X100686801Y-112841222D01*
X100707320Y-112897598D01*
X100710673Y-112929500D01*
X100714326Y-112964257D01*
X100772820Y-113144284D01*
X100867466Y-113308216D01*
X100994129Y-113448889D01*
X101147269Y-113560151D01*
X101320197Y-113637144D01*
X101505352Y-113676500D01*
X101505354Y-113676500D01*
X101694646Y-113676500D01*
X101694648Y-113676500D01*
X101818084Y-113650262D01*
X101879803Y-113637144D01*
X102052730Y-113560151D01*
X102205871Y-113448888D01*
X102332533Y-113308216D01*
X102427179Y-113144284D01*
X102485674Y-112964256D01*
X102505460Y-112776000D01*
X102485674Y-112587744D01*
X102430109Y-112416733D01*
X102427179Y-112407715D01*
X102332533Y-112243783D01*
X102205870Y-112103110D01*
X102052730Y-111991848D01*
X101879803Y-111914855D01*
X101721887Y-111881290D01*
X101662784Y-111850392D01*
X101628236Y-111793346D01*
X101628236Y-111726654D01*
X101662784Y-111669608D01*
X101721887Y-111638710D01*
X101879803Y-111605144D01*
X102052730Y-111528151D01*
X102205870Y-111416889D01*
X102332533Y-111276216D01*
X102427179Y-111112284D01*
X102435358Y-111087112D01*
X102485674Y-110932256D01*
X102505460Y-110744000D01*
X102485674Y-110555744D01*
X102427179Y-110375716D01*
X102427179Y-110375715D01*
X102332533Y-110211783D01*
X102205870Y-110071110D01*
X102052730Y-109959848D01*
X101879802Y-109882855D01*
X101694648Y-109843500D01*
X101694646Y-109843500D01*
X101505354Y-109843500D01*
X101505352Y-109843500D01*
X101320197Y-109882855D01*
X101147269Y-109959848D01*
X100994129Y-110071110D01*
X100867466Y-110211783D01*
X100772820Y-110375715D01*
X100714326Y-110555742D01*
X100694540Y-110744000D01*
X100714326Y-110932257D01*
X100772820Y-111112284D01*
X100867466Y-111276216D01*
X100994129Y-111416889D01*
X101147269Y-111528151D01*
X101320197Y-111605144D01*
X101478112Y-111638710D01*
X101537215Y-111669608D01*
X101571763Y-111726654D01*
X101571763Y-111793346D01*
X101537215Y-111850392D01*
X101478112Y-111881290D01*
X101320197Y-111914855D01*
X101147269Y-111991848D01*
X100994129Y-112103110D01*
X100867466Y-112243783D01*
X100772820Y-112407715D01*
X100714326Y-112587742D01*
X100714325Y-112587744D01*
X100714326Y-112587744D01*
X100707320Y-112654401D01*
X100686801Y-112710777D01*
X100642214Y-112750923D01*
X100584000Y-112765437D01*
X100525786Y-112750923D01*
X100481199Y-112710777D01*
X100460679Y-112654401D01*
X100453674Y-112587744D01*
X100398109Y-112416733D01*
X100395179Y-112407715D01*
X100300533Y-112243783D01*
X100173870Y-112103110D01*
X100020730Y-111991848D01*
X99847802Y-111914855D01*
X99662648Y-111875500D01*
X99662646Y-111875500D01*
X99473354Y-111875500D01*
X99473352Y-111875500D01*
X99288197Y-111914855D01*
X99115269Y-111991848D01*
X98962129Y-112103110D01*
X98835466Y-112243783D01*
X98740820Y-112407715D01*
X98682326Y-112587742D01*
X98662540Y-112776000D01*
X63500500Y-112776000D01*
X63500500Y-111759999D01*
X96122540Y-111759999D01*
X96142326Y-111948257D01*
X96200820Y-112128284D01*
X96295466Y-112292216D01*
X96422129Y-112432889D01*
X96575269Y-112544151D01*
X96748197Y-112621144D01*
X96933352Y-112660500D01*
X96933354Y-112660500D01*
X97122646Y-112660500D01*
X97122648Y-112660500D01*
X97246083Y-112634262D01*
X97307803Y-112621144D01*
X97480730Y-112544151D01*
X97633871Y-112432888D01*
X97760533Y-112292216D01*
X97855179Y-112128284D01*
X97913674Y-111948256D01*
X97933460Y-111760000D01*
X97913674Y-111571744D01*
X97863358Y-111416888D01*
X97855179Y-111391715D01*
X97760533Y-111227783D01*
X97633870Y-111087110D01*
X97480730Y-110975848D01*
X97307802Y-110898855D01*
X97122648Y-110859500D01*
X97122646Y-110859500D01*
X96933354Y-110859500D01*
X96933352Y-110859500D01*
X96748197Y-110898855D01*
X96575269Y-110975848D01*
X96422129Y-111087110D01*
X96295466Y-111227783D01*
X96200820Y-111391715D01*
X96142326Y-111571742D01*
X96122540Y-111759999D01*
X63500500Y-111759999D01*
X63500500Y-110235999D01*
X94598540Y-110235999D01*
X94618326Y-110424257D01*
X94676820Y-110604284D01*
X94771466Y-110768216D01*
X94898129Y-110908889D01*
X95051269Y-111020151D01*
X95224197Y-111097144D01*
X95409352Y-111136500D01*
X95409354Y-111136500D01*
X95598646Y-111136500D01*
X95598648Y-111136500D01*
X95722083Y-111110262D01*
X95783803Y-111097144D01*
X95956730Y-111020151D01*
X96109871Y-110908888D01*
X96236533Y-110768216D01*
X96331179Y-110604284D01*
X96389674Y-110424256D01*
X96409460Y-110236000D01*
X96409460Y-110235999D01*
X98662540Y-110235999D01*
X98682326Y-110424257D01*
X98740820Y-110604284D01*
X98835466Y-110768216D01*
X98962129Y-110908889D01*
X99115269Y-111020151D01*
X99288197Y-111097144D01*
X99473352Y-111136500D01*
X99473354Y-111136500D01*
X99662646Y-111136500D01*
X99662648Y-111136500D01*
X99786083Y-111110262D01*
X99847803Y-111097144D01*
X100020730Y-111020151D01*
X100173871Y-110908888D01*
X100300533Y-110768216D01*
X100395179Y-110604284D01*
X100453674Y-110424256D01*
X100473460Y-110236000D01*
X100453674Y-110047744D01*
X100423332Y-109954363D01*
X100395179Y-109867715D01*
X100300533Y-109703783D01*
X100173870Y-109563110D01*
X100020730Y-109451848D01*
X99847802Y-109374855D01*
X99662648Y-109335500D01*
X99662646Y-109335500D01*
X99473354Y-109335500D01*
X99473352Y-109335500D01*
X99288197Y-109374855D01*
X99115269Y-109451848D01*
X98962129Y-109563110D01*
X98835466Y-109703783D01*
X98740820Y-109867715D01*
X98682326Y-110047742D01*
X98662540Y-110235999D01*
X96409460Y-110235999D01*
X96389674Y-110047744D01*
X96359332Y-109954363D01*
X96331179Y-109867715D01*
X96236533Y-109703783D01*
X96109870Y-109563110D01*
X95956730Y-109451848D01*
X95783802Y-109374855D01*
X95598648Y-109335500D01*
X95598646Y-109335500D01*
X95409354Y-109335500D01*
X95409352Y-109335500D01*
X95224197Y-109374855D01*
X95051269Y-109451848D01*
X94898129Y-109563110D01*
X94771466Y-109703783D01*
X94676820Y-109867715D01*
X94618326Y-110047742D01*
X94598540Y-110235999D01*
X63500500Y-110235999D01*
X63500500Y-106755372D01*
X67115723Y-106755372D01*
X67145881Y-107055160D01*
X67215731Y-107348262D01*
X67324021Y-107629432D01*
X67468824Y-107893664D01*
X67575991Y-108039112D01*
X67647554Y-108136238D01*
X67857020Y-108352824D01*
X68093485Y-108539558D01*
X68352730Y-108693109D01*
X68630128Y-108810736D01*
X68630129Y-108810736D01*
X68630131Y-108810737D01*
X68694179Y-108828281D01*
X68920729Y-108890340D01*
X69219347Y-108930500D01*
X72945244Y-108930500D01*
X72945246Y-108930500D01*
X73170635Y-108915412D01*
X73293994Y-108890338D01*
X73465903Y-108855396D01*
X73750537Y-108756560D01*
X73838719Y-108712000D01*
X96122540Y-108712000D01*
X96142326Y-108900257D01*
X96200820Y-109080284D01*
X96295466Y-109244216D01*
X96422129Y-109384889D01*
X96575269Y-109496151D01*
X96748197Y-109573144D01*
X96933352Y-109612500D01*
X96933354Y-109612500D01*
X97122646Y-109612500D01*
X97122648Y-109612500D01*
X97246083Y-109586262D01*
X97307803Y-109573144D01*
X97480730Y-109496151D01*
X97541708Y-109451848D01*
X97633870Y-109384889D01*
X97760533Y-109244216D01*
X97855179Y-109080284D01*
X97908749Y-108915412D01*
X97913674Y-108900256D01*
X97933460Y-108712000D01*
X97913674Y-108523744D01*
X97863358Y-108368888D01*
X97855179Y-108343715D01*
X97760533Y-108179783D01*
X97633870Y-108039110D01*
X97480730Y-107927848D01*
X97307802Y-107850855D01*
X97122648Y-107811500D01*
X97122646Y-107811500D01*
X96933354Y-107811500D01*
X96933352Y-107811500D01*
X96748197Y-107850855D01*
X96575269Y-107927848D01*
X96422129Y-108039110D01*
X96295466Y-108179783D01*
X96200820Y-108343715D01*
X96142326Y-108523742D01*
X96122540Y-108712000D01*
X73838719Y-108712000D01*
X74019459Y-108620668D01*
X74267869Y-108450144D01*
X74491333Y-108248032D01*
X74685865Y-108017939D01*
X74847993Y-107763970D01*
X74974823Y-107490658D01*
X75064093Y-107202879D01*
X75114209Y-106905770D01*
X75124277Y-106604631D01*
X75094118Y-106304838D01*
X75062461Y-106172000D01*
X94598540Y-106172000D01*
X94618326Y-106360257D01*
X94676820Y-106540284D01*
X94771466Y-106704216D01*
X94898129Y-106844889D01*
X95051269Y-106956151D01*
X95224197Y-107033144D01*
X95409352Y-107072500D01*
X95409354Y-107072500D01*
X95598646Y-107072500D01*
X95598648Y-107072500D01*
X95722083Y-107046262D01*
X95783803Y-107033144D01*
X95956730Y-106956151D01*
X96073814Y-106871085D01*
X96109870Y-106844889D01*
X96190475Y-106755369D01*
X96236533Y-106704216D01*
X96331179Y-106540284D01*
X96389674Y-106360256D01*
X96396679Y-106293598D01*
X96417199Y-106237222D01*
X96461785Y-106197077D01*
X96520000Y-106182562D01*
X96578215Y-106197077D01*
X96622801Y-106237222D01*
X96643320Y-106293598D01*
X96645522Y-106314545D01*
X96650326Y-106360257D01*
X96708820Y-106540284D01*
X96803466Y-106704216D01*
X96930129Y-106844889D01*
X97083269Y-106956151D01*
X97256197Y-107033144D01*
X97441352Y-107072500D01*
X97441354Y-107072500D01*
X97630646Y-107072500D01*
X97630648Y-107072500D01*
X97754083Y-107046262D01*
X97815803Y-107033144D01*
X97988730Y-106956151D01*
X98105814Y-106871085D01*
X98141870Y-106844889D01*
X98222475Y-106755369D01*
X98268533Y-106704216D01*
X98363179Y-106540284D01*
X98421674Y-106360256D01*
X98428679Y-106293598D01*
X98449199Y-106237222D01*
X98493785Y-106197077D01*
X98552000Y-106182562D01*
X98610215Y-106197077D01*
X98654801Y-106237222D01*
X98675320Y-106293598D01*
X98677522Y-106314545D01*
X98682326Y-106360257D01*
X98740820Y-106540284D01*
X98835464Y-106704213D01*
X98835467Y-106704216D01*
X98962129Y-106844888D01*
X98962132Y-106844890D01*
X98967657Y-106851026D01*
X98995824Y-106904000D01*
X98995824Y-106963997D01*
X98967657Y-107016971D01*
X98835466Y-107163783D01*
X98740820Y-107327715D01*
X98682326Y-107507742D01*
X98662540Y-107695999D01*
X98682326Y-107884257D01*
X98740820Y-108064284D01*
X98835466Y-108228216D01*
X98962129Y-108368889D01*
X99115269Y-108480151D01*
X99288197Y-108557144D01*
X99473352Y-108596500D01*
X99473354Y-108596500D01*
X99662646Y-108596500D01*
X99662648Y-108596500D01*
X99786084Y-108570262D01*
X99847803Y-108557144D01*
X100020730Y-108480151D01*
X100107013Y-108417463D01*
X100173870Y-108368889D01*
X100300533Y-108228216D01*
X100395179Y-108064284D01*
X100403358Y-108039112D01*
X100453674Y-107884256D01*
X100460679Y-107817598D01*
X100481199Y-107761222D01*
X100525785Y-107721077D01*
X100584000Y-107706562D01*
X100642215Y-107721077D01*
X100686801Y-107761222D01*
X100707320Y-107817598D01*
X100710816Y-107850855D01*
X100714326Y-107884257D01*
X100772820Y-108064284D01*
X100867466Y-108228216D01*
X100994129Y-108368889D01*
X101147269Y-108480151D01*
X101320197Y-108557144D01*
X101505352Y-108596500D01*
X101505354Y-108596500D01*
X101694646Y-108596500D01*
X101694648Y-108596500D01*
X101818084Y-108570262D01*
X101879803Y-108557144D01*
X102052730Y-108480151D01*
X102139013Y-108417463D01*
X102205870Y-108368889D01*
X102332533Y-108228216D01*
X102427179Y-108064284D01*
X102435358Y-108039112D01*
X102485674Y-107884256D01*
X102505460Y-107696000D01*
X102485674Y-107507744D01*
X102433855Y-107348261D01*
X102427179Y-107327715D01*
X102332535Y-107163786D01*
X102313219Y-107142334D01*
X102205871Y-107023112D01*
X102205867Y-107023109D01*
X102200342Y-107016973D01*
X102172175Y-106963999D01*
X102172175Y-106904001D01*
X102200342Y-106851027D01*
X102205867Y-106844890D01*
X102205871Y-106844888D01*
X102332533Y-106704216D01*
X102340131Y-106691057D01*
X102427179Y-106540284D01*
X102439358Y-106502800D01*
X102485674Y-106360256D01*
X102492679Y-106293598D01*
X102513199Y-106237222D01*
X102557785Y-106197077D01*
X102616000Y-106182562D01*
X102674215Y-106197077D01*
X102718801Y-106237222D01*
X102739320Y-106293598D01*
X102741522Y-106314545D01*
X102746326Y-106360257D01*
X102804820Y-106540284D01*
X102899466Y-106704216D01*
X103026129Y-106844889D01*
X103179269Y-106956151D01*
X103352197Y-107033144D01*
X103510112Y-107066710D01*
X103569215Y-107097608D01*
X103603763Y-107154654D01*
X103603763Y-107221346D01*
X103569215Y-107278392D01*
X103510112Y-107309290D01*
X103352197Y-107342855D01*
X103179269Y-107419848D01*
X103026129Y-107531110D01*
X102899466Y-107671783D01*
X102804820Y-107835715D01*
X102746326Y-108015742D01*
X102726540Y-108204000D01*
X102746326Y-108392257D01*
X102804820Y-108572284D01*
X102899466Y-108736216D01*
X103026129Y-108876889D01*
X103179269Y-108988151D01*
X103352197Y-109065144D01*
X103510112Y-109098710D01*
X103569215Y-109129608D01*
X103603763Y-109186654D01*
X103603763Y-109253346D01*
X103569215Y-109310392D01*
X103510112Y-109341290D01*
X103352197Y-109374855D01*
X103179269Y-109451848D01*
X103026129Y-109563110D01*
X102899466Y-109703783D01*
X102804820Y-109867715D01*
X102746326Y-110047742D01*
X102726540Y-110235999D01*
X102746326Y-110424257D01*
X102804820Y-110604284D01*
X102899466Y-110768216D01*
X103026129Y-110908889D01*
X103179269Y-111020151D01*
X103352197Y-111097144D01*
X103510112Y-111130710D01*
X103569215Y-111161608D01*
X103603763Y-111218654D01*
X103603763Y-111285346D01*
X103569215Y-111342392D01*
X103510112Y-111373290D01*
X103352197Y-111406855D01*
X103179269Y-111483848D01*
X103026129Y-111595110D01*
X102899466Y-111735783D01*
X102804820Y-111899715D01*
X102746326Y-112079742D01*
X102726540Y-112267999D01*
X102746326Y-112456257D01*
X102804820Y-112636284D01*
X102899466Y-112800216D01*
X103026129Y-112940889D01*
X103179269Y-113052151D01*
X103352197Y-113129144D01*
X103537352Y-113168500D01*
X103537354Y-113168500D01*
X103726646Y-113168500D01*
X103726648Y-113168500D01*
X103850083Y-113142262D01*
X103911803Y-113129144D01*
X104066391Y-113060316D01*
X147303623Y-113060316D01*
X147324262Y-113243488D01*
X147385144Y-113417480D01*
X147483216Y-113573561D01*
X147613555Y-113703900D01*
X147613557Y-113703901D01*
X147613558Y-113703902D01*
X147769637Y-113801973D01*
X147943626Y-113862854D01*
X148126800Y-113883493D01*
X148309974Y-113862854D01*
X148483963Y-113801973D01*
X148640042Y-113703902D01*
X148770385Y-113573559D01*
X148868456Y-113417480D01*
X148929337Y-113243491D01*
X148949976Y-113060317D01*
X148929337Y-112877143D01*
X148868456Y-112703154D01*
X148770385Y-112547075D01*
X148770384Y-112547074D01*
X148770383Y-112547072D01*
X148640044Y-112416733D01*
X148483963Y-112318661D01*
X148309971Y-112257779D01*
X148126799Y-112237140D01*
X147943628Y-112257779D01*
X147769636Y-112318661D01*
X147613555Y-112416733D01*
X147483216Y-112547072D01*
X147385144Y-112703153D01*
X147324262Y-112877145D01*
X147303623Y-113060316D01*
X104066391Y-113060316D01*
X104084730Y-113052151D01*
X104237871Y-112940888D01*
X104364533Y-112800216D01*
X104459179Y-112636284D01*
X104517674Y-112456256D01*
X104537460Y-112268000D01*
X104517674Y-112079744D01*
X104474951Y-111948256D01*
X104459179Y-111899715D01*
X104364533Y-111735783D01*
X104237870Y-111595110D01*
X104084730Y-111483848D01*
X103911803Y-111406855D01*
X103753887Y-111373290D01*
X103694784Y-111342392D01*
X103660236Y-111285346D01*
X103660236Y-111218654D01*
X103694784Y-111161608D01*
X103753887Y-111130710D01*
X103911803Y-111097144D01*
X104084730Y-111020151D01*
X104237870Y-110908889D01*
X104364533Y-110768216D01*
X104459179Y-110604284D01*
X104474951Y-110555742D01*
X104517674Y-110424256D01*
X104537460Y-110236000D01*
X104517674Y-110047744D01*
X104487332Y-109954363D01*
X104459179Y-109867715D01*
X104364533Y-109703783D01*
X104237870Y-109563110D01*
X104084730Y-109451848D01*
X103911803Y-109374855D01*
X103753887Y-109341290D01*
X103694784Y-109310392D01*
X103660236Y-109253346D01*
X103660236Y-109219999D01*
X133796823Y-109219999D01*
X133817462Y-109403171D01*
X133878344Y-109577163D01*
X133976416Y-109733244D01*
X134106755Y-109863583D01*
X134106757Y-109863584D01*
X134106758Y-109863585D01*
X134262837Y-109961656D01*
X134436826Y-110022537D01*
X134620000Y-110043176D01*
X134803174Y-110022537D01*
X134977163Y-109961656D01*
X135133242Y-109863585D01*
X135263585Y-109733242D01*
X135361656Y-109577163D01*
X135422537Y-109403174D01*
X135443176Y-109220000D01*
X135422537Y-109036826D01*
X135361656Y-108862837D01*
X135263585Y-108706758D01*
X135263584Y-108706757D01*
X135263583Y-108706755D01*
X135133244Y-108576416D01*
X134977163Y-108478344D01*
X134977162Y-108478343D01*
X134803174Y-108417463D01*
X134803173Y-108417462D01*
X134803171Y-108417462D01*
X134619999Y-108396823D01*
X134436828Y-108417462D01*
X134262836Y-108478344D01*
X134106755Y-108576416D01*
X133976416Y-108706755D01*
X133878344Y-108862836D01*
X133817462Y-109036828D01*
X133796823Y-109219999D01*
X103660236Y-109219999D01*
X103660236Y-109186654D01*
X103694784Y-109129608D01*
X103753887Y-109098710D01*
X103911803Y-109065144D01*
X104084730Y-108988151D01*
X104237870Y-108876889D01*
X104250524Y-108862836D01*
X104364533Y-108736216D01*
X104459179Y-108572284D01*
X104517674Y-108392256D01*
X104537460Y-108204000D01*
X104517674Y-108015744D01*
X104474951Y-107884256D01*
X104459179Y-107835715D01*
X104364533Y-107671783D01*
X104237870Y-107531110D01*
X104084730Y-107419848D01*
X103911803Y-107342855D01*
X103753887Y-107309290D01*
X103694784Y-107278392D01*
X103660236Y-107221346D01*
X103660236Y-107154654D01*
X103694784Y-107097608D01*
X103753887Y-107066710D01*
X103911803Y-107033144D01*
X104084730Y-106956151D01*
X104237870Y-106844889D01*
X104318475Y-106755369D01*
X104364533Y-106704216D01*
X104459179Y-106540284D01*
X104471358Y-106502800D01*
X142090242Y-106502800D01*
X142110028Y-106691058D01*
X142168522Y-106871085D01*
X142263168Y-107035017D01*
X142389831Y-107175690D01*
X142542971Y-107286952D01*
X142715899Y-107363945D01*
X142901054Y-107403301D01*
X142901056Y-107403301D01*
X143090348Y-107403301D01*
X143090350Y-107403301D01*
X143213786Y-107377063D01*
X143275505Y-107363945D01*
X143448432Y-107286952D01*
X143601573Y-107175689D01*
X143728235Y-107035017D01*
X143822881Y-106871085D01*
X143881376Y-106691057D01*
X143901162Y-106502801D01*
X143881376Y-106314545D01*
X143857750Y-106241833D01*
X145896299Y-106241833D01*
X145916085Y-106430091D01*
X145974579Y-106610118D01*
X146069225Y-106774050D01*
X146195888Y-106914723D01*
X146349028Y-107025985D01*
X146521956Y-107102978D01*
X146707111Y-107142334D01*
X146707113Y-107142334D01*
X146896405Y-107142334D01*
X146896407Y-107142334D01*
X147019842Y-107116096D01*
X147081562Y-107102978D01*
X147254489Y-107025985D01*
X147407630Y-106914722D01*
X147534292Y-106774050D01*
X147628938Y-106610118D01*
X147687433Y-106430090D01*
X147707219Y-106241834D01*
X147687433Y-106053578D01*
X147628938Y-105873550D01*
X147628938Y-105873549D01*
X147534292Y-105709617D01*
X147407629Y-105568944D01*
X147254489Y-105457682D01*
X147081561Y-105380689D01*
X146896407Y-105341334D01*
X146896405Y-105341334D01*
X146707113Y-105341334D01*
X146707111Y-105341334D01*
X146521956Y-105380689D01*
X146349028Y-105457682D01*
X146195888Y-105568944D01*
X146069225Y-105709617D01*
X145974579Y-105873549D01*
X145916085Y-106053576D01*
X145896299Y-106241833D01*
X143857750Y-106241833D01*
X143822881Y-106134517D01*
X143822881Y-106134516D01*
X143728235Y-105970584D01*
X143601572Y-105829911D01*
X143448432Y-105718649D01*
X143275504Y-105641656D01*
X143090350Y-105602301D01*
X143090348Y-105602301D01*
X142901056Y-105602301D01*
X142901054Y-105602301D01*
X142715899Y-105641656D01*
X142542971Y-105718649D01*
X142389831Y-105829911D01*
X142263168Y-105970584D01*
X142168522Y-106134516D01*
X142110028Y-106314543D01*
X142090242Y-106502800D01*
X104471358Y-106502800D01*
X104517674Y-106360256D01*
X104537460Y-106172000D01*
X104517674Y-105983744D01*
X104467691Y-105829913D01*
X104459179Y-105803715D01*
X104364533Y-105639783D01*
X104237870Y-105499110D01*
X104084730Y-105387848D01*
X103911802Y-105310855D01*
X103726648Y-105271500D01*
X103726646Y-105271500D01*
X103537354Y-105271500D01*
X103537352Y-105271500D01*
X103352197Y-105310855D01*
X103179269Y-105387848D01*
X103026129Y-105499110D01*
X102899466Y-105639783D01*
X102804820Y-105803715D01*
X102746326Y-105983742D01*
X102746325Y-105983744D01*
X102746326Y-105983744D01*
X102739320Y-106050401D01*
X102718801Y-106106777D01*
X102674214Y-106146923D01*
X102616000Y-106161437D01*
X102557786Y-106146923D01*
X102513199Y-106106777D01*
X102492679Y-106050401D01*
X102485674Y-105983744D01*
X102435691Y-105829913D01*
X102427179Y-105803715D01*
X102332533Y-105639783D01*
X102205870Y-105499110D01*
X102052730Y-105387848D01*
X101879802Y-105310855D01*
X101694648Y-105271500D01*
X101694646Y-105271500D01*
X101505354Y-105271500D01*
X101505352Y-105271500D01*
X101320197Y-105310855D01*
X101147269Y-105387848D01*
X100994129Y-105499110D01*
X100867466Y-105639783D01*
X100772820Y-105803715D01*
X100714326Y-105983742D01*
X100714325Y-105983744D01*
X100714326Y-105983744D01*
X100707320Y-106050401D01*
X100686801Y-106106777D01*
X100642214Y-106146923D01*
X100584000Y-106161437D01*
X100525786Y-106146923D01*
X100481199Y-106106777D01*
X100460679Y-106050401D01*
X100453674Y-105983744D01*
X100403691Y-105829913D01*
X100395179Y-105803715D01*
X100300533Y-105639783D01*
X100173870Y-105499110D01*
X100020730Y-105387848D01*
X99847802Y-105310855D01*
X99662648Y-105271500D01*
X99662646Y-105271500D01*
X99473354Y-105271500D01*
X99473352Y-105271500D01*
X99288197Y-105310855D01*
X99115269Y-105387848D01*
X98962129Y-105499110D01*
X98835466Y-105639783D01*
X98740820Y-105803715D01*
X98682326Y-105983742D01*
X98682325Y-105983744D01*
X98682326Y-105983744D01*
X98675320Y-106050401D01*
X98654801Y-106106777D01*
X98610214Y-106146923D01*
X98552000Y-106161437D01*
X98493786Y-106146923D01*
X98449199Y-106106777D01*
X98428679Y-106050401D01*
X98421674Y-105983744D01*
X98371691Y-105829913D01*
X98363179Y-105803715D01*
X98268533Y-105639783D01*
X98141870Y-105499110D01*
X97988730Y-105387848D01*
X97815802Y-105310855D01*
X97630648Y-105271500D01*
X97630646Y-105271500D01*
X97441354Y-105271500D01*
X97441352Y-105271500D01*
X97256197Y-105310855D01*
X97083269Y-105387848D01*
X96930129Y-105499110D01*
X96803466Y-105639783D01*
X96708820Y-105803715D01*
X96650326Y-105983742D01*
X96650325Y-105983744D01*
X96650326Y-105983744D01*
X96643320Y-106050401D01*
X96622801Y-106106777D01*
X96578214Y-106146923D01*
X96520000Y-106161437D01*
X96461786Y-106146923D01*
X96417199Y-106106777D01*
X96396679Y-106050401D01*
X96389674Y-105983744D01*
X96339691Y-105829913D01*
X96331179Y-105803715D01*
X96236533Y-105639783D01*
X96109870Y-105499110D01*
X95956730Y-105387848D01*
X95783802Y-105310855D01*
X95598648Y-105271500D01*
X95598646Y-105271500D01*
X95409354Y-105271500D01*
X95409352Y-105271500D01*
X95224197Y-105310855D01*
X95051269Y-105387848D01*
X94898129Y-105499110D01*
X94771466Y-105639783D01*
X94676820Y-105803715D01*
X94618326Y-105983742D01*
X94598540Y-106172000D01*
X75062461Y-106172000D01*
X75024269Y-106011739D01*
X74994814Y-105935262D01*
X74915978Y-105730567D01*
X74771175Y-105466335D01*
X74656617Y-105310856D01*
X74592446Y-105223762D01*
X74382980Y-105007176D01*
X74259744Y-104909858D01*
X74146514Y-104820441D01*
X73964008Y-104712343D01*
X73887270Y-104666891D01*
X73705671Y-104589886D01*
X73609868Y-104549262D01*
X73319275Y-104469661D01*
X73319274Y-104469660D01*
X73319271Y-104469660D01*
X73020653Y-104429500D01*
X69294756Y-104429500D01*
X69294754Y-104429500D01*
X69069364Y-104444587D01*
X68774098Y-104504603D01*
X68489459Y-104603441D01*
X68220546Y-104739328D01*
X67972127Y-104909858D01*
X67748668Y-105111966D01*
X67554135Y-105342061D01*
X67392005Y-105596032D01*
X67265178Y-105869339D01*
X67175907Y-106157120D01*
X67125791Y-106454230D01*
X67115723Y-106755372D01*
X63500500Y-106755372D01*
X63500500Y-103922803D01*
X141717432Y-103922803D01*
X141735677Y-104108051D01*
X141735677Y-104108053D01*
X141735678Y-104108055D01*
X141789714Y-104286188D01*
X141877464Y-104450357D01*
X141921982Y-104504603D01*
X141995554Y-104594252D01*
X142067502Y-104653297D01*
X142139450Y-104712343D01*
X142303619Y-104800093D01*
X142481752Y-104854129D01*
X142667004Y-104872375D01*
X142852256Y-104854129D01*
X143030389Y-104800093D01*
X143194558Y-104712343D01*
X143338453Y-104594252D01*
X143456544Y-104450357D01*
X143544294Y-104286188D01*
X143598330Y-104108055D01*
X143613294Y-103956127D01*
X147044507Y-103956127D01*
X147065146Y-104139299D01*
X147126028Y-104313291D01*
X147224100Y-104469372D01*
X147354439Y-104599711D01*
X147354441Y-104599712D01*
X147354442Y-104599713D01*
X147510521Y-104697784D01*
X147684510Y-104758665D01*
X147867684Y-104779304D01*
X148050858Y-104758665D01*
X148224847Y-104697784D01*
X148380926Y-104599713D01*
X148511269Y-104469370D01*
X148609340Y-104313291D01*
X148670221Y-104139302D01*
X148690860Y-103956128D01*
X148670221Y-103772954D01*
X148609340Y-103598965D01*
X148511269Y-103442886D01*
X148511268Y-103442885D01*
X148511267Y-103442883D01*
X148380928Y-103312544D01*
X148224847Y-103214472D01*
X148050855Y-103153590D01*
X147867683Y-103132951D01*
X147684512Y-103153590D01*
X147510520Y-103214472D01*
X147354439Y-103312544D01*
X147224100Y-103442883D01*
X147126028Y-103598964D01*
X147065146Y-103772956D01*
X147044507Y-103956127D01*
X143613294Y-103956127D01*
X143616576Y-103922803D01*
X143598330Y-103737551D01*
X143544294Y-103559418D01*
X143456544Y-103395249D01*
X143388669Y-103312543D01*
X143338453Y-103251353D01*
X143250783Y-103179405D01*
X143194558Y-103133263D01*
X143030389Y-103045513D01*
X142852256Y-102991477D01*
X142852254Y-102991476D01*
X142852252Y-102991476D01*
X142667004Y-102973231D01*
X142481755Y-102991476D01*
X142481751Y-102991477D01*
X142481752Y-102991477D01*
X142303619Y-103045513D01*
X142303615Y-103045514D01*
X142303615Y-103045515D01*
X142139451Y-103133262D01*
X141995554Y-103251353D01*
X141877463Y-103395250D01*
X141789716Y-103559414D01*
X141789714Y-103559418D01*
X141777718Y-103598964D01*
X141735677Y-103737554D01*
X141717432Y-103922803D01*
X63500500Y-103922803D01*
X63500500Y-101600000D01*
X74444531Y-101600000D01*
X74464364Y-101826689D01*
X74523261Y-102046497D01*
X74619432Y-102252735D01*
X74749953Y-102439140D01*
X74910859Y-102600046D01*
X75097264Y-102730567D01*
X75097265Y-102730567D01*
X75097266Y-102730568D01*
X75303504Y-102826739D01*
X75523308Y-102885635D01*
X75608261Y-102893067D01*
X75693214Y-102900500D01*
X75693216Y-102900500D01*
X76706784Y-102900500D01*
X76706786Y-102900500D01*
X76774747Y-102894554D01*
X76876692Y-102885635D01*
X77096496Y-102826739D01*
X77302734Y-102730568D01*
X77489139Y-102600047D01*
X77650047Y-102439139D01*
X77780568Y-102252734D01*
X77876739Y-102046496D01*
X77935635Y-101826692D01*
X77955468Y-101600000D01*
X77935635Y-101373308D01*
X77876739Y-101153504D01*
X77780568Y-100947266D01*
X77716224Y-100855373D01*
X77650046Y-100760859D01*
X77489140Y-100599953D01*
X77390913Y-100531174D01*
X143447556Y-100531174D01*
X143468195Y-100714345D01*
X143468195Y-100714347D01*
X143468196Y-100714348D01*
X143517542Y-100855372D01*
X143529077Y-100888337D01*
X143627149Y-101044418D01*
X143757488Y-101174757D01*
X143757490Y-101174758D01*
X143757491Y-101174759D01*
X143913570Y-101272830D01*
X144087559Y-101333711D01*
X144270733Y-101354350D01*
X144453907Y-101333711D01*
X144627896Y-101272830D01*
X144783975Y-101174759D01*
X144914318Y-101044416D01*
X145012389Y-100888337D01*
X145023924Y-100855372D01*
X151459486Y-100855372D01*
X151479272Y-101043630D01*
X151537766Y-101223657D01*
X151632412Y-101387589D01*
X151759075Y-101528262D01*
X151912215Y-101639524D01*
X152085143Y-101716517D01*
X152270298Y-101755873D01*
X152270300Y-101755873D01*
X152459592Y-101755873D01*
X152459594Y-101755873D01*
X152583029Y-101729635D01*
X152644749Y-101716517D01*
X152817676Y-101639524D01*
X152970817Y-101528261D01*
X153097479Y-101387589D01*
X153192125Y-101223657D01*
X153250620Y-101043629D01*
X153270406Y-100855373D01*
X153250620Y-100667117D01*
X153192125Y-100487089D01*
X153192125Y-100487088D01*
X153097479Y-100323156D01*
X152970816Y-100182483D01*
X152817676Y-100071221D01*
X152644748Y-99994228D01*
X152459594Y-99954873D01*
X152459592Y-99954873D01*
X152270300Y-99954873D01*
X152270298Y-99954873D01*
X152085143Y-99994228D01*
X151912215Y-100071221D01*
X151759075Y-100182483D01*
X151632412Y-100323156D01*
X151537766Y-100487088D01*
X151479272Y-100667115D01*
X151459486Y-100855372D01*
X145023924Y-100855372D01*
X145073270Y-100714348D01*
X145093909Y-100531174D01*
X145073270Y-100348000D01*
X145012389Y-100174011D01*
X144914318Y-100017932D01*
X144914317Y-100017931D01*
X144914316Y-100017929D01*
X144783977Y-99887590D01*
X144627896Y-99789518D01*
X144453904Y-99728636D01*
X144270732Y-99707997D01*
X144087561Y-99728636D01*
X143913569Y-99789518D01*
X143757488Y-99887590D01*
X143627149Y-100017929D01*
X143529077Y-100174010D01*
X143468195Y-100348002D01*
X143447556Y-100531174D01*
X77390913Y-100531174D01*
X77302735Y-100469432D01*
X77096497Y-100373261D01*
X76876689Y-100314364D01*
X76706786Y-100299500D01*
X76706784Y-100299500D01*
X75693216Y-100299500D01*
X75693214Y-100299500D01*
X75523310Y-100314364D01*
X75303502Y-100373261D01*
X75097264Y-100469432D01*
X74910859Y-100599953D01*
X74749953Y-100760859D01*
X74619432Y-100947264D01*
X74523261Y-101153502D01*
X74464364Y-101373310D01*
X74444531Y-101600000D01*
X63500500Y-101600000D01*
X63500500Y-96595372D01*
X67115723Y-96595372D01*
X67145881Y-96895160D01*
X67215731Y-97188262D01*
X67324021Y-97469432D01*
X67468824Y-97733664D01*
X67560390Y-97857938D01*
X67647554Y-97976238D01*
X67857020Y-98192824D01*
X68093485Y-98379558D01*
X68352730Y-98533109D01*
X68630128Y-98650736D01*
X68630129Y-98650736D01*
X68630131Y-98650737D01*
X68694179Y-98668281D01*
X68920729Y-98730340D01*
X69219347Y-98770500D01*
X72945244Y-98770500D01*
X72945246Y-98770500D01*
X73170635Y-98755412D01*
X73293994Y-98730338D01*
X73465903Y-98695396D01*
X73750537Y-98596560D01*
X74019459Y-98460668D01*
X74267869Y-98290144D01*
X74491333Y-98088032D01*
X74685865Y-97857939D01*
X74847993Y-97603970D01*
X74974823Y-97330658D01*
X75064093Y-97042879D01*
X75114209Y-96745770D01*
X75124277Y-96444631D01*
X75094118Y-96144838D01*
X75024269Y-95851739D01*
X74969425Y-95709339D01*
X74915978Y-95570567D01*
X74771175Y-95306335D01*
X74592445Y-95063761D01*
X74382979Y-94847175D01*
X74146514Y-94660441D01*
X74009568Y-94579328D01*
X73887270Y-94506891D01*
X73705671Y-94429886D01*
X73609868Y-94389262D01*
X73319275Y-94309661D01*
X73319274Y-94309660D01*
X73319271Y-94309660D01*
X73020653Y-94269500D01*
X69294756Y-94269500D01*
X69294754Y-94269500D01*
X69069364Y-94284587D01*
X68774098Y-94344603D01*
X68489459Y-94443441D01*
X68220546Y-94579328D01*
X67972127Y-94749858D01*
X67748668Y-94951966D01*
X67554135Y-95182061D01*
X67392005Y-95436032D01*
X67265178Y-95709339D01*
X67175907Y-95997120D01*
X67125791Y-96294230D01*
X67115723Y-96595372D01*
X63500500Y-96595372D01*
X63500500Y-81355372D01*
X67115723Y-81355372D01*
X67145881Y-81655160D01*
X67215731Y-81948262D01*
X67324021Y-82229432D01*
X67397750Y-82363970D01*
X67468825Y-82493665D01*
X67647554Y-82736238D01*
X67857020Y-82952824D01*
X68093485Y-83139558D01*
X68352730Y-83293109D01*
X68630128Y-83410736D01*
X68630129Y-83410736D01*
X68630131Y-83410737D01*
X68694179Y-83428281D01*
X68920729Y-83490340D01*
X69219347Y-83530500D01*
X72945244Y-83530500D01*
X72945246Y-83530500D01*
X73170635Y-83515412D01*
X73293994Y-83490338D01*
X73465903Y-83455396D01*
X73750537Y-83356560D01*
X74019459Y-83220668D01*
X74267869Y-83050144D01*
X74491333Y-82848032D01*
X74685865Y-82617939D01*
X74847993Y-82363970D01*
X74974823Y-82090658D01*
X75064093Y-81802879D01*
X75114209Y-81505770D01*
X75124277Y-81204631D01*
X75094118Y-80904838D01*
X75024269Y-80611739D01*
X74962582Y-80451572D01*
X74915978Y-80330567D01*
X74771175Y-80066335D01*
X74592445Y-79823761D01*
X74382979Y-79607175D01*
X74146514Y-79420441D01*
X73971445Y-79316748D01*
X73887270Y-79266891D01*
X73705671Y-79189886D01*
X73609868Y-79149262D01*
X73319275Y-79069661D01*
X73319274Y-79069660D01*
X73319271Y-79069660D01*
X73020653Y-79029500D01*
X69294756Y-79029500D01*
X69294754Y-79029500D01*
X69069364Y-79044587D01*
X68774098Y-79104603D01*
X68489459Y-79203441D01*
X68220546Y-79339328D01*
X67972127Y-79509858D01*
X67748668Y-79711966D01*
X67554135Y-79942061D01*
X67392005Y-80196032D01*
X67265178Y-80469339D01*
X67175907Y-80757120D01*
X67125791Y-81054230D01*
X67115723Y-81355372D01*
X63500500Y-81355372D01*
X63500500Y-76200000D01*
X74444531Y-76200000D01*
X74464364Y-76426689D01*
X74523261Y-76646497D01*
X74619432Y-76852735D01*
X74749953Y-77039140D01*
X74910859Y-77200046D01*
X75097264Y-77330567D01*
X75097265Y-77330567D01*
X75097266Y-77330568D01*
X75303504Y-77426739D01*
X75523308Y-77485635D01*
X75608262Y-77493067D01*
X75693214Y-77500500D01*
X75693216Y-77500500D01*
X76706784Y-77500500D01*
X76706786Y-77500500D01*
X76774747Y-77494553D01*
X76876692Y-77485635D01*
X77096496Y-77426739D01*
X77302734Y-77330568D01*
X77489139Y-77200047D01*
X77650047Y-77039139D01*
X77780568Y-76852734D01*
X77876739Y-76646496D01*
X77935635Y-76426692D01*
X77955468Y-76200000D01*
X77935635Y-75973308D01*
X77876739Y-75753504D01*
X77780568Y-75547266D01*
X77732655Y-75478839D01*
X77650046Y-75360859D01*
X77489140Y-75199953D01*
X77302735Y-75069432D01*
X77096497Y-74973261D01*
X76876689Y-74914364D01*
X76706786Y-74899500D01*
X76706784Y-74899500D01*
X75693216Y-74899500D01*
X75693214Y-74899500D01*
X75523310Y-74914364D01*
X75303502Y-74973261D01*
X75097264Y-75069432D01*
X74910859Y-75199953D01*
X74749953Y-75360859D01*
X74619432Y-75547264D01*
X74523261Y-75753502D01*
X74464364Y-75973310D01*
X74444531Y-76200000D01*
X63500500Y-76200000D01*
X63500500Y-71195372D01*
X67115723Y-71195372D01*
X67145881Y-71495160D01*
X67215731Y-71788262D01*
X67324021Y-72069432D01*
X67468824Y-72333664D01*
X67576498Y-72479800D01*
X67647554Y-72576238D01*
X67857020Y-72792824D01*
X68093485Y-72979558D01*
X68352730Y-73133109D01*
X68630128Y-73250736D01*
X68630129Y-73250736D01*
X68630131Y-73250737D01*
X68673577Y-73262638D01*
X68920729Y-73330340D01*
X69219347Y-73370500D01*
X72945244Y-73370500D01*
X72945246Y-73370500D01*
X73170635Y-73355412D01*
X73293994Y-73330338D01*
X73465903Y-73295396D01*
X73750537Y-73196560D01*
X74019459Y-73060668D01*
X74267869Y-72890144D01*
X74491333Y-72688032D01*
X74685865Y-72457939D01*
X74847993Y-72203970D01*
X74974823Y-71930658D01*
X75064093Y-71642879D01*
X75114209Y-71345770D01*
X75124277Y-71044631D01*
X75094118Y-70744838D01*
X75024269Y-70451739D01*
X74969425Y-70309339D01*
X74915978Y-70170567D01*
X74771175Y-69906335D01*
X74592445Y-69663761D01*
X74382979Y-69447175D01*
X74146514Y-69260441D01*
X73958661Y-69149176D01*
X73887270Y-69106891D01*
X73705671Y-69029886D01*
X73609868Y-68989262D01*
X73319275Y-68909661D01*
X73319274Y-68909660D01*
X73319271Y-68909660D01*
X73020653Y-68869500D01*
X69294756Y-68869500D01*
X69294754Y-68869500D01*
X69069364Y-68884587D01*
X68774098Y-68944603D01*
X68489459Y-69043441D01*
X68220546Y-69179328D01*
X67972127Y-69349858D01*
X67748668Y-69551966D01*
X67554135Y-69782061D01*
X67392005Y-70036032D01*
X67265178Y-70309339D01*
X67175907Y-70597120D01*
X67125791Y-70894230D01*
X67115723Y-71195372D01*
X63500500Y-71195372D01*
X63500500Y-68704000D01*
X63517113Y-68642000D01*
X63562500Y-68596613D01*
X63624500Y-68580000D01*
X84458000Y-68580000D01*
X84520000Y-68596613D01*
X84565387Y-68642000D01*
X84582000Y-68704000D01*
X84582000Y-96266000D01*
X114808000Y-96266000D01*
X114808000Y-97536000D01*
X118110000Y-97536000D01*
X118110000Y-97028000D01*
X140274428Y-97028000D01*
X140276978Y-97053897D01*
X140292673Y-97213248D01*
X140292673Y-97213250D01*
X140292674Y-97213252D01*
X140346710Y-97391385D01*
X140434460Y-97555554D01*
X140474191Y-97603967D01*
X140552550Y-97699449D01*
X140624498Y-97758494D01*
X140696446Y-97817540D01*
X140860615Y-97905290D01*
X141038748Y-97959326D01*
X141224000Y-97977572D01*
X141409252Y-97959326D01*
X141587385Y-97905290D01*
X141751554Y-97817540D01*
X141895449Y-97699449D01*
X142013540Y-97555554D01*
X142101290Y-97391385D01*
X142155326Y-97213252D01*
X142173572Y-97028000D01*
X142155326Y-96842748D01*
X142101290Y-96664615D01*
X142013540Y-96500446D01*
X141954494Y-96428498D01*
X141895449Y-96356550D01*
X141807779Y-96284602D01*
X141751554Y-96238460D01*
X141587385Y-96150710D01*
X141409252Y-96096674D01*
X141409250Y-96096673D01*
X141409248Y-96096673D01*
X141224000Y-96078428D01*
X141038751Y-96096673D01*
X141038747Y-96096674D01*
X141038748Y-96096674D01*
X140860615Y-96150710D01*
X140860611Y-96150711D01*
X140860611Y-96150712D01*
X140696447Y-96238459D01*
X140552550Y-96356550D01*
X140434459Y-96500447D01*
X140383721Y-96595372D01*
X140346710Y-96664615D01*
X140322092Y-96745770D01*
X140292673Y-96842751D01*
X140274428Y-97027999D01*
X140274428Y-97028000D01*
X118110000Y-97028000D01*
X118110000Y-96266000D01*
X134112000Y-96266000D01*
X134155193Y-87503000D01*
X148910428Y-87503000D01*
X148928673Y-87688248D01*
X148928673Y-87688250D01*
X148928674Y-87688252D01*
X148982710Y-87866385D01*
X149070460Y-88030554D01*
X149116602Y-88086779D01*
X149188550Y-88174449D01*
X149260498Y-88233494D01*
X149332446Y-88292540D01*
X149496615Y-88380290D01*
X149674748Y-88434326D01*
X149860000Y-88452572D01*
X150045252Y-88434326D01*
X150223385Y-88380290D01*
X150387554Y-88292540D01*
X150531449Y-88174449D01*
X150561362Y-88138000D01*
X153228428Y-88138000D01*
X153246673Y-88323248D01*
X153246673Y-88323250D01*
X153246674Y-88323252D01*
X153300710Y-88501385D01*
X153388460Y-88665554D01*
X153434602Y-88721779D01*
X153506550Y-88809449D01*
X153578498Y-88868494D01*
X153650446Y-88927540D01*
X153814615Y-89015290D01*
X153992748Y-89069326D01*
X154178000Y-89087572D01*
X154363252Y-89069326D01*
X154541385Y-89015290D01*
X154705554Y-88927540D01*
X154849449Y-88809449D01*
X154967540Y-88665554D01*
X155055290Y-88501385D01*
X155109326Y-88323252D01*
X155127572Y-88138000D01*
X155109326Y-87952748D01*
X155055290Y-87774615D01*
X154967540Y-87610446D01*
X154879362Y-87503000D01*
X154849449Y-87466550D01*
X154761779Y-87394602D01*
X154705554Y-87348460D01*
X154541385Y-87260710D01*
X154363252Y-87206674D01*
X154363250Y-87206673D01*
X154363248Y-87206673D01*
X154178000Y-87188428D01*
X153992751Y-87206673D01*
X153992747Y-87206674D01*
X153992748Y-87206674D01*
X153814615Y-87260710D01*
X153814611Y-87260711D01*
X153814611Y-87260712D01*
X153650447Y-87348459D01*
X153506550Y-87466550D01*
X153388460Y-87610446D01*
X153300710Y-87774615D01*
X153272872Y-87866385D01*
X153246673Y-87952751D01*
X153228428Y-88138000D01*
X150561362Y-88138000D01*
X150649540Y-88030554D01*
X150737290Y-87866385D01*
X150791326Y-87688252D01*
X150809572Y-87503000D01*
X150791326Y-87317748D01*
X150737290Y-87139615D01*
X150649540Y-86975446D01*
X150590494Y-86903498D01*
X150531449Y-86831550D01*
X150443779Y-86759602D01*
X150387554Y-86713460D01*
X150223385Y-86625710D01*
X150045252Y-86571674D01*
X150045250Y-86571673D01*
X150045248Y-86571673D01*
X149860000Y-86553428D01*
X149674751Y-86571673D01*
X149674747Y-86571674D01*
X149674748Y-86571674D01*
X149496615Y-86625710D01*
X149496611Y-86625711D01*
X149496611Y-86625712D01*
X149332447Y-86713459D01*
X149188550Y-86831550D01*
X149070460Y-86975446D01*
X148982710Y-87139615D01*
X148962368Y-87206674D01*
X148928673Y-87317751D01*
X148910428Y-87503000D01*
X134155193Y-87503000D01*
X134182111Y-82042000D01*
X145144540Y-82042000D01*
X145164326Y-82230257D01*
X145222820Y-82410284D01*
X145317466Y-82574216D01*
X145444129Y-82714889D01*
X145597269Y-82826151D01*
X145770197Y-82903144D01*
X145955352Y-82942500D01*
X145955354Y-82942500D01*
X146144646Y-82942500D01*
X146144648Y-82942500D01*
X146268083Y-82916262D01*
X146329803Y-82903144D01*
X146502730Y-82826151D01*
X146655871Y-82714888D01*
X146782533Y-82574216D01*
X146877179Y-82410284D01*
X146935674Y-82230256D01*
X146955460Y-82042000D01*
X146935674Y-81853744D01*
X146877179Y-81673716D01*
X146877179Y-81673715D01*
X146782533Y-81509783D01*
X146655870Y-81369110D01*
X146502730Y-81257848D01*
X146329802Y-81180855D01*
X146144648Y-81141500D01*
X146144646Y-81141500D01*
X145955354Y-81141500D01*
X145955352Y-81141500D01*
X145770197Y-81180855D01*
X145597269Y-81257848D01*
X145444129Y-81369110D01*
X145317466Y-81509783D01*
X145222820Y-81673715D01*
X145164326Y-81853742D01*
X145144540Y-82042000D01*
X134182111Y-82042000D01*
X134194842Y-79459055D01*
X138241966Y-79459055D01*
X138260579Y-79671800D01*
X138315853Y-79878087D01*
X138406108Y-80071638D01*
X138528600Y-80246576D01*
X138679608Y-80397584D01*
X138854546Y-80520076D01*
X138854547Y-80520076D01*
X138854548Y-80520077D01*
X139048099Y-80610332D01*
X139254382Y-80665605D01*
X139396213Y-80678013D01*
X139467128Y-80684218D01*
X139467128Y-80684217D01*
X139467129Y-80684218D01*
X139679876Y-80665605D01*
X139886159Y-80610332D01*
X140079710Y-80520077D01*
X140254648Y-80397585D01*
X140405658Y-80246575D01*
X140528150Y-80071637D01*
X140618405Y-79878086D01*
X140673678Y-79671803D01*
X140688534Y-79501999D01*
X149926428Y-79501999D01*
X149944673Y-79687248D01*
X149944673Y-79687250D01*
X149944674Y-79687252D01*
X149998710Y-79865385D01*
X150086460Y-80029554D01*
X150120997Y-80071638D01*
X150204550Y-80173449D01*
X150276498Y-80232494D01*
X150348446Y-80291540D01*
X150512615Y-80379290D01*
X150690748Y-80433326D01*
X150876000Y-80451572D01*
X151061252Y-80433326D01*
X151239385Y-80379290D01*
X151403554Y-80291540D01*
X151547449Y-80173449D01*
X151665540Y-80029554D01*
X151753290Y-79865385D01*
X151807326Y-79687252D01*
X151825572Y-79502000D01*
X151807326Y-79316748D01*
X151753290Y-79138615D01*
X151665540Y-78974446D01*
X151606494Y-78902498D01*
X151547449Y-78830550D01*
X151459779Y-78758602D01*
X151403554Y-78712460D01*
X151239385Y-78624710D01*
X151061252Y-78570674D01*
X151061250Y-78570673D01*
X151061248Y-78570673D01*
X150876000Y-78552428D01*
X150690751Y-78570673D01*
X150690747Y-78570674D01*
X150690748Y-78570674D01*
X150512615Y-78624710D01*
X150512611Y-78624711D01*
X150512611Y-78624712D01*
X150348447Y-78712459D01*
X150204550Y-78830550D01*
X150086459Y-78974447D01*
X150016890Y-79104603D01*
X149998710Y-79138615D01*
X149966041Y-79246311D01*
X149944673Y-79316751D01*
X149926428Y-79501999D01*
X140688534Y-79501999D01*
X140692291Y-79459056D01*
X140673678Y-79246309D01*
X140618405Y-79040026D01*
X140528150Y-78846475D01*
X140516999Y-78830550D01*
X140405657Y-78671535D01*
X140254649Y-78520527D01*
X140079711Y-78398035D01*
X139876327Y-78303195D01*
X139877173Y-78301378D01*
X139834494Y-78276739D01*
X139802399Y-78221150D01*
X139802399Y-78156962D01*
X139834494Y-78101373D01*
X139877173Y-78076733D01*
X139876327Y-78074917D01*
X139937250Y-78046507D01*
X140079710Y-77980077D01*
X140254648Y-77857585D01*
X140405658Y-77706575D01*
X140528150Y-77531637D01*
X140595942Y-77386257D01*
X141377089Y-77386257D01*
X141395334Y-77571505D01*
X141395334Y-77571507D01*
X141395335Y-77571509D01*
X141449371Y-77749642D01*
X141537121Y-77913811D01*
X141583263Y-77970036D01*
X141655211Y-78057706D01*
X141727159Y-78116751D01*
X141799107Y-78175797D01*
X141963276Y-78263547D01*
X142141409Y-78317583D01*
X142326661Y-78335829D01*
X142511913Y-78317583D01*
X142690046Y-78263547D01*
X142854215Y-78175797D01*
X142998110Y-78057706D01*
X143116201Y-77913811D01*
X143203951Y-77749642D01*
X143257987Y-77571509D01*
X143276233Y-77386257D01*
X143257987Y-77201005D01*
X143203951Y-77022872D01*
X143116201Y-76858703D01*
X143057155Y-76786755D01*
X142998110Y-76714807D01*
X142910440Y-76642859D01*
X142854215Y-76596717D01*
X142690046Y-76508967D01*
X142511913Y-76454931D01*
X142511911Y-76454930D01*
X142511909Y-76454930D01*
X142326661Y-76436685D01*
X142141412Y-76454930D01*
X142141408Y-76454931D01*
X142141409Y-76454931D01*
X141963276Y-76508967D01*
X141963272Y-76508968D01*
X141963272Y-76508969D01*
X141799108Y-76596716D01*
X141655211Y-76714807D01*
X141537120Y-76858704D01*
X141479816Y-76965913D01*
X141449371Y-77022872D01*
X141423327Y-77108728D01*
X141395334Y-77201008D01*
X141377089Y-77386257D01*
X140595942Y-77386257D01*
X140618405Y-77338086D01*
X140673678Y-77131803D01*
X140692291Y-76919056D01*
X140673678Y-76706309D01*
X140618405Y-76500026D01*
X140528150Y-76306475D01*
X140494468Y-76258372D01*
X140405657Y-76131535D01*
X140254649Y-75980527D01*
X140079711Y-75858035D01*
X139886160Y-75767780D01*
X139679873Y-75712506D01*
X139467129Y-75693893D01*
X139254384Y-75712506D01*
X139048097Y-75767780D01*
X138854546Y-75858035D01*
X138679608Y-75980527D01*
X138528600Y-76131535D01*
X138406108Y-76306473D01*
X138315853Y-76500024D01*
X138260579Y-76706311D01*
X138241966Y-76919056D01*
X138260579Y-77131800D01*
X138315853Y-77338087D01*
X138406108Y-77531638D01*
X138528600Y-77706576D01*
X138679608Y-77857584D01*
X138854546Y-77980076D01*
X139057931Y-78074917D01*
X139057084Y-78076732D01*
X139099765Y-78101375D01*
X139131858Y-78156963D01*
X139131858Y-78221149D01*
X139099765Y-78276737D01*
X139057084Y-78301379D01*
X139057931Y-78303195D01*
X138854546Y-78398035D01*
X138679608Y-78520527D01*
X138528600Y-78671535D01*
X138406108Y-78846473D01*
X138315853Y-79040024D01*
X138260579Y-79246311D01*
X138241966Y-79459055D01*
X134194842Y-79459055D01*
X134226287Y-73079466D01*
X142067062Y-73079466D01*
X142087701Y-73262638D01*
X142148583Y-73436630D01*
X142246655Y-73592711D01*
X142376994Y-73723050D01*
X142376996Y-73723051D01*
X142376997Y-73723052D01*
X142533076Y-73821123D01*
X142707065Y-73882004D01*
X142890239Y-73902643D01*
X143073413Y-73882004D01*
X143247402Y-73821123D01*
X143403481Y-73723052D01*
X143533824Y-73592709D01*
X143631895Y-73436630D01*
X143692776Y-73262641D01*
X143713415Y-73079467D01*
X143692776Y-72896293D01*
X143631895Y-72722304D01*
X143533824Y-72566225D01*
X143533823Y-72566224D01*
X143533822Y-72566222D01*
X143403483Y-72435883D01*
X143247402Y-72337811D01*
X143073410Y-72276929D01*
X142890238Y-72256290D01*
X142707067Y-72276929D01*
X142533075Y-72337811D01*
X142376994Y-72435883D01*
X142246655Y-72566222D01*
X142148583Y-72722303D01*
X142087701Y-72896295D01*
X142067062Y-73079466D01*
X134226287Y-73079466D01*
X134230123Y-72301168D01*
X134246925Y-72239451D01*
X134292251Y-72194318D01*
X134354040Y-72177780D01*
X142059751Y-72172792D01*
X142059750Y-72172792D01*
X142060242Y-71882000D01*
X150688428Y-71882000D01*
X150706673Y-72067248D01*
X150706673Y-72067250D01*
X150706674Y-72067252D01*
X150760710Y-72245385D01*
X150848460Y-72409554D01*
X150866423Y-72431442D01*
X150966550Y-72553449D01*
X151030079Y-72605585D01*
X151110446Y-72671540D01*
X151274615Y-72759290D01*
X151452748Y-72813326D01*
X151638000Y-72831572D01*
X151823252Y-72813326D01*
X152001385Y-72759290D01*
X152165554Y-72671540D01*
X152309449Y-72553449D01*
X152427540Y-72409554D01*
X152515290Y-72245385D01*
X152569326Y-72067252D01*
X152587572Y-71882000D01*
X152569326Y-71696748D01*
X152515290Y-71518615D01*
X152427540Y-71354446D01*
X152368494Y-71282498D01*
X152309449Y-71210550D01*
X152221779Y-71138602D01*
X152165554Y-71092460D01*
X152001385Y-71004710D01*
X151823252Y-70950674D01*
X151823250Y-70950673D01*
X151823248Y-70950673D01*
X151638000Y-70932428D01*
X151452751Y-70950673D01*
X151452747Y-70950674D01*
X151452748Y-70950674D01*
X151274615Y-71004710D01*
X151274611Y-71004711D01*
X151274611Y-71004712D01*
X151110447Y-71092459D01*
X150966550Y-71210550D01*
X150855581Y-71345769D01*
X150848460Y-71354446D01*
X150760710Y-71518615D01*
X150723015Y-71642879D01*
X150706673Y-71696751D01*
X150688428Y-71882000D01*
X142060242Y-71882000D01*
X142066264Y-68325999D01*
X148401823Y-68325999D01*
X148422462Y-68509171D01*
X148483344Y-68683163D01*
X148581416Y-68839244D01*
X148711755Y-68969583D01*
X148711757Y-68969584D01*
X148711758Y-68969585D01*
X148867837Y-69067656D01*
X149041826Y-69128537D01*
X149225000Y-69149176D01*
X149408174Y-69128537D01*
X149582163Y-69067656D01*
X149738242Y-68969585D01*
X149868585Y-68839242D01*
X149966656Y-68683163D01*
X150027537Y-68509174D01*
X150048176Y-68326000D01*
X150027537Y-68142826D01*
X149966656Y-67968837D01*
X149868585Y-67812758D01*
X149868584Y-67812757D01*
X149868583Y-67812755D01*
X149738244Y-67682416D01*
X149582163Y-67584344D01*
X149408171Y-67523462D01*
X149224999Y-67502823D01*
X149041828Y-67523462D01*
X148867836Y-67584344D01*
X148711755Y-67682416D01*
X148581416Y-67812755D01*
X148483344Y-67968836D01*
X148422462Y-68142828D01*
X148401823Y-68325999D01*
X142066264Y-68325999D01*
X142067985Y-67310000D01*
X143002000Y-67310000D01*
X143002000Y-63754000D01*
X142074006Y-63754000D01*
X142078967Y-60823718D01*
X142078965Y-60823717D01*
X142078966Y-60823717D01*
X135232147Y-60775501D01*
X135170517Y-60758599D01*
X135125488Y-60713252D01*
X135109020Y-60651504D01*
X135109020Y-56638848D01*
X137972086Y-56638848D01*
X137990699Y-56851592D01*
X138045973Y-57057879D01*
X138136228Y-57251430D01*
X138258720Y-57426368D01*
X138409728Y-57577376D01*
X138584666Y-57699868D01*
X138584667Y-57699868D01*
X138584668Y-57699869D01*
X138778219Y-57790124D01*
X138984502Y-57845397D01*
X139197249Y-57864010D01*
X139409996Y-57845397D01*
X139616279Y-57790124D01*
X139809830Y-57699869D01*
X139984768Y-57577377D01*
X140135778Y-57426367D01*
X140258270Y-57251429D01*
X140348525Y-57057878D01*
X140403798Y-56851595D01*
X140422135Y-56641999D01*
X144592428Y-56641999D01*
X144610673Y-56827248D01*
X144610673Y-56827250D01*
X144610674Y-56827252D01*
X144664710Y-57005385D01*
X144752460Y-57169554D01*
X144790367Y-57215744D01*
X144870550Y-57313449D01*
X144942498Y-57372494D01*
X145014446Y-57431540D01*
X145178615Y-57519290D01*
X145356748Y-57573326D01*
X145542000Y-57591572D01*
X145727252Y-57573326D01*
X145905385Y-57519290D01*
X146069554Y-57431540D01*
X146213449Y-57313449D01*
X146331540Y-57169554D01*
X146419290Y-57005385D01*
X146473326Y-56827252D01*
X146491572Y-56642000D01*
X146473326Y-56456748D01*
X146419290Y-56278615D01*
X146331540Y-56114446D01*
X146240900Y-56004000D01*
X146213449Y-55970550D01*
X146094784Y-55873166D01*
X146069554Y-55852460D01*
X145905385Y-55764710D01*
X145727252Y-55710674D01*
X145727250Y-55710673D01*
X145727248Y-55710673D01*
X145542000Y-55692428D01*
X145356751Y-55710673D01*
X145356747Y-55710674D01*
X145356748Y-55710674D01*
X145178615Y-55764710D01*
X145178611Y-55764711D01*
X145178611Y-55764712D01*
X145014447Y-55852459D01*
X144870550Y-55970550D01*
X144752459Y-56114447D01*
X144664712Y-56278611D01*
X144664710Y-56278615D01*
X144635386Y-56375284D01*
X144610673Y-56456751D01*
X144592428Y-56641999D01*
X140422135Y-56641999D01*
X140422411Y-56638848D01*
X140403798Y-56426101D01*
X140348525Y-56219818D01*
X140258270Y-56026267D01*
X140244779Y-56007000D01*
X140135777Y-55851327D01*
X139984769Y-55700319D01*
X139809831Y-55577827D01*
X139606447Y-55482987D01*
X139607293Y-55481171D01*
X139564602Y-55456517D01*
X139532515Y-55400924D01*
X139532524Y-55336736D01*
X139564627Y-55281152D01*
X139607294Y-55256527D01*
X139606447Y-55254709D01*
X139698595Y-55211739D01*
X139809830Y-55159869D01*
X139984768Y-55037377D01*
X140135778Y-54886367D01*
X140258270Y-54711429D01*
X140348525Y-54517878D01*
X140403798Y-54311595D01*
X140422135Y-54101999D01*
X152526055Y-54101999D01*
X152544300Y-54287248D01*
X152544300Y-54287250D01*
X152544301Y-54287252D01*
X152598337Y-54465385D01*
X152686087Y-54629554D01*
X152716272Y-54666335D01*
X152804177Y-54773449D01*
X152876125Y-54832494D01*
X152948073Y-54891540D01*
X153112242Y-54979290D01*
X153290375Y-55033326D01*
X153475627Y-55051572D01*
X153660879Y-55033326D01*
X153839012Y-54979290D01*
X154003181Y-54891540D01*
X154147076Y-54773449D01*
X154265167Y-54629554D01*
X154352917Y-54465385D01*
X154406953Y-54287252D01*
X154425199Y-54102000D01*
X154406953Y-53916748D01*
X154352917Y-53738615D01*
X154265167Y-53574446D01*
X154192799Y-53486265D01*
X154147076Y-53430550D01*
X154059406Y-53358602D01*
X154003181Y-53312460D01*
X153839012Y-53224710D01*
X153660879Y-53170674D01*
X153660877Y-53170673D01*
X153660875Y-53170673D01*
X153475627Y-53152428D01*
X153290378Y-53170673D01*
X153290374Y-53170674D01*
X153290375Y-53170674D01*
X153112242Y-53224710D01*
X153112238Y-53224711D01*
X153112238Y-53224712D01*
X152948074Y-53312459D01*
X152804177Y-53430550D01*
X152686086Y-53574447D01*
X152616516Y-53704604D01*
X152598337Y-53738615D01*
X152578673Y-53803440D01*
X152544300Y-53916751D01*
X152526055Y-54101999D01*
X140422135Y-54101999D01*
X140422411Y-54098848D01*
X140403798Y-53886101D01*
X140348525Y-53679818D01*
X140258270Y-53486267D01*
X140136569Y-53312459D01*
X140135777Y-53311327D01*
X139984769Y-53160319D01*
X139809831Y-53037827D01*
X139616280Y-52947572D01*
X139409993Y-52892298D01*
X139197249Y-52873685D01*
X138984504Y-52892298D01*
X138778217Y-52947572D01*
X138584666Y-53037827D01*
X138409728Y-53160319D01*
X138258720Y-53311327D01*
X138136228Y-53486265D01*
X138045973Y-53679816D01*
X137990699Y-53886103D01*
X137972086Y-54098847D01*
X137990699Y-54311592D01*
X138045973Y-54517879D01*
X138136228Y-54711430D01*
X138258720Y-54886368D01*
X138409728Y-55037376D01*
X138584666Y-55159868D01*
X138788051Y-55254709D01*
X138787204Y-55256524D01*
X138829885Y-55281167D01*
X138861978Y-55336755D01*
X138861978Y-55400941D01*
X138829885Y-55456529D01*
X138787204Y-55481171D01*
X138788051Y-55482987D01*
X138584666Y-55577827D01*
X138409728Y-55700319D01*
X138258720Y-55851327D01*
X138136228Y-56026265D01*
X138045973Y-56219816D01*
X137990699Y-56426103D01*
X137972086Y-56638848D01*
X135109020Y-56638848D01*
X135109020Y-51924665D01*
X141043034Y-51924665D01*
X141061279Y-52109913D01*
X141061279Y-52109915D01*
X141061280Y-52109917D01*
X141115316Y-52288050D01*
X141203066Y-52452219D01*
X141235032Y-52491170D01*
X141321156Y-52596114D01*
X141393104Y-52655159D01*
X141465052Y-52714205D01*
X141629221Y-52801955D01*
X141807354Y-52855991D01*
X141992606Y-52874237D01*
X142177858Y-52855991D01*
X142355991Y-52801955D01*
X142520160Y-52714205D01*
X142664055Y-52596114D01*
X142782146Y-52452219D01*
X142869896Y-52288050D01*
X142923932Y-52109917D01*
X142940372Y-51942999D01*
X156784428Y-51942999D01*
X156802673Y-52128248D01*
X156802673Y-52128250D01*
X156802674Y-52128252D01*
X156856710Y-52306385D01*
X156944460Y-52470554D01*
X156961379Y-52491170D01*
X157062550Y-52614449D01*
X157095208Y-52641250D01*
X157206446Y-52732540D01*
X157370615Y-52820290D01*
X157548748Y-52874326D01*
X157734000Y-52892572D01*
X157919252Y-52874326D01*
X158097385Y-52820290D01*
X158261554Y-52732540D01*
X158405449Y-52614449D01*
X158523540Y-52470554D01*
X158611290Y-52306385D01*
X158665326Y-52128252D01*
X158683572Y-51943000D01*
X158665326Y-51757748D01*
X158611290Y-51579615D01*
X158523540Y-51415446D01*
X158439340Y-51312847D01*
X158405449Y-51271550D01*
X158317779Y-51199602D01*
X158261554Y-51153460D01*
X158097385Y-51065710D01*
X157919252Y-51011674D01*
X157919250Y-51011673D01*
X157919248Y-51011673D01*
X157734000Y-50993428D01*
X157548751Y-51011673D01*
X157548747Y-51011674D01*
X157548748Y-51011674D01*
X157370615Y-51065710D01*
X157370611Y-51065711D01*
X157370611Y-51065712D01*
X157206447Y-51153459D01*
X157062550Y-51271550D01*
X156944459Y-51415447D01*
X156927211Y-51447716D01*
X156856710Y-51579615D01*
X156838654Y-51639139D01*
X156802673Y-51757751D01*
X156784428Y-51942999D01*
X142940372Y-51942999D01*
X142942178Y-51924665D01*
X142923932Y-51739413D01*
X142869896Y-51561280D01*
X142782146Y-51397111D01*
X142712993Y-51312847D01*
X142664055Y-51253215D01*
X142529892Y-51143112D01*
X142520160Y-51135125D01*
X142355991Y-51047375D01*
X142177858Y-50993339D01*
X142177856Y-50993338D01*
X142177854Y-50993338D01*
X142018503Y-50977643D01*
X141992606Y-50975093D01*
X141992605Y-50975093D01*
X141807357Y-50993338D01*
X141789074Y-50998883D01*
X141629221Y-51047375D01*
X141629217Y-51047376D01*
X141629217Y-51047377D01*
X141465053Y-51135124D01*
X141321156Y-51253215D01*
X141203065Y-51397112D01*
X141115318Y-51561276D01*
X141115316Y-51561280D01*
X141070588Y-51708728D01*
X141061279Y-51739416D01*
X141043034Y-51924665D01*
X135109020Y-51924665D01*
X135109020Y-49019469D01*
X135125499Y-48957702D01*
X135170556Y-48912351D01*
X135232214Y-48895472D01*
X142667977Y-48847188D01*
X142668021Y-48776421D01*
X142684660Y-48714455D01*
X142730043Y-48669100D01*
X142792021Y-48652500D01*
X142842648Y-48652500D01*
X142966083Y-48626262D01*
X143027803Y-48613144D01*
X143200730Y-48536151D01*
X143269124Y-48486460D01*
X143353870Y-48424889D01*
X143480533Y-48284216D01*
X143575179Y-48120284D01*
X143628749Y-47955412D01*
X143633674Y-47940256D01*
X143653460Y-47752000D01*
X143633674Y-47563744D01*
X143583358Y-47408888D01*
X143575179Y-47383715D01*
X143480533Y-47219783D01*
X143353870Y-47079110D01*
X143200730Y-46967848D01*
X143027802Y-46890855D01*
X142842648Y-46851500D01*
X142842646Y-46851500D01*
X142793307Y-46851500D01*
X142731285Y-46834874D01*
X142685894Y-46789455D01*
X142680637Y-46769793D01*
X151213434Y-46769793D01*
X151231679Y-46955042D01*
X151231679Y-46955044D01*
X151231680Y-46955046D01*
X151285716Y-47133179D01*
X151373466Y-47297348D01*
X151400943Y-47330829D01*
X151491556Y-47441243D01*
X151551143Y-47490144D01*
X151635452Y-47559334D01*
X151799621Y-47647084D01*
X151977754Y-47701120D01*
X152163006Y-47719366D01*
X152348258Y-47701120D01*
X152526391Y-47647084D01*
X152690560Y-47559334D01*
X152834455Y-47441243D01*
X152952546Y-47297348D01*
X153040296Y-47133179D01*
X153094332Y-46955046D01*
X153112578Y-46769794D01*
X153094332Y-46584542D01*
X153040296Y-46406409D01*
X152952546Y-46242240D01*
X152869595Y-46141163D01*
X152834455Y-46098344D01*
X152733437Y-46015442D01*
X152690560Y-45980254D01*
X152526391Y-45892504D01*
X152348258Y-45838468D01*
X152348256Y-45838467D01*
X152348254Y-45838467D01*
X152188903Y-45822772D01*
X152163006Y-45820222D01*
X152163005Y-45820222D01*
X151977757Y-45838467D01*
X151977753Y-45838468D01*
X151977754Y-45838468D01*
X151799621Y-45892504D01*
X151799617Y-45892505D01*
X151799617Y-45892506D01*
X151635453Y-45980253D01*
X151491556Y-46098344D01*
X151401340Y-46208275D01*
X151373466Y-46242240D01*
X151285716Y-46406409D01*
X151248026Y-46530658D01*
X151231679Y-46584545D01*
X151213434Y-46769793D01*
X142680637Y-46769793D01*
X142669307Y-46727422D01*
X142671372Y-43434000D01*
X146624428Y-43434000D01*
X146642673Y-43619248D01*
X146642673Y-43619250D01*
X146642674Y-43619252D01*
X146696710Y-43797385D01*
X146784460Y-43961554D01*
X146824832Y-44010748D01*
X146902550Y-44105449D01*
X146959235Y-44151968D01*
X147046446Y-44223540D01*
X147210615Y-44311290D01*
X147388748Y-44365326D01*
X147574000Y-44383572D01*
X147759252Y-44365326D01*
X147937385Y-44311290D01*
X148101554Y-44223540D01*
X148135112Y-44196000D01*
X156784428Y-44196000D01*
X156802673Y-44381248D01*
X156802673Y-44381250D01*
X156802674Y-44381252D01*
X156856710Y-44559385D01*
X156944460Y-44723554D01*
X156983042Y-44770566D01*
X157062550Y-44867449D01*
X157113598Y-44909342D01*
X157206446Y-44985540D01*
X157370615Y-45073290D01*
X157548748Y-45127326D01*
X157734000Y-45145572D01*
X157919252Y-45127326D01*
X158097385Y-45073290D01*
X158097386Y-45073289D01*
X158097552Y-45073239D01*
X158154747Y-45069725D01*
X158207415Y-45092301D01*
X158244308Y-45136147D01*
X158257548Y-45191899D01*
X158257548Y-46648304D01*
X158274225Y-46777079D01*
X158290321Y-46838177D01*
X158339257Y-46958459D01*
X158417224Y-47062309D01*
X158461329Y-47107540D01*
X158493744Y-47133179D01*
X158563172Y-47188095D01*
X160737344Y-48492597D01*
X160781452Y-48537831D01*
X160797547Y-48598926D01*
X160797547Y-51442095D01*
X160781452Y-51503190D01*
X160737344Y-51548423D01*
X160621564Y-51617892D01*
X158563175Y-52852924D01*
X158461329Y-52933481D01*
X158417226Y-52978710D01*
X158339257Y-53082562D01*
X158290321Y-53202844D01*
X158274225Y-53263942D01*
X158257548Y-53392718D01*
X158257548Y-61834702D01*
X158274739Y-61965409D01*
X158291319Y-62027352D01*
X158341722Y-62149169D01*
X158341723Y-62149171D01*
X158421911Y-62253812D01*
X158467220Y-62299191D01*
X158562037Y-62372082D01*
X158597711Y-62415621D01*
X158610462Y-62470445D01*
X158597662Y-62525258D01*
X158561949Y-62568765D01*
X158454557Y-62651170D01*
X158409170Y-62696557D01*
X158328836Y-62801250D01*
X158278339Y-62923161D01*
X158261724Y-62985169D01*
X158244500Y-63115999D01*
X158244500Y-72065793D01*
X158261177Y-72194568D01*
X158277273Y-72255666D01*
X158326209Y-72375948D01*
X158326210Y-72375949D01*
X158387764Y-72457938D01*
X158404178Y-72479800D01*
X158448281Y-72525030D01*
X158550126Y-72605586D01*
X159699811Y-73295396D01*
X160677492Y-73882004D01*
X160724296Y-73910086D01*
X160768404Y-73955320D01*
X160784499Y-74016415D01*
X160784499Y-76859584D01*
X160768404Y-76920679D01*
X160724296Y-76965912D01*
X160602251Y-77039140D01*
X158550127Y-78270413D01*
X158448281Y-78350970D01*
X158404178Y-78396199D01*
X158326209Y-78500051D01*
X158277273Y-78620333D01*
X158261177Y-78681431D01*
X158244500Y-78810207D01*
X158244500Y-84204001D01*
X158261724Y-84334830D01*
X158278339Y-84396838D01*
X158328836Y-84518749D01*
X158409170Y-84623442D01*
X158454557Y-84668829D01*
X158559249Y-84749162D01*
X158559250Y-84749163D01*
X158681166Y-84799662D01*
X158743166Y-84816275D01*
X158841291Y-84829193D01*
X158873999Y-84833500D01*
X158874000Y-84833500D01*
X170310000Y-84833500D01*
X170310001Y-84833500D01*
X170336166Y-84830054D01*
X170440834Y-84816275D01*
X170502834Y-84799662D01*
X170624750Y-84749163D01*
X170729442Y-84668829D01*
X170774829Y-84623442D01*
X170855163Y-84518750D01*
X170905662Y-84396834D01*
X170922275Y-84334834D01*
X170939500Y-84204000D01*
X170939500Y-78102000D01*
X170939417Y-78101373D01*
X170922275Y-77971169D01*
X170922275Y-77971166D01*
X170905662Y-77909166D01*
X170855163Y-77787250D01*
X170855162Y-77787249D01*
X170774829Y-77682557D01*
X170729442Y-77637170D01*
X170624749Y-77556836D01*
X170502838Y-77506339D01*
X170440830Y-77489724D01*
X170310001Y-77472500D01*
X170310000Y-77472500D01*
X164459500Y-77472500D01*
X164397500Y-77455887D01*
X164352113Y-77410500D01*
X164335500Y-77348500D01*
X164335500Y-76141627D01*
X171628784Y-76141627D01*
X171638685Y-76374704D01*
X171687836Y-76602767D01*
X171774819Y-76819231D01*
X171774821Y-76819235D01*
X171897138Y-77017891D01*
X171997390Y-77131800D01*
X172051270Y-77193019D01*
X172232776Y-77339576D01*
X172436448Y-77453354D01*
X172656418Y-77531074D01*
X172886351Y-77570500D01*
X172886353Y-77570500D01*
X173511216Y-77570500D01*
X173511220Y-77570500D01*
X173627373Y-77560613D01*
X173685453Y-77555670D01*
X173874911Y-77506339D01*
X173911220Y-77496885D01*
X174066400Y-77426739D01*
X174123802Y-77400792D01*
X174317088Y-77270153D01*
X174485516Y-77108728D01*
X174624240Y-76921161D01*
X174729270Y-76712847D01*
X174797583Y-76489780D01*
X174827216Y-76258376D01*
X174817314Y-76025293D01*
X174768164Y-75797235D01*
X174750591Y-75753504D01*
X174681180Y-75580768D01*
X174681179Y-75580765D01*
X174558862Y-75382109D01*
X174404731Y-75206982D01*
X174396026Y-75199953D01*
X174223223Y-75060423D01*
X174019551Y-74946645D01*
X173799581Y-74868925D01*
X173569649Y-74829500D01*
X173569647Y-74829500D01*
X172944784Y-74829500D01*
X172944780Y-74829500D01*
X172770548Y-74844329D01*
X172544779Y-74903114D01*
X172332198Y-74999207D01*
X172138912Y-75129846D01*
X171970483Y-75291272D01*
X171831760Y-75478838D01*
X171726730Y-75687152D01*
X171658417Y-75910219D01*
X171628784Y-76141627D01*
X164335500Y-76141627D01*
X164335500Y-72765500D01*
X164352113Y-72703500D01*
X164397500Y-72658113D01*
X164459500Y-72641500D01*
X166448346Y-72641500D01*
X166509465Y-72657609D01*
X166554704Y-72701751D01*
X166572309Y-72762456D01*
X166557704Y-72823953D01*
X166519038Y-72896293D01*
X166508710Y-72915615D01*
X166464709Y-73060668D01*
X166454673Y-73093751D01*
X166436428Y-73278999D01*
X166454673Y-73464248D01*
X166454673Y-73464250D01*
X166454674Y-73464252D01*
X166508710Y-73642385D01*
X166596460Y-73806554D01*
X166642602Y-73862779D01*
X166714550Y-73950449D01*
X166786498Y-74009494D01*
X166858446Y-74068540D01*
X167022615Y-74156290D01*
X167200748Y-74210326D01*
X167386000Y-74228572D01*
X167571252Y-74210326D01*
X167749385Y-74156290D01*
X167913554Y-74068540D01*
X168057449Y-73950449D01*
X168175540Y-73806554D01*
X168263290Y-73642385D01*
X168317326Y-73464252D01*
X168335572Y-73279000D01*
X168317326Y-73093748D01*
X168263290Y-72915615D01*
X168214296Y-72823953D01*
X168199691Y-72762456D01*
X168217296Y-72701751D01*
X168262535Y-72657609D01*
X168323654Y-72641500D01*
X170056001Y-72641500D01*
X170082166Y-72638055D01*
X170186834Y-72624275D01*
X170248834Y-72607662D01*
X170370750Y-72557163D01*
X170475442Y-72476829D01*
X170520829Y-72431442D01*
X170601163Y-72326750D01*
X170651662Y-72204834D01*
X170668275Y-72142834D01*
X170685500Y-72012000D01*
X170685500Y-63116000D01*
X170668275Y-62985166D01*
X170651662Y-62923166D01*
X170601163Y-62801250D01*
X170601162Y-62801249D01*
X170520829Y-62696557D01*
X170475442Y-62651170D01*
X170385608Y-62582237D01*
X170349870Y-62538680D01*
X170337095Y-62483805D01*
X170349920Y-62428943D01*
X170385698Y-62385418D01*
X170403110Y-62372082D01*
X170475057Y-62316978D01*
X170520522Y-62271583D01*
X170601000Y-62166841D01*
X170651596Y-62044826D01*
X170668241Y-61982771D01*
X170685500Y-61851810D01*
X170685500Y-52956000D01*
X170684390Y-52947572D01*
X170672333Y-52855991D01*
X170668275Y-52825166D01*
X170651662Y-52763166D01*
X170601163Y-52641250D01*
X170580598Y-52614449D01*
X170520829Y-52536557D01*
X170475442Y-52491170D01*
X170370749Y-52410836D01*
X170248838Y-52360339D01*
X170186830Y-52343724D01*
X170056001Y-52326500D01*
X170056000Y-52326500D01*
X164967500Y-52326500D01*
X164905500Y-52309887D01*
X164860113Y-52264500D01*
X164843500Y-52202500D01*
X164843500Y-50741627D01*
X171628784Y-50741627D01*
X171638685Y-50974704D01*
X171687836Y-51202767D01*
X171774819Y-51419231D01*
X171774821Y-51419235D01*
X171873571Y-51579615D01*
X171897139Y-51617892D01*
X172051270Y-51793019D01*
X172232776Y-51939576D01*
X172436448Y-52053354D01*
X172656418Y-52131074D01*
X172886351Y-52170500D01*
X172886353Y-52170500D01*
X173511216Y-52170500D01*
X173511220Y-52170500D01*
X173627373Y-52160613D01*
X173685453Y-52155670D01*
X173835963Y-52116480D01*
X173911220Y-52096885D01*
X174066400Y-52026739D01*
X174123802Y-52000792D01*
X174317088Y-51870153D01*
X174485516Y-51708728D01*
X174624240Y-51521161D01*
X174729270Y-51312847D01*
X174797583Y-51089780D01*
X174827216Y-50858376D01*
X174817314Y-50625293D01*
X174768164Y-50397235D01*
X174750591Y-50353504D01*
X174724671Y-50289000D01*
X174681179Y-50180765D01*
X174558862Y-49982109D01*
X174404731Y-49806982D01*
X174400486Y-49803554D01*
X174223223Y-49660423D01*
X174019551Y-49546645D01*
X173799581Y-49468925D01*
X173569649Y-49429500D01*
X173569647Y-49429500D01*
X172944784Y-49429500D01*
X172944780Y-49429500D01*
X172770548Y-49444329D01*
X172544779Y-49503114D01*
X172332198Y-49599207D01*
X172138912Y-49729846D01*
X171970483Y-49891272D01*
X171831760Y-50078838D01*
X171726730Y-50287152D01*
X171658417Y-50510219D01*
X171628784Y-50741627D01*
X164843500Y-50741627D01*
X164843500Y-49276000D01*
X165674428Y-49276000D01*
X165692673Y-49461248D01*
X165692673Y-49461250D01*
X165692674Y-49461252D01*
X165746710Y-49639385D01*
X165834460Y-49803554D01*
X165851380Y-49824171D01*
X165952550Y-49947449D01*
X166024498Y-50006494D01*
X166096446Y-50065540D01*
X166260615Y-50153290D01*
X166438748Y-50207326D01*
X166624000Y-50225572D01*
X166809252Y-50207326D01*
X166987385Y-50153290D01*
X167151554Y-50065540D01*
X167295449Y-49947449D01*
X167413540Y-49803554D01*
X167501290Y-49639385D01*
X167555326Y-49461252D01*
X167573572Y-49276000D01*
X167555326Y-49090748D01*
X167501290Y-48912615D01*
X167413540Y-48748446D01*
X167334800Y-48652500D01*
X167295449Y-48604550D01*
X167203047Y-48528719D01*
X167151554Y-48486460D01*
X166987385Y-48398710D01*
X166809252Y-48344674D01*
X166809250Y-48344673D01*
X166809248Y-48344673D01*
X166624000Y-48326428D01*
X166438751Y-48344673D01*
X166438747Y-48344674D01*
X166438748Y-48344674D01*
X166260615Y-48398710D01*
X166260611Y-48398711D01*
X166260611Y-48398712D01*
X166096447Y-48486459D01*
X165952550Y-48604550D01*
X165834460Y-48748446D01*
X165746710Y-48912615D01*
X165714296Y-49019469D01*
X165692673Y-49090751D01*
X165674428Y-49276000D01*
X164843500Y-49276000D01*
X164843500Y-47619500D01*
X164860113Y-47557500D01*
X164905500Y-47512113D01*
X164967500Y-47495500D01*
X170056001Y-47495500D01*
X170082166Y-47492055D01*
X170186834Y-47478275D01*
X170248834Y-47461662D01*
X170370750Y-47411163D01*
X170475442Y-47330829D01*
X170520829Y-47285442D01*
X170601163Y-47180750D01*
X170651662Y-47058834D01*
X170668275Y-46996834D01*
X170685500Y-46866000D01*
X170685500Y-41254511D01*
X170668275Y-41123677D01*
X170651662Y-41061677D01*
X170601163Y-40939761D01*
X170598527Y-40936326D01*
X170520829Y-40835068D01*
X170475442Y-40789681D01*
X170370749Y-40709347D01*
X170248838Y-40658850D01*
X170186830Y-40642235D01*
X170056001Y-40625011D01*
X170056000Y-40625011D01*
X158887048Y-40625011D01*
X158887047Y-40625011D01*
X158756217Y-40642235D01*
X158694209Y-40658850D01*
X158572298Y-40709347D01*
X158467605Y-40789681D01*
X158422218Y-40835068D01*
X158341884Y-40939761D01*
X158291387Y-41061672D01*
X158274772Y-41123680D01*
X158257548Y-41254510D01*
X158257548Y-43200101D01*
X158244308Y-43255853D01*
X158207415Y-43299699D01*
X158154747Y-43322275D01*
X158097552Y-43318761D01*
X158097386Y-43318710D01*
X158097385Y-43318710D01*
X158003172Y-43290131D01*
X157919253Y-43264674D01*
X157734000Y-43246428D01*
X157548751Y-43264673D01*
X157548747Y-43264674D01*
X157548748Y-43264674D01*
X157370615Y-43318710D01*
X157370611Y-43318711D01*
X157370611Y-43318712D01*
X157206447Y-43406459D01*
X157062550Y-43524550D01*
X156944459Y-43668447D01*
X156885190Y-43779332D01*
X156856710Y-43832615D01*
X156817597Y-43961554D01*
X156802673Y-44010751D01*
X156784428Y-44196000D01*
X148135112Y-44196000D01*
X148245449Y-44105449D01*
X148363540Y-43961554D01*
X148451290Y-43797385D01*
X148505326Y-43619252D01*
X148523572Y-43434000D01*
X148505326Y-43248748D01*
X148451290Y-43070615D01*
X148363540Y-42906446D01*
X148304494Y-42834498D01*
X148245449Y-42762550D01*
X148157779Y-42690602D01*
X148101554Y-42644460D01*
X147937385Y-42556710D01*
X147759252Y-42502674D01*
X147759250Y-42502673D01*
X147759248Y-42502673D01*
X147574000Y-42484428D01*
X147388751Y-42502673D01*
X147388747Y-42502674D01*
X147388748Y-42502674D01*
X147210615Y-42556710D01*
X147210611Y-42556711D01*
X147210611Y-42556712D01*
X147046447Y-42644459D01*
X146902550Y-42762550D01*
X146784460Y-42906446D01*
X146696710Y-43070615D01*
X146657431Y-43200101D01*
X146642673Y-43248751D01*
X146624428Y-43434000D01*
X142671372Y-43434000D01*
X142673081Y-40709347D01*
X142673280Y-40391669D01*
X142673428Y-40385690D01*
X142742228Y-38979938D01*
X142760771Y-38920533D01*
X142805839Y-38877617D01*
X142866080Y-38862000D01*
X174244000Y-38862000D01*
X174244000Y-40132000D01*
G37*
%TD.AperFunction*%
%TD*%
%TA.AperFunction,Conductor*%
%TO.N,V-*%
G36*
X170118000Y-63008613D02*
G01*
X170163387Y-63054000D01*
X170180000Y-63116000D01*
X170180000Y-72012000D01*
X170163387Y-72074000D01*
X170118000Y-72119387D01*
X170056000Y-72136000D01*
X163830000Y-72136000D01*
X163830000Y-77978000D01*
X170310000Y-77978000D01*
X170372000Y-77994613D01*
X170417387Y-78040000D01*
X170434000Y-78102000D01*
X170434000Y-84204000D01*
X170417387Y-84266000D01*
X170372000Y-84311387D01*
X170310000Y-84328000D01*
X158874000Y-84328000D01*
X158812000Y-84311387D01*
X158766613Y-84266000D01*
X158750000Y-84204000D01*
X158750000Y-78810207D01*
X158766095Y-78749112D01*
X158810203Y-78703878D01*
X161290000Y-77216001D01*
X161290000Y-73660000D01*
X161289999Y-73659999D01*
X158810203Y-72172122D01*
X158766095Y-72126888D01*
X158750000Y-72065793D01*
X158750000Y-63116000D01*
X158766613Y-63054000D01*
X158812000Y-63008613D01*
X158874000Y-62992000D01*
X170056000Y-62992000D01*
X170118000Y-63008613D01*
G37*
%TD.AperFunction*%
%TD*%
%TA.AperFunction,Conductor*%
%TO.N,V-*%
G36*
X124398000Y-26940613D02*
G01*
X124443387Y-26986000D01*
X124460000Y-27048000D01*
X124460000Y-45596000D01*
X124443387Y-45658000D01*
X124398000Y-45703387D01*
X124336000Y-45720000D01*
X94739000Y-45720000D01*
X94677000Y-45703387D01*
X94631613Y-45658000D01*
X94615000Y-45596000D01*
X94615000Y-27048000D01*
X94631613Y-26986000D01*
X94677000Y-26940613D01*
X94739000Y-26924000D01*
X124336000Y-26924000D01*
X124398000Y-26940613D01*
G37*
%TD.AperFunction*%
%TD*%
%TA.AperFunction,Conductor*%
%TO.N,-15V*%
G36*
X105348000Y-50181613D02*
G01*
X105393387Y-50227000D01*
X105410000Y-50289000D01*
X105410000Y-66675000D01*
X112906000Y-66675000D01*
X112968000Y-66691613D01*
X113013387Y-66737000D01*
X113030000Y-66799000D01*
X113030000Y-95126000D01*
X113013387Y-95188000D01*
X112968000Y-95233387D01*
X112906000Y-95250000D01*
X85849000Y-95250000D01*
X85787000Y-95233387D01*
X85741613Y-95188000D01*
X85725000Y-95126000D01*
X85725000Y-67945000D01*
X65529000Y-67945000D01*
X65467000Y-67928387D01*
X65421613Y-67883000D01*
X65405000Y-67821000D01*
X65405000Y-56004000D01*
X65421613Y-55942000D01*
X65467000Y-55896613D01*
X65529000Y-55880000D01*
X66995990Y-55880000D01*
X67054367Y-55894601D01*
X67098996Y-55934966D01*
X67119366Y-55991586D01*
X67145882Y-56255160D01*
X67215731Y-56548262D01*
X67324021Y-56829432D01*
X67397750Y-56963970D01*
X67468825Y-57093665D01*
X67647554Y-57336238D01*
X67857020Y-57552824D01*
X68093485Y-57739558D01*
X68352730Y-57893109D01*
X68630128Y-58010736D01*
X68630129Y-58010736D01*
X68630131Y-58010737D01*
X68694179Y-58028281D01*
X68920729Y-58090340D01*
X69219347Y-58130500D01*
X72945244Y-58130500D01*
X72945246Y-58130500D01*
X73170635Y-58115412D01*
X73293994Y-58090338D01*
X73465903Y-58055396D01*
X73750537Y-57956560D01*
X74019459Y-57820668D01*
X74267869Y-57650144D01*
X74491333Y-57448032D01*
X74685865Y-57217939D01*
X74847993Y-56963970D01*
X74974823Y-56690658D01*
X75064093Y-56402879D01*
X75114209Y-56105770D01*
X75117750Y-55999855D01*
X75135702Y-55939623D01*
X75180881Y-55895929D01*
X75241681Y-55880000D01*
X85725000Y-55880000D01*
X85725000Y-50289000D01*
X85741613Y-50227000D01*
X85787000Y-50181613D01*
X85849000Y-50165000D01*
X105286000Y-50165000D01*
X105348000Y-50181613D01*
G37*
%TD.AperFunction*%
%TD*%
%TA.AperFunction,Conductor*%
%TO.N,GND*%
G36*
X143002000Y-67310000D02*
G01*
X139700000Y-67310000D01*
X139700000Y-63754000D01*
X143002000Y-63754000D01*
X143002000Y-67310000D01*
G37*
%TD.AperFunction*%
%TD*%
%TA.AperFunction,Conductor*%
%TO.N,GND*%
G36*
X177546000Y-40132000D02*
G01*
X174244000Y-40132000D01*
X174244000Y-36576000D01*
X177546000Y-36576000D01*
X177546000Y-40132000D01*
G37*
%TD.AperFunction*%
%TD*%
%TA.AperFunction,Conductor*%
%TO.N,GND*%
G36*
X118110000Y-97536000D02*
G01*
X114808000Y-97536000D01*
X114808000Y-93980000D01*
X118110000Y-93980000D01*
X118110000Y-97536000D01*
G37*
%TD.AperFunction*%
%TD*%
M02*
