M48
; DRILL file {KiCad 7.0.1} date Thu 04 May 2023 06:56:46 PM EDT
; FORMAT={-:-/ absolute / inch / decimal}
; #@! TF.CreationDate,2023-05-04T18:56:46-04:00
; #@! TF.GenerationSoftware,Kicad,Pcbnew,7.0.1
; #@! TF.FileFunction,MixedPlating,1,4
FMAT,2
INCH
; #@! TA.AperFunction,Plated,PTH,ComponentDrill
T1C0.0100
; #@! TA.AperFunction,Plated,PTH,ViaDrill
T2C0.0140
; #@! TA.AperFunction,Plated,PTH,ViaDrill
T3C0.0150
; #@! TA.AperFunction,Plated,PTH,ViaDrill
T4C0.0157
; #@! TA.AperFunction,Plated,PTH,ComponentDrill
T5C0.0315
; #@! TA.AperFunction,Plated,PTH,ViaDrill
T6C0.0350
; #@! TA.AperFunction,Plated,PTH,ComponentDrill
T7C0.0350
; #@! TA.AperFunction,Plated,PTH,ComponentDrill
T8C0.0354
; #@! TA.AperFunction,Plated,PTH,ViaDrill
T9C0.0400
; #@! TA.AperFunction,Plated,PTH,ComponentDrill
T10C0.0433
; #@! TA.AperFunction,Plated,PTH,ViaDrill
T11C0.0450
; #@! TA.AperFunction,Plated,PTH,ComponentDrill
T12C0.0469
; #@! TA.AperFunction,Plated,PTH,ComponentDrill
T13C0.0472
; #@! TA.AperFunction,Plated,PTH,ComponentDrill
T14C0.0791
; #@! TA.AperFunction,NonPlated,NPTH,ComponentDrill
T15C0.1575
%
G90
G05
T1
X6.3629Y-2.9078
X6.3629Y-2.9678
X6.3629Y-3.0278
X6.3637Y-1.9091
X6.3637Y-1.9691
X6.3637Y-2.0291
X6.3804Y-2.9378
X6.3804Y-2.9978
X6.3812Y-1.9391
X6.3812Y-1.9991
X6.3979Y-2.9078
X6.3979Y-2.9678
X6.3979Y-3.0278
X6.3987Y-1.9091
X6.3987Y-1.9691
X6.3987Y-2.0291
X6.4154Y-2.9378
X6.4154Y-2.9978
X6.4162Y-1.9391
X6.4162Y-1.9991
X6.4329Y-2.9078
X6.4329Y-2.9678
X6.4329Y-3.0278
X6.4337Y-1.9091
X6.4337Y-1.9691
X6.4337Y-2.0291
T2
X2.7389Y-1.5621
X2.8306Y-1.2501
X2.8384Y-5.6
X2.875Y-2.975
X2.9Y-5.025
X3.0Y-3.275
X3.0Y-5.2
X3.025Y-2.9
X3.025Y-3.525
X3.0465Y-1.5114
X3.05Y-3.775
X3.05Y-5.275
X3.075Y-4.925
X3.1Y-2.9
X3.1Y-3.9
X3.125Y-5.35
X3.15Y-2.925
X3.15Y-3.025
X3.15Y-3.175
X3.15Y-3.325
X3.15Y-3.55
X3.15Y-3.675
X3.15Y-3.775
X3.15Y-5.05
X3.175Y-4.05
X3.175Y-4.575
X3.175Y-5.125
X3.2Y-4.15
X3.2Y-4.7
X3.225Y-3.875
X3.225Y-4.35
X3.25Y-5.375
X3.275Y-5.225
X3.3248Y-1.56
X3.325Y-1.4554
X3.325Y-3.975
X3.325Y-4.85
X3.3273Y-4.1247
X3.35Y-4.65
X3.35Y-5.358
X3.38Y-4.38
X3.475Y-4.775
X3.5Y-5.225
X3.504Y-5.36
X3.525Y-4.55
X3.6Y-5.225
X3.625Y-5.36
X3.65Y-4.9
X3.725Y-4.7
X3.85Y-5.36
X3.875Y-5.225
X4.0Y-4.7
X4.0Y-4.9
X4.0Y-5.36
X4.174Y-5.36
X4.215Y-2.3
X4.225Y-2.455
X4.25Y-4.7
X4.28Y-3.93
X4.35Y-5.358
X4.375Y-4.9
X4.425Y-2.3
X4.525Y-4.7
X4.6Y-2.0
X4.6Y-5.225
X4.6293Y-5.5168
X4.63Y-2.1
X4.66Y-4.86
X4.675Y-4.6
X4.7171Y-5.5775
X4.725Y-5.225
X4.8Y-4.65
X4.825Y-1.975
X4.825Y-5.225
X4.85Y-4.4
X4.875Y-5.35
X4.925Y-2.1
X4.925Y-2.31
X4.9327Y-5.6007
X4.965Y-1.475
X4.975Y-5.375
X5.0Y-5.225
X5.015Y-1.115
X5.025Y-1.975
X5.05Y-5.1441
X5.075Y-4.45
X5.1Y-5.15
X5.125Y-5.4
X5.158Y-5.54
X5.175Y-1.475
X5.1832Y-1.181
X5.1832Y-1.361
X5.2Y-5.225
X5.26Y-4.18
X5.282Y-5.542
X5.29Y-1.275
X5.3Y-4.3
X5.325Y-5.225
X5.328Y-5.412
X5.3401Y-2.1023
X5.35Y-3.16
X5.398Y-5.54
X5.4052Y-3.8339
X5.4076Y-4.0512
X5.507Y-4.5409
X5.54Y-5.4
X5.5444Y-4.4492
X5.5459Y-1.1276
X5.5459Y-1.416
X5.556Y-5.542
X5.6015Y-2.2303
X5.6171Y-3.9605
X5.6195Y-3.2288
X5.6256Y-2.8771
X5.6646Y-1.805
X5.6664Y-2.7979
X5.6782Y-1.126
X5.6782Y-1.416
X5.68Y-3.9579
X5.696Y-5.318
X5.72Y-5.456
X5.7248Y-2.1808
X5.7299Y-4.0831
X5.7299Y-4.18
X5.7389Y-3.179
X5.7793Y-3.9603
X5.782Y-5.248
X5.808Y-5.5298
X5.8216Y-4.0928
X5.8279Y-4.1552
X5.8293Y-3.9987
X5.8318Y-4.4512
X5.8329Y-4.3179
X5.8374Y-2.1799
X5.8386Y-5.3348
X5.8504Y-3.179
X5.8593Y-2.9266
X5.875Y-2.69
X5.912Y-1.6277
X5.9129Y-2.6101
X5.9471Y-4.0508
X5.9477Y-5.4708
X5.9653Y-2.9264
X5.984Y-1.934
X6.02Y-5.4
X6.0481Y-4.0504
X6.0502Y-2.8263
X6.0563Y-4.9164
X6.0567Y-1.8351
X6.0614Y-5.0386
X6.0617Y-2.0014
X6.0691Y-2.9948
X6.1107Y-3.6474
X6.1621Y-5.3181
X6.1642Y-1.8351
X6.2131Y-4.3654
X6.2133Y-2.1947
X6.2139Y-3.1923
X6.321Y-4.6386
X6.3553Y-3.725
X6.4229Y-5.0091
X6.6Y-4.32
X6.6Y-4.78
X6.6Y-5.02
X6.6Y-5.26
X6.604Y-4.0749
X6.604Y-3.8313
X6.64Y-4.64
X6.68Y-2.94
X6.682Y-1.9384
T3
X2.66Y-2.34
X2.66Y-2.44
X2.66Y-2.54
X2.78Y-2.34
X2.78Y-2.44
X2.78Y-2.54
X2.9Y-2.34
X2.9Y-2.44
X2.9Y-2.54
X3.02Y-2.34
X3.02Y-2.44
X3.02Y-2.54
X3.14Y-2.34
X3.14Y-2.44
X3.14Y-2.54
X3.26Y-2.34
X3.26Y-2.44
X3.26Y-2.54
X3.28Y-1.59
X3.42Y-2.12
X3.42Y-2.22
X3.42Y-2.32
X3.44Y-2.46
X3.44Y-2.56
X3.44Y-2.66
X3.44Y-2.78
X3.44Y-2.92
X3.48Y-3.12
X3.48Y-3.22
X3.48Y-3.32
X3.48Y-3.44
X3.48Y-3.58
X3.54Y-2.12
X3.54Y-2.22
X3.54Y-2.32
X3.56Y-2.46
X3.56Y-2.56
X3.56Y-2.66
X3.56Y-2.78
X3.56Y-2.92
X3.66Y-2.12
X3.66Y-2.22
X3.66Y-2.32
X3.68Y-2.46
X3.68Y-2.56
X3.68Y-2.66
X3.68Y-2.78
X3.68Y-2.92
X3.68Y-3.36
X3.68Y-3.48
X3.68Y-3.62
X3.8Y-2.325
X3.8Y-3.22
X3.8Y-3.32
X3.8Y-3.42
X3.8Y-3.54
X3.8Y-3.68
X3.82Y-2.46
X3.82Y-2.56
X3.82Y-2.66
X3.82Y-2.78
X3.82Y-2.92
X3.825Y-2.025
X3.825Y-2.175
X3.85Y-2.25
X3.85Y-2.375
X3.875Y-2.1
X3.9Y-2.025
X3.9Y-2.325
X3.9Y-3.22
X3.9Y-3.32
X3.9Y-3.42
X3.9Y-3.54
X3.9Y-3.68
X3.92Y-2.52
X3.92Y-2.62
X3.92Y-2.72
X3.925Y-2.175
X3.95Y-2.1
X3.975Y-2.25
X3.975Y-2.375
X4.0Y-2.025
X4.0Y-2.175
X4.02Y-3.02
X4.02Y-3.12
X4.02Y-3.22
X4.02Y-3.32
X4.02Y-3.42
X4.02Y-3.54
X4.02Y-3.68
X4.025Y-2.325
X4.04Y-2.52
X4.04Y-2.62
X4.04Y-2.72
X4.05Y-2.1
X4.075Y-2.25
X4.1Y-2.025
X4.1Y-2.175
X4.1Y-2.375
X4.14Y-2.9
X4.14Y-3.0
X4.14Y-3.1
X4.14Y-3.22
X4.14Y-3.32
X4.14Y-3.42
X4.14Y-3.54
X4.14Y-3.68
X4.26Y-2.78
X4.26Y-2.9
X4.26Y-3.0
X4.26Y-3.1
X4.26Y-3.22
X4.26Y-3.32
X4.26Y-3.42
X4.26Y-3.54
X4.26Y-3.68
X4.4Y-2.68
X4.4Y-2.78
X4.4Y-2.9
X4.4Y-3.0
X4.4Y-3.1
X4.4Y-3.22
X4.4Y-3.32
X4.4Y-3.42
X4.4Y-3.54
X4.4Y-3.68
X4.55Y-1.2
X4.55Y-1.325
X4.575Y-1.55
X4.58Y-3.14
X4.58Y-3.24
X4.6Y-1.25
X4.6Y-1.4
X4.625Y-1.325
X4.625Y-1.475
X4.65Y-1.2
X4.675Y-1.25
X4.675Y-1.4
X4.675Y-1.55
X4.7Y-3.14
X4.7Y-3.24
X4.725Y-1.325
X4.725Y-1.475
X4.75Y-1.2
X4.775Y-1.25
X4.775Y-1.4
X4.775Y-1.55
X4.78Y-3.14
X4.78Y-3.24
X4.8Y-1.325
X4.8Y-2.82
X4.825Y-1.475
X4.85Y-1.2
X4.85Y-1.25
X4.875Y-1.4
X4.9Y-3.14
X4.9Y-3.24
X4.94Y-2.82
X5.0Y-3.14
X5.0Y-3.24
X5.04Y-2.82
X5.04Y-4.84
X5.0763Y-2.3487
X5.1Y-4.84
X5.12Y-3.14
X5.12Y-3.24
X5.16Y-2.82
X5.18Y-2.68
X5.19Y-4.84
X5.2Y-2.14
X5.22Y-1.98
X5.24Y-2.76
X5.26Y-4.84
X5.28Y-2.52
X5.285Y-1.575
X5.36Y-2.6
X5.5082Y-1.206
X5.5082Y-1.256
X5.5082Y-1.331
X5.5582Y-1.181
X5.5582Y-1.231
X5.5582Y-1.281
X5.5582Y-1.356
X5.56Y-3.82
X5.5903Y-2.0443
X5.6034Y-3.0467
X5.6082Y-1.181
X5.6082Y-1.231
X5.6082Y-1.281
X5.6082Y-1.356
X5.6168Y-4.0914
X5.6582Y-1.206
X5.6582Y-1.256
X5.6582Y-1.306
X5.7082Y-1.181
X5.7082Y-1.231
X5.7082Y-1.281
X5.7082Y-1.331
X5.73Y-2.23
X5.81Y-1.71
X5.9Y-3.445
X5.94Y-3.13
X5.97Y-2.83
X5.9907Y-1.8413
X6.0423Y-2.13
X6.07Y-3.47
X6.21Y-1.74
X6.21Y-2.045
X6.56Y-1.94
X6.59Y-2.885
T4
X3.76Y-4.18
X3.76Y-4.34
X3.76Y-4.52
X3.82Y-4.28
X3.82Y-4.4
X3.84Y-4.18
X3.86Y-4.52
X3.92Y-4.18
X3.92Y-4.24
X3.92Y-4.34
X3.92Y-4.44
X3.98Y-4.52
X4.0Y-4.18
X4.0Y-4.24
X4.0Y-4.36
X4.0Y-4.44
X4.08Y-4.18
X4.08Y-4.26
X4.08Y-4.34
X4.08Y-4.42
X4.08Y-4.52
X4.26Y-2.04
X4.32Y-2.04
X4.38Y-2.04
X4.75Y-2.42
X4.75Y-2.49
X4.75Y-2.57
X4.75Y-2.64
X4.75Y-2.72
X4.82Y-2.72
X4.83Y-2.42
X4.83Y-2.5
X4.84Y-2.64
X4.86Y-2.57
X4.9Y-2.72
X4.93Y-2.41
X4.93Y-2.65
X4.95Y-2.5
X4.96Y-2.6
X4.98Y-2.72
X5.0094Y-1.2349
X5.03Y-2.54
X5.04Y-2.42
X5.04Y-2.63
X5.06Y-2.72
X5.0702Y-1.2336
X5.085Y-2.15
X5.085Y-2.205
X5.085Y-2.26
X5.1Y-2.43
X5.1Y-2.51
X5.1Y-2.58
X5.1Y-2.67
X5.1246Y-1.2332
X5.52Y-1.84
X5.62Y-1.88
X5.6298Y-4.193
X5.75Y-3.23
X5.7796Y-4.1827
X5.7999Y-5.7397
X5.9324Y-5.2733
X5.9349Y-5.3173
X5.9986Y-3.9707
X6.2198Y-4.9324
X6.3621Y-4.7853
T5
X5.4802Y-2.0299
X5.4802Y-2.1299
X5.4802Y-2.2299
X5.4908Y-3.0283
X5.4908Y-3.1283
X5.4908Y-3.2283
T6
X2.9006Y-5.5956
X4.16Y-5.5179
X4.27Y-5.5179
X6.38Y-5.6
T7
X3.0Y-2.0
X3.0Y-2.1
X3.0Y-3.0
X3.0Y-3.1
X3.0Y-4.0
X3.0Y-4.1
X3.0Y-5.0
X3.0Y-5.1
T8
X2.65Y-1.25
X2.65Y-1.35
X2.65Y-5.6
X2.65Y-5.7
T9
X3.7Y-5.55
T10
X4.8Y-5.9276
X4.9Y-5.9276
X5.0Y-5.9276
X5.8Y-5.9307
X5.9Y-5.9307
X6.0Y-5.9307
T11
X5.3604Y-1.1204
T12
X6.82Y-1.9
X6.82Y-2.0
X6.82Y-2.9
X6.82Y-3.0
X6.82Y-4.5
X6.82Y-4.6
T13
X4.0222Y-5.82
X4.16Y-5.82
X4.2978Y-5.82
T14
X2.8Y-1.8
X2.8Y-2.2
X2.8Y-2.8
X2.8Y-3.2
X2.8Y-3.8
X2.8Y-4.2
X2.8Y-4.8
X2.8Y-5.2
T15
X3.5Y-1.25
X3.5Y-5.75
X6.75Y-1.25
X6.75Y-5.75
T0
M30
